<?xml version="1.0" encoding="UTF-8"?>
<svg id="katman_1" data-name="katman 1" xmlns="http://www.w3.org/2000/svg" viewBox="0 0 128 128">
  <defs>
    <style>
      .cls-1 {
        fill: #9e8dab;
      }
    </style>
  </defs>
  <path class="cls-1" d="M51.3,101.48c-1.18-.86-3.13-.7-3.95-1.88-1.62-2.34-5.52-2.95-9.14-8.88l-3.16-5.19c-1-1.64-1.78-3.61-2.49-5.43s-.65-3.92-2.03-5.72c-.5-.66.26-2.21-.19-2.89-1.12-1.68-.24-3.52-.62-5.05-.5-2.03-.24-3.37-.07-5.27.81-8.98,3.89-17.11,9.87-23.89,5.13-5.82,11.59-9.9,19.31-11.35,2.09-.39,4.06-.91,6.1-1.45,1.77.55,3.46.95,5.28,1.27,9.62,1.72,17.31,7.69,22.15,16.09,4.08,7.09,5.6,14.89,5.87,23.06.2,5.97-.22,11.51-2.56,16.98-1.76,4.11-3.41,7.86-6.69,11.08-1.64,1.62-2.86,3.65-5.31,4.38-2.44,3.18-6.01,5.22-9.89,5.98-1.5,1.15-3.19,1.33-4.98,1.6-2.69.41-3.04,2.68-11.06-1.04-2.5.21-4.41-.93-6.45-2.41ZM40.76,88.1c0-.11-.09-.29-.15-.39-.42-.82-.68-1.9-1.65-2.14.1-1.18-.88-1.86-1.54-2.93-.16-.27-.11-.7-.31-.95-.24-.31-.62-.14-.75.28-.24-.2-.39-.46-.49-.75l-.17-2.32c-.4-.21-.77-.11-1.1-.05l-.24-3.08c-.6,1.08-.8,2.2-.33,3.26-.4-.17-.48-.39-.64-.31-.43-1.67,1.31-5.16.1-5.5-.29.69.32,1.56-.67,1.58.25-1.76.9-3.13-.05-4.48.18,3.8-2.86,5.12.21,4.38.34,1.1-1.25,3.99.41,4.02.12.58-.34,1.43.35,1.95.41.03.44-.64.36-.89.56.21.15.7.09,1.22-.08.76.87,1.19,1.29,1.63.63.66.97,1.39,1.1,2.23-.52-.29-.7-.87-1.26-1.31-.03,1.3.65,2.26,1.55,3.17.24-.77-.3-1.09-.29-1.86.28.51,1.1,1.04,1.09,1.78-.08.19-.33-.11-.81.05-.95-.38,3.38,4.88,2.14,3.9.28.22.63.2.59-.25-.04-.43-.32-.68-.41-.94s.46-.6.62-.47c.29.5.35,1.21.85,1.41.27.11.91-.06.82.53-.02.15-.41.3-.47.45-.04.11-.05.32.04.42-.35.06-.7-.24-1.03-.12.3.73.81.78,1.02,1.12.9,1.51,2.18,2.73,3.9,3.54.16-.4,0-.77.3-1.15.62,1.2,1.94,1.35,2.3,2.4-.79.04-.86-1.01-2.14-1.13.83,1.11,1.92,2.2,3.54,2.7l-1.4-1.56c.85.21,1.62,1.04,2.54,1.12-.16.19-.37.31-.55.43-.79.53,1.82,1.47,2.7,1.74,1.23,1.59,3.54,2.13,5.45,1.75.26.35.61.71.79.86.33.26.92.59,1.05-.06l-.02-.36.62.08c.31,1.11,1.47,2.07,2.8,1.59.2-.16.41-.53.5-.29s.1.51.72.51c-.12-2.06-2.2-2.7-3.48-3.78s-2.36-1.95-4.25-2.48c-4.58-1.27-9.19-5.85-9.11-3.62-.54-1.18-1.27-2.27-2.48-3.1-.88-1.41-2.76-2-2.96-4.02,4.2,4.32,8.8,7.92,14.53,9.91,3.28,1.14,5.97,2.79,8.52,5.44,2.35-2.51,4.76-4.05,7.79-5.08,7.08-2.41,13.05-6.75,17.22-13.05,4.92-7.44,7.42-16.23,7-25.29-.71-15.11-10.91-30.16-26.32-33.25-7.07-1.42-4.47-1.96-14.2.69-8.51,2.31-15.25,7.99-19.29,15.7-7.76,14.82-5.12,32.14,4.9,44.85-.8.46-1.07.21-1.29.27ZM34.16,48.68c.14-.37-.48-.61-.57-.46-.21.38-2.01,5.33-1.4,5.74l1.97-5.28ZM31.96,56.62c-.72.32-1.02.58-1.2,1.02-.16.37.68,1.49.64,1.47.85.39.05-2.5.57-2.48ZM30.52,64.8c.72-1.36.31-2.34.24-3.55-.62,1.05-1.06,2.27-.24,3.55ZM73.68,102.35l.36.02c.73.28,6.62-2.42,6.56-3.34.52-.28,1.49-.54,1.52-1.39.41-.31,1.12-.63,1.35-1.19.83.03,4.11-1.97,2.98-2.89l-.04-.65c.47-.1.93-.33,1.29-.65-.23.19-.01.22.11.4.27.39.19-.02.41-.16,2.51-1.53,5.02-6.88,6.2-9.54,1.39-3.12,2.58-6.15,2.91-9.66.16-1.7.75-3.34.1-5.17-1.96,7.38-3.57,13.63-8.67,19.82-4.15,5.04-9.13,8.74-15.36,10.77-3.5,1.14-6.65,3.08-8.71,6.31,2.04.3,3.1-.72,4.66-.96s3.33-.55,4.31-1.73Z"/>
  <path class="cls-1" d="M73.24,40.28c.05-.15.08-.3.09-.46.15-.14.27-.19.51.05.09.09.34.21.01.37-.15.07-.4-.03-.62.04Z"/>
  <path class="cls-1" d="M52.26,100.82c-.88-.27-3.49-1.21-2.7-1.74.18-.12.38-.23.55-.43-.13-.48-.53-.52-.73-.73l.03-.42c1.82,1.5,6.77.45,7.25,3.16.06.34,1.19.3.56,1.04-1.13,1.32-1.58.14-4.96-.88ZM56.38,101.16c-.93-.05-1.04.39-.2.45.42-.05.58-.24.2-.45Z"/>
  <path class="cls-1" d="M38.97,85.56c-.05.54-.15,1.12.22,1.71.24.39.89.41,1.43.43.05.1.15.28.15.39-.05.75-.09,1.5-.09,2.25-.5-.2-.55-.91-.85-1.41-.15-.13-.7.22-.62.47s.37.51.41.94c.04.45-.32.46-.59.25,1.25.97-3.09-4.28-2.14-3.9.48-.16.74.14.81-.05,1.66.33-2.22-4.07-1.32-4.67.13-.42.5-.59.75-.28.2.25.14.68.31.95.65,1.07,1.64,1.75,1.54,2.93Z"/>
  <path class="cls-1" d="M60.15,103.08c-.22-.78-.33-1.47.55-1.96,1.28,1.08,3.36,1.72,3.48,3.78-.62,0-.63-.29-.72-.51-.09-.24-.3.13-.5.29-1.33.48-2.49-.48-2.8-1.59Z"/>
  <path class="cls-1" d="M35.89,81.21c-.32.4-.39.91-.38,1.41-.41-.44-1.36-.87-1.29-1.63.05-.53.47-1.01-.09-1.22-.68-.34.63-.46.49-.93.34-.06.7-.16,1.1.05l.17,2.32Z"/>
  <path class="cls-1" d="M34.16,48.68l-1.97,5.28c-.61-.41,1.18-5.36,1.4-5.74.09-.15.71.09.57.46Z"/>
  <path class="cls-1" d="M33.41,78.7c-1.67-.03-.08-2.92-.41-4.02-3.07.75-.02-.58-.21-4.38.95,1.35.3,2.72.05,4.48.98-.01.38-.89.67-1.58,1.22.34-.53,3.83-.1,5.5Z"/>
  <path class="cls-1" d="M34.62,78.84c.14.47-1.17.59-.49.93.07.25.05.92-.36.89-.7-.53-.23-1.37-.35-1.95.16-.08.24.14.64.31-.47-1.05-.27-2.18.33-3.26l.24,3.08Z"/>
  <path class="cls-1" d="M36.61,84.85c0,.77.53,1.09.29,1.86-.9-.91-1.58-1.87-1.55-3.17.56.44.74,1.02,1.26,1.31Z"/>
  <path class="cls-1" d="M36.38,81.97c-.89.6,2.98,5,1.32,4.67.01-.74-.81-1.27-1.09-1.78-.13-.85-.47-1.57-1.1-2.23-.02-.5.05-1.01.38-1.41.1.29.25.56.49.75Z"/>
  <path class="cls-1" d="M30.52,64.8c-.82-1.28-.38-2.5.24-3.55.07,1.21.48,2.19-.24,3.55Z"/>
  <path class="cls-1" d="M31.96,56.62c-.52-.02.28,2.88-.57,2.48.04.02-.79-1.1-.64-1.47.19-.44.49-.7,1.2-1.02Z"/>
  <path class="cls-1" d="M83.47,96.45c-.23.55-.95.88-1.35,1.19-1.02-.05.32-1.36-.57-1.58-.34-.08-.33-.4.22-.74.42.68,1.07.94,1.71,1.14Z"/>
  <path class="cls-1" d="M47.56,97.53l1.4,1.56c-1.62-.49-2.71-1.59-3.54-2.7,1.28.12,1.35,1.17,2.14,1.13Z"/>
  <path class="cls-1" d="M41.06,91.75c.26.3.16.67-.01,1-.21-.35-.72-.39-1.02-1.12.33-.12.68.18,1.03.12Z"/>
  <path class="cls-1" d="M87.7,92.27c-.36.32-.82.55-1.29.65-.09-1.57.62.28,2.18-2.47.81.97-.38,1.36-.9,1.82Z"/>
  <path class="cls-1" d="M59.53,103.01l.02.36c-.21-.01-.39.03-.56,0-.18-.03-.21-.29-.2-.53,0-.14.32-.25.52-.21.14.03.15.21.22.37Z"/>
  <path class="cls-1" d="M74.04,102.37l-.36-.02c.34-.41.34-1.15.78-1.35.75-.33,1.27-.16,2.11-.19-.2-.53-.8-.3-.56-.67.08-.12.4-.41.66-.39.72.02.76-.3-.05-.47-.11-.41.28-.57.51-.63.4-.11.62.01.79.28.21.32.1.57-.08.96-1.09,2.4-3.13.7-3.8,2.48Z"/>
  <path class="cls-1" d="M76.94,41.71c-.57-.74-4.13-4.91-5.08-3.62-1.36-.37-2.72.09-3.7,1.16-.85.92-1.38,2.31-1.4,3.61-.24.6.04,1.47,0,2.11-.03.35,0,.73.03,1.08.08,1,1.27,1.49,1.13,2.56-.36,2.69-.87.3-1.25,3.62-.07.62-.52,1.47.35,1.83-.04.35,0,.7.13,1.03-1.08,2.34-.48,3.05.02,6.2-.4,1.03-.86,2.51.34,3.32.45-.1.34-.86.33-1.13.1-.09.2-.13.33-.06.92,1.26,1.6-.77,4.26.8l-2.06.5c.62.46,1.38.22,1.89.8l-1.77-.05c-.98-.03-2.13.73-3.23,1.24-.9.41-.51,2.62.14,3.09.94.03.79-.31.26-.86.29-.26.67.12.66.37l-.02,1.11c.65-.36,1.34-.89,1.77-.16-1.07.17-2.2,1.13-1.67,2.08s.91,1.79.17,2.86c.18.41.66.58.48.92-.33-.23-.52-.7-1.21-.68.73,2.05-2.42,2.94-.16,3.94-.3,1.05,1.15.75,1.45,1.25.53.9,1.62.52,2.87.69-.09,1.68-2.91-.23-3.78.78-.25.29.13.49.25.97.11.45-.21.87-.29,1.47-.04.29-.51-.05-1.1.48.62.34,1.2.28,1.85.52-.43,1.04-.05,1.79.87,2.14.72.28,1.4.12,2.14.44l-1.57.58c2.42.74,4.08-.95,5.64-2.52.84-.83,1.45-.76,1.58-1.93.09-.79,1.13-1.67,1.1-2.64.04.27.16.94.52,1.03.48-.35.9-.54,1.4-.61-.06.28-.05.62-.54.76-2.47.68-.61,4.18-6.26,6.42-2.64,1.04-4.83.32-6.65-1.51s-1.01-3.96-.86-6.54c-.14,2.34-.56-12.17-.25-9.58-.28-2.32.12-4.05.08-6.22l-.1-4.83c-.08-3.73-.31-7.45.19-11.28.23-1.73-2.39-10.43,3.76-11.81,2.24-.5,4.02.49,5.44,2.2.58.7,1.57,1.15,1.53,2.07Z"/>
  <path class="cls-1" d="M80.59,82.03c.18-.81.77-1.44,1.18-2.14,1.15.62,1.98-.04,2.79-.85,2.04-2.04,2.81-5.45,1.35-8.2-.39-.74-1.68-.89-2.01-1.6.32,0,.61-.16.77-.35.26-.31.26-.63.22-.94-.02-.14.13-.3.14-.44.53.04,1.12.11,1.38.63-.36.1-.92,1.33-.26,1.39,1.69.14,3.07-1.52,3.41-2.91,1.27-.65,1.35-1.98,1.55-3.19s.23-2.29-.12-3.75c-1.93-8.02-6.37-4.79-5.68-8.89.43-2.52-1.1-4.37-3.25-5.16-2.87-1.06-2.99-.24-2.83-1.61.45-3.85-2.22-7.25-5.97-8.48-5.78-1.89-6.16,3.76-8.44,3.83-1.49.05-2.51-4.77-7.27-4.12-4.38.6-7.85,3.95-7.63,8.5l3.14-2.78c1.26-1.11,2.03-4.51,6.61-3.64,1.68.32,3.1,1.73,3.9,3.54,2.19,4.92-1.36,5.84.48,9.61.82,1.68-.51,3.45-.09,4.9.57,1.96.24,3.76.15,5.44l-.26,4.72c-.11,2.05.46,3.71.44,5.67l-.09,9.56c-.03,2.91.71,5.86-2.05,7.73-2.31,1.57-6.08,1.78-7.89-.81-.7-1-1.5-1.94-2.79-1.45.52,2.12,2.22,3.27,4.08,4.19,2.52,1.25,5.68,1.41,7.6-.82.6-.7,1.2-1.13,2.02-1.2.89-.07,1.15.84,1.82,1.38,3.7,2.97,8.18,1.57,11.56-1.69-2.41,4.44-8.27,5.13-12.29,2.4-.42-.29-.85-1.61-1.48-1.16-1.02.78-.41,2.32-.59,3.55-.77-.51-.17-1.2-.41-2.31-4.22,2.89-10.25,1.42-12.55-3.13-.52-1.03-.68-1.6-1.91-1.93-2.33-.62-3.88-2.91-3.16-5.46-2.72-1.2-3.91-3.79-3.57-6.8.08-.69.63-2.1.04-2.59-1.59-.75-3.05-1.44-3.87-3.13-2.2-4.52-1.25-10.12,2.53-13.53.6-.54,1.99-.66,1.83-1.73-.53-3.48,1.14-6.73,4.6-7.79,2.67-.82.31-7.1,7.78-9.61,3.67-1.23,7.43.12,9.44,3.77,2.18-3.99,6.34-5.37,10.11-3.25,3.18,1.79,4.99,5,5.21,8.79,4.83.91,6.09,3.43,5.96,7.96,1.14,1.19,3.32,1.97,4.15,3.67,1.11,2.27,1.82,4.72,1.8,7.3-.02,3.57-2.2,6.31-5.48,7.55,1.24,3.58.61,7.61-2.41,9.88-1.48,1.11-4.16,6.19-5.75,7.85.57-2.62,2.34-4.23,3.66-6.36-.37-.72-1.15-.07-1.58,0ZM50.48,44.73c-.76-.03-1.3.38-1.91.7-.85.43-2.89,1.89-2.84,2.96-.23.02-.49.22-.74.22.26-.32.48-.66.39-1.09-.02-.15.05-.34,0-.53-.07-.24-.29-.24-.36,0-.05.19.02.38,0,.53-.66.01-2.1,4.41-.36,4.36.21,0,.61-.02.68.2.09.29-.02.58-.01.81-.13-.06-.36-.03-.48,0-.16.06-.19.29-.19.44-.06,1.77.77.79.63,2.89-.87-.47-1.23.51-1.82.92-1.05.72-1.13,1.48-1.57,2.55-.39.94-1.37,1.4-1.59,2.35s-.72,1.83-.21,2.88c.5-1.04.49-.48.77.18-.37,3.6.94,1.88,2.01,4.04.08.16.31.07.41-.08.21-.3.14-.52-.21-.78-.53-.52-.16-1.07.33-.45.17.56.34.88.61,1.17.23.24.81.41,1-.09.22.11.87-.03.59.49-.1.19-.37.42-.6.63-2.56,1.86-2.24,6.07.05,8.31.25.24.68.26.91.28s.44-.32.54-.58c2.8.81,1.34,1.67,3.19,1.08.25-.08.41.18.49.4-.18.17-.51.55-.44.98l.54,3.32c.34-1.04.04-1.8.44-2.57.29.64.06,1.32.14,2.23.93,0,.26-.62.44-1.14.47.34.26.85.43,1.1.61.89.96.02,3.09.75-.2.68-.9.7-.77,1.29.15.69.44,1.88.89,1.69.75-.47.78-.22.88.19l.23.91c.44,1.79,3.79,1.15,5.3-.08,1.9-1.54,3.15-3.79,1.93-6.23-.1,1.03-.36,1.37-.51.58-.11-1-.64-1.29-1.51-1.23.46-.5.59-.96.8-1.46.39-.9,2.09-1.18,1.45-2.27-.13-.23-.44-.23-.88-.55l.96-.76c-1.42-.46-1.42.79-2.01,1.44l-.56-.18-.02-.35c.77-.06.16-2.01,1.22-3.09,1.03,2.6,1.61-5.38,1.28-5.29-.2-.18-.88-.36-.55-.77.19-.24.39-.36.49-.5.51-.74-1.13-1.07-1.16-1.74-.02-.41.2-.83.22-1.26,1.02-.07,1.31-1.38.84-2.33-1.28-2.6,1.04-3.2.19-4.97s-1.05-3.62-.14-5.51c.55-1.15-.93-1.87-1.33-2.65-.37-.71-.2-1.57-1.34-1.79-.1-.02-.31-.21-.36-.32-.06-.14.13-.34.22-.46.53.21,1.45.85,2.21.61,1.24-2.19,1.08-5.42-.52-7.25-1.3-1.48-2.64-2.22-4.57-1.67.21.26.48.38.51.61-4.14,2.4-3.72,1.95-4.89,6.5-3.43-1.6-2.1-.55-2.83-.58ZM40.09,60.83c.3-3.25,3.5-4.55,3.05-6.95-4.16,1.32-6.39,9.75-3.66,12.97-.19-2.18-.66-4.1.6-6.03ZM48.92,81.23c-.16-.63-1.56-.82-2.07-.63-.53,1.77.86,4.05,2.92,3.99l-.85-3.36ZM53.57,84.85c-1.02-.52-1.69-.45-2.54-.54.64,1.03,1.74,1.29,2.54.54Z"/>
  <path class="cls-1" d="M65.67,99v-.4c2.28-2.49,5.26-2.02,7.74-3.92-.62-.42-.91.22-1.19-.2.4.13,7.29-3.33,6.47-3.23.19-.02.42.22.79.46,2.1-.95,8.99-7.64,8.71-9.74,2.62-.69,6.04-14.49,5.96-17.74l-.3-7.03c-.96-7.46-4.29-13.63-8.84-19.61,9.52,9.67,11.95,24.17,7.71,36.97-3.61,10.89-11.75,19.32-22.91,22.3-1.51.4-2.77,1.25-4.14,2.16Z"/>
  <path class="cls-1" d="M47.15,34.42l.43.09c-7.65,6.34-11.41,15.23-11.89,24.96.94.24.47-.72,1.01-.69-.33,1.45-1.12,2.61-1.07,4.13.32,9.33,3.93,17.93,10.09,24.92,1.58,1.8,3.67,2.73,5.07,4.68-19.01-12.85-21.69-43.59-3.64-58.09Z"/>
  <path class="cls-1" d="M47.58,34.51l-.43-.09c4.25-3.05,9.14-5.21,14.55-5.78-.18.97-1.05.63-1.78.76-4.57.81-8.46,3-12.34,5.1Z"/>
  <path class="cls-1" d="M65.3,31.85c-1.32-.45.23-2.89-.52-3.21-1.44-.62-1.94.95-2.76.16,1.14-.34,2.09-.79,2.9-1.85.46.84.83,1.42,1.02,2.18-1.29.21-.48,1.5-.65,2.72Z"/>
  <path class="cls-1" d="M65.67,98.61v.4c-.24.15-.25.72-.55.76-.55.07-.55-.57-.83-.84-1.42-1.41-3.32-1.63-5.14-2.65,4.59.1,5.32,3.66,6.52,2.34Z"/>
  <path class="cls-1" d="M72.8,29.85c-1.96-.22-3.61-.45-5.54-1.3,1.99-.1,3.72.29,5.54,1.3Z"/>
  <path class="cls-1" d="M58.13,95.96c-1.59-.19-3.18-.8-4.5-1.98,1.64.22,3.13.59,4.5,1.98Z"/>
  <path class="cls-1" d="M88.18,81.97c-.71.19-.75.97-1.46,1.04,1.32-1.76.33-1.6,2.15-3.15-.07,1.09-.79,1.44-.69,2.11Z"/>
  <path class="cls-1" d="M81.26,34.32c-1.63-.84-3.19-1.82-4.7-3.05,1.7.7,3.21,1.5,4.7,3.05Z"/>
  <path class="cls-1" d="M42.94,41.28c.33-1.21,1.1-2,2.1-2.88-.34,1.22-1.15,2-2.1,2.88Z"/>
  <path class="cls-1" d="M83.69,36.58c-.82-.55-1.52-1.09-2.01-2.11.86.51,1.58.98,2.01,2.11Z"/>
  <circle class="cls-1" cx="42.66" cy="41.89" r=".18"/>
  <circle class="cls-1" cx="84.74" cy="37.17" r=".18"/>
  <circle class="cls-1" cx="87.28" cy="91.22" r=".18"/>
  <path class="cls-1" d="M86.45,93.56c-.55.57-.63.99-1.17,1.07.28-.58.69-.93,1.17-1.07Z"/>
  <path class="cls-1" d="M42.67,92.42c-.45-.28-.68-.61-.93-.9.48-.23.97-.23,1.09.06.1.23.03.96-.17.84Z"/>
  <path class="cls-1" d="M49.4,97.51l-.03.42c-1.21-1.26-2.82-1.81-3.68-3.47l3.71,3.05Z"/>
  <path class="cls-1" d="M44.87,94.63c-.46-.41-.96-.71-1.29-1.39.57.28,1.03.61,1.29,1.39Z"/>
  <path class="cls-1" d="M80.6,99.03c-.91.03-1.27.26-1.77-.11.95-.65.89-1.89,2.17-2.23-.44.99-.87,1.53-.4,2.34Z"/>
  <path class="cls-1" d="M56.38,101.16c.38.21.22.4-.2.45-.84-.06-.74-.49.2-.45Z"/>
  <path class="cls-1" d="M73.24,40.28c-.16.08-.35.05-.29-.21.05-.2.29-.17.38-.25-.01.16-.05.31-.09.46Z"/>
  <path class="cls-1" d="M76.94,41.71v.36c0,.86-.27,1.75.73,1.81.44.03,1.01.66,1.55.12-.16,1.37-.04.55,2.83,1.61.27.58.35,1.25.11,1.8-.58,1.31-2.02,1.04-3.38,2.03.35-.98-1.14-4.17-1.37-4.24-1.96-.66-.74,3.75-1.46,7.42-.22,1.11.17,1.96.82,2.54.76.67,1.89,1.36,2.9.53.84-.69,1.3-1.79,2.36-2.02l-.06.38c-.79,1.01-1.68,2.2-3.28,2.38-1.21.13-3.2-.71-3.34-1.76l-.11-.81c-.08-.64-.45.32-.88.5-.52-1.5.23-2.79,1.01-3.98s-1.03-2.17-1.08-2.97c-.09-1.44.16-2.65-1.62-3.64.91-.38,1.53-.39,1.72-1.11.49-1.83-.61-1.1-1.16-2.38.23-.06.48.04.62-.04.32-.16.08-.28-.01-.37-.25-.24-.37-.2-.51-.05l-1.47-1.74c.94-1.29,4.51,2.88,5.08,3.62ZM75.34,52.4c0-.23-.19-.42-.42-.42s-.42.19-.42.42.19.42.42.42.42-.19.42-.42Z"/>
  <path class="cls-1" d="M60.57,46.5c-.09.12-.29.33-.22.46.05.11.26.31.36.32,1.14.22.97,1.08,1.34,1.79.4.78,1.88,1.5,1.33,2.65-.91,1.89-.71,3.76.14,5.51-.76.23-.94,1.07-1.93,1.6-.43-.66-.89-1.17-1.73-1.66.51-.5.9.03,1.6-.21-.38-.48-.78-.66-.54-1.14,1.08-2.15.44-4.38.13-6.77-.1-.74-1.08-.5-2.02-.64-.54-.08.09-1.04.27-1.39.24-.48.71-.74,1.28-.51Z"/>
  <path class="cls-1" d="M49.74,61.29c.11-.26.6-.62.22-.91-.34-.26-.97.08-1.35-.03-.54-.17-1.04-.83-1.45-.25-.18-.3-.96-.23-1.23-.53-.54-1.01-.71-2.28-.63-3.36.14-2.1-.69-1.12-.63-2.89.57.32.86.95,1.31,1.49.62-.55.92-1.3,1.46-.92.48.33,1.54.47,1,1.34-.74-.35-1.28-1.2-1.68-.64.06.5.36.79.28,1.05-.07.23-.37.24-.61.52,2.35.54,1.86,2.5,3.14,2.89.54.16,1.04-.32,1.78-.02l-1.79.97c1.06.28,1.98-.23,2.88.54-.64.41-1.16-.25-1.55.49.95.49,1.77.99,2.05,2.11-.96-.98-1.94-1.61-3.18-1.84Z"/>
  <path class="cls-1" d="M62.48,64.54c-.03.43-.24.85-.22,1.26.03.67,1.67,1,1.16,1.74-.1.15-.3.26-.49.5-.33.41.35.59.55.77-.73.26-1.03.99-1.65,1.46-.15-.62-.64-.57-.76-.87-.1-.25.33-.48.42-.83.14-.53-.51-1.02-.67-1.37-.93.6-2.4.9-3.3.36l-2.61-1.57c1.11-.55,1.92.13,2.82.31,1.09.22,1.61-.43,1.94-1.3.28-.73,1.2.07,1.63.11.51.04.66-.76.83-1.27.39.1.52.46.35.71Z"/>
  <path class="cls-1" d="M40.09,60.83c-1.26,1.93-.8,3.85-.6,6.03-2.73-3.22-.5-11.66,3.66-12.97.44,2.4-2.76,3.7-3.05,6.95Z"/>
  <path class="cls-1" d="M61.23,87.38c-.12.15-.12.29-.14.39-.06.26-.13.6.25.43-1.51,1.23-4.85,1.87-5.3.08l-.23-.91c-.1-.41-.13-.65-.88-.19-.45.2-.74-1-.89-1.69-.13-.59.57-.61.77-1.29l1.84.63c.71.24.4,1.72,1.18,1.98.95.32,1.76.3,2.77-.15l-.72,1.1,1.36-.37ZM59.4,87.95c0-.13-.1-.23-.23-.23s-.23.1-.23.23.1.23.23.23.23-.1.23-.23Z"/>
  <path class="cls-1" d="M61.23,87.38c.37-.12.47-.1.42-.05s-.23.11-.42.05Z"/>
  <path class="cls-1" d="M46.5,78.02c-.11.25-.32.6-.54.58s-.66-.04-.91-.28c-2.29-2.24-2.61-6.44-.05-8.31,1.08,2.6-.68,2.81.77,5.75.41.83.99,1.42.73,2.27Z"/>
  <path class="cls-1" d="M45.01,68.89c-.19.5-.77.33-1,.09-.27-.29-.44-.61-.61-1.17-.49-.62-.86-.06-.33.45.35.26.42.48.21.78-.1.15-.33.24-.41.08-1.06-2.16-2.37-.43-2.01-4.04-.28-.66-.27-1.22-.77-.18-.5-1.05,0-1.93.21-2.88.4-.09.54-.35,1.13-.61-.51.69.18,1,.17,1.34-.07,2.31,1.22,3.35,2.75,4.48.35.26.18,1.41.65,1.65Z"/>
  <path class="cls-1" d="M50.48,44.73c.11.32.58.57.58.84,0,.52-.67.85-.92,1.29-.21.64.35.85.54.15.12-.31.24-.51.36-.58,2.14-1.08-.42.99-.24,1.92.07.39.55.56.84,1.24-.71.19-.98-.44-1.37-.52-1.05,1.04-.79,2.17-.49,3.54-2.36-.74,1.32-4.48-1.21-7.19.62-.31,1.15-.73,1.91-.7Z"/>
  <path class="cls-1" d="M86.39,68.13c-.26-.51-.85-.59-1.38-.63-.2-.06-.57-.48-.38-.71,1.82.06,3.24-.84,3.99-2.72,1.92.09-.98,4.71-2.23,4.05Z"/>
  <path class="cls-1" d="M91.09,63.42c-.2,1.21-.28,2.55-1.55,3.19.8-2.58-.12-5.04-1.08-7.5l.42-.06c.45,1.19,1.37,2.23,1.43,3.78.01.41.54.63.78.58Z"/>
  <path class="cls-1" d="M45.33,52.88c-.01-.23.1-.52.01-.81-.07-.22-.47-.21-.68-.2.15-1.09-.4-2.37.33-3.27.25,0,.51-.2.74-.22.23.1.35.05.71-.14-.23,1.48-1.51,3.8.46,3.03-.58.41-.7,2.06-1.57,1.6Z"/>
  <path class="cls-1" d="M62.05,79.86c-.32-.07-.85.45-.91.07-.53-1.2-.21-1.52.41-2.21s.59-1.9,2.01-1.44l-.96.76c.44.32.75.32.88.55.64,1.09-1.06,1.37-1.45,2.27Z"/>
  <path class="cls-1" d="M84.56,79.04c-.81.81-1.63,1.47-2.79.85-.05-.3,0-.67-.33-.82-.26.64-.24,1.09-.94,1.08.16-.72.24-1.11.09-2.11,1.28.74,2.7.47,3.97,1.01Z"/>
  <path class="cls-1" d="M45.38,47.51c.09.43-.14.77-.39,1.09-.73.9-.18,2.18-.33,3.27-1.74.05-.3-4.34.36-4.36h.36Z"/>
  <path class="cls-1" d="M84.88,67.94c.04.31.04.63-.22.94-.15.19-.45.35-.77.35-.5-.26-1.09.04-1.57-.62l2.55-.67Z"/>
  <path class="cls-1" d="M50.72,81.24c-.4.77-.1,1.53-.44,2.57l-.54-3.32c-.07-.43.26-.81.44-.98.16.43.79,1.25.54,1.73Z"/>
  <path class="cls-1" d="M53.57,84.85c-.81.75-1.91.49-2.54-.54.85.1,1.53.02,2.54.54Z"/>
  <path class="cls-1" d="M60.98,77.19l.02.35c-.17.06-.36.14-.55.07-.23-.09-.25-.36-.01-.38l.54-.05Z"/>
  <path class="cls-1" d="M45.38,47.51h-.36c.02-.15-.05-.34,0-.53.07-.24.29-.24.36,0,.05.19-.02.38,0,.53Z"/>
  <path class="cls-1" d="M84.18,61.01c-.26.58.44.83.67,1.07-.08.88.6,2.51-.87,2.95-.13-.79.88-1.52.33-2.25-1.07-1.42-2.57-1.38-4.06-.58-.13-1,.92-.23,1.12-.87-2.02-.28-3.35.74-5.12,1.45l1.58-1.91c1.94-2.35,1.76.76,5.72-1.23.38-.15.29-.65-.03-.55-.07-.21-.27-.37-.47-.5v-.58c1.61.12.81-1.21,1.87-1.46.33,1.47.03,3.07-1.41,4.09.12.21.39.28.66.35Z"/>
  <path class="cls-1" d="M69.04,76.11c-.14.32-.19.83.04,1.16s.79.6,1.36.83c.63.18.71.65-.02.62-.78-.09-.85.14-.1.6-.76.14-.93.73-1.2,1.31-.3-.5-1.74-.21-1.45-1.25-2.26-.99.89-1.89.16-3.94.69-.02.88.45,1.21.68Z"/>
  <path class="cls-1" d="M67.91,48.61c.14-1.07-1.05-1.56-1.13-2.56.38.07.39-.27.39-.53,0-.3-.06-.61-.42-.54.05-.64-.23-1.5,0-2.11.34-.44.73-.99,1.02-1.5.11.92-.9,2.56-.06,2.93,2.07.9.24.54,2.54,2.45.23.19.14.32-.14.4-1.13.3-.86,1.38-2.21,1.47Z"/>
  <path class="cls-1" d="M68.15,63.4c-.12-.06-.23-.03-.33.06-.45-.58-.56-1.46-.67-2.19-.5-3.15-1.09-3.86-.02-6.2,2.65,2-1,4.03,2.33,6.67-.88.66-.64-.31-1.08-.56l-.24,2.21Z"/>
  <path class="cls-1" d="M85.63,55.19c-.16.41-.45.76-.67,1.14-.02.06-.04.17-.03.24-1.06.25-.26,1.58-1.87,1.46-.39-.35-.06-.75.1-1.19.35-.95-.49-2.07.05-3.08,2.05.53,2.78.05,2.42,1.44ZM84.92,54.95c0-.1-.08-.18-.18-.18s-.18.08-.18.18.08.18.18.18.18-.08.18-.18Z"/>
  <path class="cls-1" d="M76.27,78.12c.04.29.02.59-.07.87-1.96.31.36,2.46-3.01,3.54-.54-.25-.28-1.6.4-1.61.11.03.17.51.26.57.07.05.19-.25.28-.28.19-.07-.33-.35-.3-.48.23-1.04,1.13-1.79,1.12-2.95.44.33.87.34,1.32.34Z"/>
  <path class="cls-1" d="M77.66,74.99c.94.95,1.51,2.17,2.54,3-1.08-.02-1.22-.8-1.96-1.08l-1.71,2.04c1.58.48,2.11,1.37,2.15,2.64.02.98-1.01,1.86-1.1,2.64-1.13.6.2-2.98-1.38-5.25.09-.28.11-.58.07-.87,2.03-1.49-.24-2.19.71-3.77-.09.24.01.44.19.52.17.07.41.04.49.12Z"/>
  <path class="cls-1" d="M82.85,52.68c-.19-.6-.64-1.09-.62-1.84-.37-.12-.65-.08-.93-.06-.01-.25.29-.6.12-.81-.14-.18-.41-.16-.87-.43.27-.31.61-.62,1.09-.97,1.15,2.52,3.62,3.4,2.2,4.7-.28-.16-.58-.67-.98-.58Z"/>
  <path class="cls-1" d="M72.05,60.24c-2.11-1.81-2.91-5.13-.87-7.36-.66,2.67-.51,4.73.87,7.36Z"/>
  <path class="cls-1" d="M82.23,72.52c-1.13-.02-1.09-1.26-1.98-1.35.33-.43.6-.68.57-.94-.1-.96-2.03-1.53-.14-1.75.68,1.27,1.78,2.16,1.55,4.04Z"/>
  <path class="cls-1" d="M72.92,67.56c-.3-.99-1.32-1.06-2.52-1.4,1.49-.19,2.84.42,4.36-.36-.06.84-.75,1.31-1.85,1.76Z"/>
  <path class="cls-1" d="M88.88,59.06l-.42.06c-.76-.72-1.36-1.91-2.03-2.96-.42-.29-1.08.19-1.46.17.22-.38.51-.73.67-1.14,2.84,1.21,2.86,2.85,3.25,3.87Z"/>
  <path class="cls-1" d="M77.66,74.99c-.08-.08-.32-.05-.49-.12-.18-.08-.28-.28-.19-.52.65-1.08.88-2.39,2.04-3.39.16,1.81-1.17,2.67-1.36,4.03Z"/>
  <path class="cls-1" d="M67.01,54.05c-.87-.35-.42-1.21-.35-1.83.67-.44,1.01-1.12,1.47-1.85l-.48,2.2c.4-.67.68-1.61,1.53-1.22-.9,1.09-1.42,1.99-2.18,2.7Z"/>
  <path class="cls-1" d="M80.27,75.58c.75-.56,1.12-1.28,1.6-2.48.59.92.05,2.67-1.6,2.48Z"/>
  <path class="cls-1" d="M84.86,62.08c-.23-.25-.93-.49-.67-1.07.73.18,1.27-.34,2.19-.5l-.55,1.68-.97-.1Z"/>
  <path class="cls-1" d="M83.06,58.61c.2.13.4.29.47.5-.73.15-1.35.45-2.19.74-.06-.76.39-.98.71-1.28.27-.27.67-.18,1.01.05Z"/>
  <path class="cls-1" d="M82.85,52.68c.25.78-.56.96-.88,1.38l.06-.38c1.08-.8-.69-2.19-.73-2.9.29-.01.57-.06.93.06-.02.75.42,1.25.62,1.84Z"/>
  <path class="cls-1" d="M69.39,66.45c.43-.55.95.56.98.46-.12.37-.4.16-.54.2-.4.1-.74-.27-.44-.66Z"/>
  <path class="cls-1" d="M69.36,43.77c.05.93-.39,1.04-.45.2.05-.42.24-.58.45-.2Z"/>
  <circle class="cls-1" cx="86.91" cy="61.66" r=".23"/>
  <circle class="cls-1" cx="79.48" cy="62.2" r=".23"/>
  <path class="cls-1" d="M51.9,70.44c.04-.2-.14-.67.24-.54-.12-.19,2.1,4.38,1.94,3.61.09.45-.29.77-.35,1.22-.04.31.42.29.54.18.4-.35.06-.65.56-1.06.63-.52.46,1.65.1,1.8-.17.07-.46-.1-1.03-.16.05,3.93,1.89,1.6.03,3.5-.64-1.75-1.51-3.58-1.47-5.71.02-1.08.21-2.18-.55-2.84Z"/>
  <path class="cls-1" d="M54.09,48.6h.36c-.05.99-.12,2.14.27,2.99.77-.45.37-1.2.99-1.45.15,2.15.2,8.36-2.13,8.47l1.5-2.65c.53-.94-2.43-1.43-1-7.36ZM55.01,51.93c-.47.19-.65.54-.56.82.05.18.29.27.54.2.31-.08.26-1.12.02-1.02Z"/>
  <path class="cls-1" d="M59.15,56.79c-2.44.78-.32,3.48-2.01,3.37.77-1.16-.01-2.22-.31-3.23.26-.63,1.4-1.44.86-2.69,1.19-3.47.22,2.79,1.47,2.55Z"/>
  <path class="cls-1" d="M52.14,69.89c-.38-.13-.2.34-.24.54-.45-.91-1.63-1.12-2.48-.88-.33-.16-.74-.42-1.12-.04,0-.42-.09-.75-.36-.86-.43-.19-1.11.15-1.55-.32.45-.66,1.77-1.05,2.42-.87l1.94.54c-.15.58-.5.49-.69.86,1.1-.1,1.64.35,2.07,1.03Z"/>
  <path class="cls-1" d="M49.42,69.56c-1.08.22-2.69,4.55-1.11,5.45-1.08-.24-1.58-1.08-1.53-2.11.07-1.42.67-2.53,1.53-3.38.37-.37.78-.12,1.12.04Z"/>
  <path class="cls-1" d="M49.74,61.29c-.12-.02-.24.01-.36,0-.08-.23-.37-.45-.53-.35-.26.16-.47.49-.31.71-.08-.05-.2-.03-.27-.09-.12-.12-.2-.16-.32,0-.16-.12-.32-.22-.49-.31.02-.06.02-.12.03-.17.03-.36-.09-.7-.33-.96.42-.59.91.08,1.45.25.38.12,1.01-.22,1.35.03.38.29-.11.65-.22.91Z"/>
  <path class="cls-1" d="M47.48,61.07c0,.06-.01.12-.03.17-1.24.36-1.52,1.54-1.36,3-.82-.4-.36-1.4-.17-2.16.13-.53.81-.9,1.55-1.02Z"/>
  <path class="cls-1" d="M54.45,48.6h-.36c.17-.85.41-1.45.95-1.85.72.94-.47,1.39-.59,1.85Z"/>
  <rect class="cls-1" x="54.88" y="45.1" width="1.61" height=".69" transform="translate(-5.03 83.9) rotate(-71.57)"/>
  <path class="cls-1" d="M49.37,61.29c.03.23,0,.52-.16.71-.12.14-.39.55-.56.2-.11-.23-.09-.44-.13-.56-.16-.22.05-.54.31-.71.16-.1.46.12.53.35Z"/>
  <path class="cls-1" d="M56.93,82.5l-2.49-2.22c.49-.14.69-.22,1.08-.55-.25,1.32.54,1.25,1.41,2.78Z"/>
  <circle class="cls-1" cx="60.8" cy="59.12" r=".23"/>
  <circle class="cls-1" cx="48.47" cy="46.78" r=".23"/>
  <circle class="cls-1" cx="50.28" cy="78.52" r=".18"/>
  <circle class="cls-1" cx="51.01" cy="78.16" r=".18"/>
  <path class="cls-1" d="M47.94,61.55c.11-.16.19-.12.32,0,.04.53-.39.54-.32,0Z"/>
  <path class="cls-1" d="M77.67,43.88c-1-.07-.73-.95-.73-1.81.55.46.36,1.25.73,1.81Z"/>
  <circle class="cls-1" cx="74.91" cy="52.4" r=".42"/>
  <circle class="cls-1" cx="59.17" cy="87.95" r=".23"/>
  <path class="cls-1" d="M67.83,63.47c0,.27.12,1.03-.33,1.13-1.2-.81-.75-2.28-.34-3.32.12.73.23,1.61.67,2.19Z"/>
  <path class="cls-1" d="M66.78,46.04c-.03-.35-.05-.73-.03-1.08.36-.07.41.25.42.54,0,.27-.01.61-.39.53Z"/>
  <circle class="cls-1" cx="84.74" cy="54.95" r=".18"/>
  <path class="cls-1" d="M55.01,51.93c.24-.1.28.94-.02,1.02-.25.07-.49-.02-.54-.2-.09-.29.09-.63.56-.82Z"/>
</svg>