<?xml version="1.0" encoding="UTF-8"?>
<svg id="katman_1" data-name="katman 1" xmlns="http://www.w3.org/2000/svg" viewBox="0 0 128 128">
  <defs>
    <style>
      .cls-1 {
        fill: #7fe581;
      }

      .cls-2 {
        fill: #cfe27f;
      }
    </style>
  </defs>
  <path class="cls-1" d="M78.64,34.67c-1.86-.2-3.58-1.05-5.45-.99v-.5c1.79.45,4.2-.12,5.45,1.49Z"/>
  <path class="cls-1" d="M48.83,22.3c.22.08.36.63.75.51.08.31.19.6.35.88-.18-.02-.36.1-.51.17-.25.1-.63.32-.31.61-.35-.39-1.44-.28-1.68-1.06s.86-1.24,1.4-1.09Z"/>
  <path class="cls-1" d="M63.03,36.51c-.14-.1-.24-.24-.36-.36.14,0,.34.22.36.36Z"/>
  <path class="cls-1" d="M21.72,51.36v1.14s-1.41.65-1.41.65c.1-.87.38-1.94,1.41-1.79Z"/>
  <path class="cls-2" d="M68.02,86.89c0-.38-.12-.8-.02-1.17l2.22-2.1c.42.56-.64,3.02-.94,3.23-.41.29-.87.19-1.26.05Z"/>
  <path class="cls-1" d="M61.3,33.95c-.04.55.6.88,1.05,1.08.18.32.03.82.32,1.11l-.79.05c-.09-.11-.16-.34-.35-.37.04-.65-.34-1.13-1.05-1.64.25-.22.55-.2.82-.24Z"/>
  <path class="cls-1" d="M63.83,36.82c.06.56.21.91.65,1.46-.86-.37-1.34-1.02-1.45-1.78.22.16.6.14.8.31Z"/>
  <path class="cls-2" d="M68.73,77.91c.06.69.32,1.35.85,1.79-.02.2-.17.36-.37.39-.33-.34-.77-.6-1.27-.92-.8-.51-.89-1.42-.38-2.03.44.52.79.65,1.17.77Z"/>
  <path class="cls-2" d="M80.8,65.17c.67.32,2.3.17,2.18,1.09-1.01-.07-1.97-.55-2.98-.32-.01-.18-.02-.38.08-.58s.49-.3.73-.19Z"/>
  <path class="cls-1" d="M23.53,38.69c.04-.6.15-.53.4-.34-.04.29-.07.4-.4.34Z"/>
  <path class="cls-1" d="M87.65,64.81l.43.09c-.17.03-.3.15-.43-.09Z"/>
  <path class="cls-1" d="M59.04,39.75c.22.26.43.56.72.76-.14.34-.42.59-.76.75.19-.26.1-.37-.15-.39-.22-.02-.41,0-.56,0l.12-1.08.63-.05Z"/>
  <path class="cls-2" d="M98.26,57.5c0,.33.3.71.23,1.1s-.54.17-.64.04c-.39.16-.85-.02-1.03-.55-.29-.82-.21-1.56-.2-2.26.94.08.89,1.35,1.65,1.67Z"/>
  <path class="cls-2" d="M93.42,56.46c.4-.21,1.13-.04,1.17-.73.29.03.44-.18.33-.45.18-.09.33-.29.79-.15-.41,1.02-.63,2.29-1.57,3.11-.46.4-1.08-.07-1.07-.49,0-.36-.09-1.06.35-1.3Z"/>
  <path class="cls-1" d="M20.21,54.29c-.04-.1.02-.26.02-.37.61.08,1.13-.27,1.53-.71.02.38-.16.74-.44.9-.37.21-.76.19-1.11.17Z"/>
  <path class="cls-1" d="M22.48,42.38c-.75.25-1.11.66-1.22,1.47-.14.19-.47.08-.6-.2-.21-.48.42-.99.37-1.39.54.1.91-.59,1.4-.62l.05.74Z"/>
  <path class="cls-1" d="M59.77,43.04c.03-.3-.35-.44-.36-.73.44.02.85.17,1.08.56-.38.15-.55.14-.72.16Z"/>
  <path class="cls-1" d="M59.4,42.32c-.24,0-.59.04-.37-.33.29-.26.37.08.37.33Z"/>
  <path class="cls-1" d="M61.88,36.2c-.09-.1-.26-.28-.35-.37.19.03.26.26.35.37Z"/>
  <path class="cls-1" d="M66.57,32.73l1.13,1.09c-4.44-.22-7.13-2.09-6.4.14-.27.05-.57.02-.82.24.71.51,1.09.98,1.05,1.64l-6.49-5.9-1.49-.47c1.17-1.21,1.74.16,3.07.66.08-1.54-1.55-1.5-1.91-2.94l4.08,3.45c2.03,1.71,5.18,2.02,7.77,2.11ZM57.1,29.79l-.47.46,3.56,3.64.47-.46-3.56-3.64Z"/>
  <path class="cls-1" d="M94.59,55.74c-.04.68-.77.51-1.17.73.05-.25.14-.55.34-.64.29-.12.58-.11.83-.08Z"/>
  <path class="cls-1" d="M63.83,36.82c-.2-.17-.58-.15-.8-.31-.02-.15-.22-.37-.36-.36-.29-.3-.14-.8-.32-1.11.71.32,1.39.97,1.48,1.79Z"/>
  <path class="cls-1" d="M94.59,55.74c.01-.23.01-.52.33-.45.11.27-.04.48-.33.45Z"/>
  <path class="cls-1" d="M62.35,35.04c-.45-.2-1.1-.53-1.05-1.08.42.2.82.66,1.05,1.08Z"/>
  <path class="cls-2" d="M62.67,36.15c.12.12.22.26.36.36.11.76.59,1.41,1.45,1.78-.44-.56-.59-.91-.65-1.46,2.36,2.11,3.93,5.07,5.55,7.92l-1.35-.64c.57,1.45,1.37,2.36,1.74,3.68.68-1.27-.69-1.85-.44-2.99,2.44,4.79,3.78,3.09,7.83,6.81,4.24-.22,8.41-.5,12.6.12.81.12,1.27-.07,2.01-.66-.14,1.07-.37,2.1.31,2.6.55.4,2.33.67,2.56,0,0-.5-.34-1.42.05-2.07-.61-1-1.9-.14-3.1-.58.96-.87,2.06-.16,3.45-.44-.71-1.02-1.85-1.77-1.45-3.08.16-.52.74-.95,1.16-.94,1.28.05.75,3.42,1.68,3.75,2.3-3.3.73-4.44,1.32-4.97.23-.21.72-.35,1.03-.13,1.81,1.26-2.55,1.66-.68,6.22,1.24-.57,2.96-.83,3.9-2.1.35-.47.58-.64.82-.51,2.23,1.21-4.13,2.14-4.63,3.65-.5.39.18,1.27-.48,1.62-.51.27-1.02.39-1.31.83-.21.32.15.62.23.9,0,.7-.08,1.44.2,2.26.19.54.64.72,1.03.55v.73c-.53.17-1.07.7-1.66.39-.06-1.4.27-2.7-.46-3.75-.69,1.07-.57,2.14-1.37,2.63-.9.54-1.69.29-1.95-.76-.16-.66.05-1.28,1-1.41-.44.24-.35.94-.35,1.3,0,.42.62.89,1.07.49.94-.82,1.16-2.1,1.57-3.11-.46-.14-.61.06-.79.15-.03-.29-.1-.57-.28-.68-.23-.14-.8-.23-1.05-.13-1.66.67-1.92-1.27-2.79-1.82-1.65-1.03-4.06-.46-5.97-.52l-5.52-.17c-.75-.02-.96.6-1.32,1.43-1.7-2.21-3.38-2.2-5.96-4.33-.77.82-.06,1.64.2,2.49,1.14,3.68,2.33,7.23,3.08,11.09,1.33,6.87,4.23,4.59,4.47,5.56.12.49.45.65.12,1.01-1.31,1.43-2.34-2.02-4.04-2.29.39,1.5-.13,3.21.32,4.44h-.39c-.11-.8-.24-1.59-.57-2.62-.56.95-.71,1.96-.94,2.96h-.36c.03-3.54,1.95-6.67-.57-10.15l-3.07,5.37c-.35.17-.64.43-.97.63l3.96-7.13c-1.55-6.55-3.57-12.69-7.23-18.43,1.43-.02.86,1.61,2.1,1.91-.27-1.26-1.14-1.88-1.53-2.82-.37.54-.47,1.15-.73.81-.19-.25-.44-.53-.46-.79,0-.14.59-.18.81-.41-.31-.82-.87-1.64-1.72-2.13-.1,1.07,1.32,1.22.85,2.52-1.1-1.75-2.7-3.12-3.48-4.88l.79-.05ZM71.06,49.57c0-.13-.1-.23-.23-.23s-.23.1-.23.23.1.23.23.23.23-.1.23-.23ZM71.79,51.75c0-.13-.1-.23-.23-.23s-.23.1-.23.23.1.23.23.23.23-.1.23-.23ZM72.28,54.28c.38-1.01-.16-1.42-.47-1.86-.09.82.31,1.32.47,1.86ZM73.38,58.24c.14-1.64-.43-2.55-.82-3.62-.1,1.44.49,2.5.82,3.62ZM74.16,60.66c.19-.91-.21-1.5-.48-1.94l-.44,1.65c-.07.25.84.68.92.29Z"/>
  <path class="cls-1" d="M24.85,32.8c-1.26,2.4-2.54,2.59-1.77,4.73-.47.16-1.27.44-1.28,1.15s.35,1.68-.15,2.19c-.4.41-.77.66-.62,1.38.05.4-.59.91-.37,1.39.12.28.46.39.6.2l-.56,4.17.54.74c.16.22-.59.54-.67.9-.01.27.26,1.1.83,1.05.52-1.18.79-2.03,1.71-2.11-.57.89-1.15,1.25-1.23,1.95-.03.28-.17.51-.17.82-1.03-.15-1.32.92-1.41,1.79-.03.26-.06.52-.07.77,0,.11-.06.27-.02.37.27.65.42,1.49.39,2.17l-.04,1.1c-.4.73-.69,2.01.31,2.25.03.41.06.84.42,1.07.16.1.12.09.3,0-.27.67.45.93.74.24,2.01-4.87-.04,2.6.03,1.81-.02.22-.45.47-.3.78-.36-.02-.74.14-.74.53,0,.36.21.68.41.93.13.16.37.4.6.42l.09,1.02c.06.7.31,1.37.77,1.82-.22,1.61.51,3.34,1.26,4.74,0,.1,0,.25.04.34-.25-.6,1.53,6.17.88,6.03-.71-.63-.94-1.5-1.38-2.16.83-2.08-.68-4.15-1.04-5.89-.46-2.23-.8-4.04-2.06-6.12-.6-1,.31-2.59-.88-3.72-1.07-1.02.08-3.53-.27-4.9-1.06-4.1.49-3.67.16-5.34-.83-4.23,1.12-3.65.21-7.07-.4-1.52.86-3.13.88-4.55.08-4.9,5.54-10.92,9.68-11.7.81-.15,1.61-.96,2.63-.69,1.11.3,2.19-.36,3.26-.17,5.13.88,8.72,5.17,9.67,9.8l-2.46-4.81c-1.18-2.31-3.89-3.76-6.63-4.08-.2.29-.2,1.05-.63,1.24-3.35,1.43-3.34-2.71-9.2.96.66.88,1.45-.37,2.02.69-1.72-.42-3.79.47-4.47,1.75ZM33.98,28.37c-.68-.32-1.37-.41-1.86.11.74.38,1.25.06,1.86-.11ZM21.68,62.45c0-.1-.08-.18-.18-.18s-.18.08-.18.18.08.18.18.18.18-.08.18-.18Z"/>
  <path class="cls-2" d="M82.68,72.35h.27c-.28,2.78,3.23,7.23,4.18,11.04.6.45,1.36.26,1.64,1-.78,0-1.62-.22-2.02.31-.46.6.19,2.8.61,3.15s1,.11,1.31-.06c1.24-.71-.17-2.54.13-3.38.8.78.52,1.91,1.18,2.93.75-.61.85-1.69,1.68-2.22,1.04-.68,2.57.03,2.71,1.27-.8.77-1.73,1.18-2.41,2.02,1.42.9,3.33-.99,3.58.17.28,1.32-1.32.37-3.95.85-.82.15-.52.81-.72,1.44-.43,1.39.89,3.03,2.27,3.83.44.25-.17.61-.26.84-.07.18-.73.39-.83.1-.55-1.64-1.01-3.29-2.53-4.48-.7,3.25,1.43,4.59,1.05,5.12s-.69.87-1.14.61c-1.22-.73.71-2.04-.88-5.31-.5.06-.62.55-.58.7-.17-.01-.34-.01-.52,0,0-.18-.11-.43-.04-.59.45-1.14-.73-2.19-1.84-2.17-.81.02-1.81-.73-2.45-1.24-.58-.47-.43-1.24.05-1.57,1.07-.72,1.71,1,2.72.56l.4-3.9c.18-1.76-4.71-10.58-4.77-10.42.19-.49.57-.57,1.13-.58Z"/>
  <path class="cls-2" d="M83.68,101.87c-.67.2-1.26.28-1.52,1.11-.15.48-.24,1.13-.05,1.67-.26-.06-.44-.36-.98-.31-.32,1.96.31,3.68.98,5.39.15.4-.78.77-1.02.65-1.76-.93.84-.31-.81-5.74-.35.51-.6.81-.72,1.1h-.29s-.03-.63-.03-.63c.05-.31.24-.87-.1-1.04-.23-.11-.71-.22-.87.09-.1.2.02.58-.03.82-3.65-.47-4.22,1.67-5.14.28,1.6-.48,2.83-.78,3.82-1.96-1.31-.67-2.31-.02-3.39.34-.39.13-.58-.59-.43-.83.87-1.45,2.45.41,3.81-.75-.84-.79-1.92-.64-2.07-1.82l3.46,1.57c-.75-1.07-1.82-1.46-2.84-2.08-.35.27-.48.61-.78.69-.58-.41.04-1.59.62-1.5,1.08.16,1.79,1.23,2.99,1.8-.96-1.58.56-2.94.86-4.06.45-.56-1.35-10.73-1.27-10.69-.34-.17-1.07-.07-1.53-.1-.1-.71.84-.56.95-1.15.06-.31-.16-.66-.08-.92.09-.27.38-.32.65-.22.16-.04.56,0,.42-.26.41-.05.88.17.95.55.15.74-1.17,1.38-1.22,1.79-.02.17.37.4.45.67.89,3.25.58,6.74,1.79,10.04.44,1.2,2.23,2.13,1.46,4.13l2.19-.91c.86.64-.37,1.21-1,1.57.9.03,2.15-.13,2.42-1.28.1-.44-1.01-.02-1.18-.36-.28-.58.86-.87,1.32-.66.38.17.78.75.46,1.32-.48.85-1.41,1.46-2.26,1.72ZM81.4,101.07c-.07-1.94-.42-4.18-1.84-3.7-1.3.43-.77,2.91-.28,3.77.81-.42,1.38-.29,2.13-.07ZM77.54,104.16c0-.1-.08-.18-.18-.18s-.18.08-.18.18.08.18.18.18.18-.08.18-.18Z"/>
  <path class="cls-2" d="M64.56,99.59c.24-1.01,1.65-1.48,2.76-1.96-.54-.25-1.15-1.13-1.98-.92-.4.1-.71.87-.98.68-.33-.22-.77-.24-1-.56.69-.31,1.13.11,1.69-.3-.32-.83-.76-.91-.96-1.25,1.08-.98,1.24,1,2.3.32.21-.13.42-.43.59-.81.39-.85.31-1.83-.5-2.16-.69-.28-1.24.19-2.06.64-.01-1.19.99-1.06,1.68-1.3.74-.25,3.44-3.91,1.96-4.76,0-.1-.04-.21-.04-.31.39.14.85.24,1.26-.05.3-.21,1.36-2.67.94-3.23.03-.22.06-.49.32-.68.18-.13.36.32.57.4,1.37.5,2.29-.64,2.83-1.72l2.74-.69c.27-.07.48-.62.61-.5.17.14.62.37.72.66.21.61-.26,1.26-.43,1.96-.44-.76-.68-1.38-1.31-1.3-.68.08-1.34-.12-1.69.44.6.58,1.56.53,1.94,1.43l-2.2-.57c.2.42.47.48.68.8.32.49-1.01.08-1.33.22l.26,2.37c-.95-.72-1.07-1.75-1.68-2.8-1.45,4.34,1.49,4.99-.65,5.29-1.87.27.37-2.32-.61-3.87-.98.65-.67,1.88-1.02,2.7-.56,1.31-2.72,2.7-2.5,4.49.14,1.2.22,2.5-.04,3.64.59.02,2.75-.76,2.67.58-.05.81-.92,1.74.22,2.81-1.37.18-1.74-.72-3.11-.78-.52,2.75,3.14,1.8,2.98,3.46-.03.33-.3.72-.76.7-1.02-.03-1.07-1.93-3.19-3.19-.97.81-.09,1.63-.07,2.49s1.23.72,1.4,1.2c.2.57-.12,1.22-.42,1.28-1.95.42-.33-2.34-2.57-4.86Z"/>
  <path class="cls-2" d="M100.84,76.8c-.63-.07-.67.77-.02.64.2-.04.4.08.59.08.3.37.25.49-.12.55-.31.05-.49.07-.93.29.25.35.73.29,1.01.57.4,1.47,1.78,1.86,3.13,1.95.61.04.51,1.42.07,1.61-1.93.81-.83-1.84-3.51-1.72l-1.42-2.03c-.63.65-.24,1.17-.43,1.67-.14-.12-.64-.41-.73-.14-.52,1.54.28,2.72.37,3.97.03.46-.98.59-1.15.4-.12-.13-.41-.12-.39-.54.68-1.2.76-2.42.52-3.62-.12-.57-.53-.95-1.06-1.16-.1-.17-.12-.53-.32-.59-.57-.18-2.05.65-2.12.81-.17.39.32.87.35,1.23-.13-.02-.28.07-.41.03-.34-.1-.87-.3-.9-.66-.04-.65,1.47-2.17,1.79-2.45.73-.65,1.85-.6,2.67-1.45-.27-.24-.61-.49-.74-.86.1.07.29-.11.34-.2.54-.87-.23-2.39,1.17-3.27.44-.27,1.34-.49,1.62.29s.36,1.72.28,2.5c-.77-.92.09-2.12-1.54-2.35.57,1.11.49,2.06.33,3.49,1.4-.54,2.12-1.52,3.28-2.41l-.67-1.07c-.32-.51.42-.83.81-.76.54.09.77.32.86.68.26,1-1.96,2.08-2.96,3.76,3.37.29,3.65-2.83,4.93-1.99.26.17.4.57.16,1.05-.12.25-.42.39-1,.41-1.49.04-2.53,1.17-3.86,1.29Z"/>
  <path class="cls-2" d="M56.46,79.59c.42,1.84-.9,2.71.3,3.05.29,1.17.9,2.27,2.11,2.8.27.34.29.52.16.68-1.34,1.69-1.02-.79-3.16-3.29-.96,3.18,1.62,3.82.39,4.75-1.72,1.3-.71-3.4-1.4-4.53-.17-.1-.41.13-.54.24l-.46-.02-.02-.59c.34-.64-.19-.94-.76-.14-.43-1.28-.64-2.41-.58-4-.37.28-.89.54-1.03.84-1.18-.19-2.48-.58-3.36-1.52.96-1.07,1.83-1.71,2.84-2.43.41.54.25,1.03.71,1.39.04-.79.54-.92.84-1.13,0,.85,0,1.74.88,2.6.38-.84.42-2.09-.88-2.6.23-.16.03-.96.54-.83,1.68.45.24,3.33,3.4,4.74ZM51.61,78.31c-.56-.86-.74-1.35-1.13-1.52s-1.21-.04-1.27.61c-.09.88.77,1.1,1.28,1.25.32.09,1.49.22,1.13-.34Z"/>
  <path class="cls-2" d="M64.08,95.27c.2.34.64.41.96,1.25-.55.41-1-.01-1.69.3.23.32.68.34,1,.56.28.19.59-.58.98-.68.83-.21,1.44.67,1.98.92-1.11.48-2.52.95-2.76,1.96-.83,3.44.88,4.56-.42,4.81-.34.07-.64-.25-.83-.46-.94-1.01,1.75.19.32-4.38-1.57,1.67-1.88,4.57-2.69,4.57-.54,0-.8-.31-.82-.68-.04-1.11,2.52-1.5,1.66-2.6-1.24-1.59-1.96,2.44-2.74.45,1.17-.81,2.15-1.68,2.92-2.76s.13-.54-.35-2.9c2.84-.48-1.39-.44-.13-2.7.13-.24-.4-.27-.53-.39-.2-.17-.94.12-.88.6.08.57.55,1.2.89,1.53.34.37-.28.29-.44.32-.51-.65-1.38-1.53-.94-2.56.24-.56,1.53-.7,1.99-.42,1.01.63.96,1.82,1.74,2.77.87-.57.29-1.47,1.14-1.83-.15.96-.48,1.57-.36,2.3ZM63.76,95.82c0-.1-.08-.18-.18-.18s-.18.08-.18.18.08.18.18.18.18-.08.18-.18ZM62.62,99.63c0-.17-.14-.31-.31-.31s-.31.14-.31.31.14.31.31.31.31-.14.31-.31Z"/>
  <path class="cls-1" d="M88.08,64.9l-.43-.09c-.16-.13-.15-.3.03-.54.08-.11.22-.33.37-.02.08.16-.03.41.03.64Z"/>
  <path class="cls-2" d="M87.65,64.81c.13.24.26.12.43.09.75-.12,1.78-.63,2-1.44.17-.63-.81-.77-1.32-.87.16-.92.98-.68,1.51-.55.45.11,1.52.55,1.18,1.26-.46.9-3.79,1.7-2.63,3.4-1.6.64-.36.55-1.57,2.07h-.31c.44-.33-2.05-.17-2.08-.06-.05.16,0,.32,0,.45l-.54.06-.28.02.02-.45c.1.02.46.01.42-.1-.06-.18-.37-.34-.5-.29-.11.04-.21.33-.36.34-1.15.09-1.38,1.95-3.25,3.15-.52.33-.98-.29-1.11-.58-.2-.43,0-.8.27-1.1.36-.4.88-.06,1.38-.13.22-.03,3.84-2.37,2.12-2.39l-.06-.43-.04-.31c.14.03.4.08.54-.03.21-.16.12-1.3.46-1.53.6-.4,1.31-.61,2.09-.41.24-.86-.1-1.59-.61-2.3-.36-.51-.92-.76-1.5-.55-.36.13-.92.57-.79,1.19.15.73.6,1.27.6,1.91-.21-.03-.43-.17-.65-.16-.97-.88.05-2.27-.17-3.22-.72-3.11-3.12-5.49-4.58-8.35,2.63,1.97,3.32,5.53,5.58,7.74.82.8,3.04,1.02,2.58,2.9-.06.23.26.6.36.7.16.15.55.07.8-.03ZM84.43,67.53c0-.1-.08-.18-.18-.18s-.18.08-.18.18.08.18.18.18.18-.08.18-.18Z"/>
  <path class="cls-1" d="M36.94,55.46c-.1.38.12,1.1-.4,1.32-.03-.43-.31-.28-.36.05-.05.31-.49.42-.73.36-.11-.03,0-.39-.18-.35-.22.04-.24.41-.2.52s.31.06.39.2c.39.8-.02,1.72-.38,2.47-2-1.32-2.52,3.48-5.44,2.24-.66.57-.18.98.63.37.18.93-.99,1.05-1.41,1.75l-1.21,2.03c-.15.26-.6-.36-.8-.54-.35.68.08,1.37-.72,1.88-.72-1.96.83-3.45,1.97-4.91.54-.7.42-1.5,1.73-1.49.28,0,.72-.54.82-.79.11-.28.03-.65-.11-.95,1.45.34,2.67-.55,3.36-1.65-.95-.19-1.32.74-1.83-.07,1.77-.95,3.15-2.09,4.86-2.44Z"/>
  <path class="cls-1" d="M44.92,42.71c.24.33.14.75.22,1.12-.24.19-.5.46-.98.33.02-.7.09-1.06.04-1.46h.72Z"/>
  <path class="cls-1" d="M44.21,42.7c-.73,0-.68.93-1.12,1.44-.17-.67-1.07-.75-1.44-1.55-3.25.39-6.2.95-9.24,2.03-.38.14-.67.85-1.05.87-3.41.19-2.83,3.16-3.95,3.05-.13-.01-.37-.45-.57-.35-1.28.66-1.66,2.05-2.77,3.08.84-3.06,3.86-4.02,3.71-5.35,1.35-.12,2.68-.56,3.61-1.86l-3.46-.59c2.03-1.81,3.75,2.13,6.39-.38-.49-.36-.87-.34-1.05-.57-1.46-1.86,1.2.97,3.88.26,2.14-.57,4.32-.65,6.29-1.39.6.15.81.76.76,1.34ZM42.72,42.5c.78.32,1.02-.1,1.03-.57-.36.35-.74.35-1.03.57Z"/>
  <path class="cls-2" d="M68,85.72c-.09.37.02.8.02,1.17,0,.1.03.21.04.31-.39.07-.7.2-.93.04-.42-.28-.45-.89-.24-1.12.3-.32.86-.18,1.11-.41Z"/>
  <path class="cls-2" d="M73.93,81.62c-.53,1.08-1.45,2.22-2.83,1.72-.21-.08-.39-.53-.57-.4-.26.19-.29.46-.32.68l-2.22,2.1c.27-1.06,1.1-1.9,1.5-2.91l-4.6,2.1c-.66.3-.57-1.08-.3-1.4.47-.56,1-.39,1.75-.16.84.26,1.52-.62,2.16-.81,1.02-.29.71-1.56.71-2.46.2-.02.35-.19.37-.39.5.3,1.1-.16,1.49-.26,2.72,1.08,1.54-.28,2.85,2.18Z"/>
  <path class="cls-1" d="M45.15,43.83l.13.61c-.01.13-.1.25-.1.38-1.56-.24.67,2.93.79,3.3.5,1.53.59,3.12,1.47,4.36-.13.34-.39.6-.73.73-.18-2.32-2.02-5.68-3-8.84-.8,1.1-4.36,7.56-3.46,8.32-.1-.12-.21-.11-.31,0-.43-.57-.89.21-1.06.73-.97,2.86-3.22,4.59-2.24,8.49h-.46c-.07-.35.08-1.03-.38-1.21-.23-.1-.76.11-.79-.07s.1-.53.09-.59c.36-.75.76-1.67.38-2.47l-.02-.37c.24.06.68-.06.73-.36l.36-.05c.52-.22.3-.94.4-1.32,1.27-1.03,2-4.05,3.43-6.24l-2.29.06-.02-.33c5.25-1.86,2.96-2.42,5.02-4.81.43-.5.39-1.44,1.12-1.44.05.4-.02.76-.04,1.46.49.13.75-.14.98-.33Z"/>
  <path class="cls-1" d="M47.09,38.71c-1.09.48-1.5,1.79-1.9,2.85-.26-.13-.23.27-.23.42l-.04.73h-.72c.05-.58-.16-1.2-.76-1.35,1.2-.46,2.15-1.35,2.18-2.74.43-.11.73-.46.77-.9l.39-.47c.51.28.04,1.09.31,1.46Z"/>
  <path class="cls-2" d="M68.73,77.91c-.38-.12-.73-.25-1.17-.77-.51.61-.42,1.52.38,2.03.5.32.94.57,1.27.92,0,.9.31,2.16-.71,2.46.13-.26.03-.33-.2-.36l-.49-.05-.06-.65c.18-.02.28-.27.41-.32.23-.09.49-.5.32-.77-.62-.96-2.34-1.69-1.84-3.15.22-.65,2.11-.21,2.1.66Z"/>
  <path class="cls-2" d="M73.91,71.7h.36c-.31,1.4-1.1,2.73-1.19,4.31l1,1.25c.53.66-.46,1.95-.73,2.91-.59-1.01.24-1.57.24-2.34,0-.64-.52-.99-1-1.08-.38-.07-.78.12-1.11.52-.55.68-.52,1.47-.4,2.17-.39.1-.99.56-1.49.26-.54-.44-.8-1.1-.85-1.79.37.27.73,1.08,1.45.91-.49-1.32-.93-11.78-1.22-10.97.06-.16.2-.22.34-.31.33-.2.62-.46.97-.63-.73,3.32-.12,6.69.26,10.3.87-.54,1.34-1.01,1.94-1.59.34-1.41.71-2.66,1.44-3.93Z"/>
  <path class="cls-1" d="M38.07,48.95l.02.33c-1.02.85-2.57.81-3.75,1.59l-1.95,1.31c-1.02.68-1.72,1.34-1.76,2.6-.68-.18-.61-.66-1.01-.88-1.54,1.36-2.23,3.2-2.63,5.14-.56-.61.13-1.2-.33-1.87-1.03,1.04-1.35,2.45-2.52,3.39.37-1.9,1.67-3.07,2.71-4.53-.81-.53-1.48.14-2.28-.07-.09-.61,5.16-.11,2.77-1.58.38-.65,1.24-.33,1.73-.68,2.83-2.05,5.83-3.61,9-4.73Z"/>
  <path class="cls-2" d="M53.84,82.69c-2.09.42-2.75,5.22-3.95,3.58-.72-.99,1.79-.81,2.27-4.51-2.49.2-2.78,2.34-3.77,1.5-1.4-1.18,1.76-.71,3.42-2.36-2.08-1.14-4.95,1.12-4.96-.65,0-.28.66-.82.99-.63,1.17.7,2.98,1.17,3.64-.24.14-.29.66-.55,1.03-.84-.06,1.59.14,2.72.58,4,.57-.81,1.1-.5.76.14Z"/>
  <path class="cls-1" d="M32.89,69.37l-.35.06c-.22-.34-.58-.36-.77-.17-.27.26-.07.71-.21.98-1.14,2.24-1.82,4.45-1.61,6.79h-.52c.04-.18-.02-.41,0-.59.25-.11.26-.34.2-.5-.1-.26-.51-.23-.65-.32l-.72-.47c1.42-1.1,2.64-3.26,1.88-4.95v-.35c.41-.61,1.06-.94,1.52-1.98-.76-.49-1.27.26-1.93.52.52-1.15,1.82-1.47,2.6-2.42,1.21-1.48,1.38-3.43,2.74-4.82-.41,2.25-3.2,5.95-2.15,8.21Z"/>
  <path class="cls-1" d="M23.93,38.35c-.25-.19-.35-.26-.4.34-.23-.04-.56-.13-.85.15.09-.39.57-.87.41-1.31-.78-2.14.5-2.34,1.77-4.73,1.03-.13,4.33-2.58,5.36-.86-1.31.56-2.42-.23-3.54.81l1.28.42c-.98.74-1.93.69-2.64,1.37.7.51.93-.68,1.6.04l-3.54,2.6c1.05.38,1.31-.64,1.81-1.04,1.75.61-1.09.94-1.25,2.2Z"/>
  <path class="cls-1" d="M23.53,38.69c.33.06.36-.06.4-.34.34.26.56.22.77.34-.37.5-.78.93-1.56,1.1.19-.51.5-.7.39-1.09Z"/>
  <path class="cls-2" d="M83.68,101.87c.12,1.1,3.43-.09,3.69.27.12.17.07.8-.27.88-1,.22-1.89-.31-3.17.25,1.09,1.08,2.29,1.55,3.75,1.07.47.24.55.4.58.63.34,2.79-3.11-1.12-5.66-1.01.76.86,1.27,1.45,1.67,2.49-.76-.66-1.83-.89-2.16-1.81-.19-.54-.1-1.19.05-1.67.26-.83.85-.91,1.52-1.11Z"/>
  <path class="cls-2" d="M87.43,91.66c-2.56,1.03-1.99,3.28-2.6,3.41-.65.14-1-.07-1.1-.46-.28-1.06,1.08-.88,1.1-1.67-.03.72-.04-1.77-.62-1.68-1.57.24-1.19,1.04-2.14.92-.59-.08-.52-1.46-.12-1.41,1.35.19,3.07-.04,3.63-1.28,1.11-.02,2.29,1.03,1.84,2.17Z"/>
  <path class="cls-1" d="M53.49,65.05c.13-.2.74-.17.75-.7.02-1.09.88-1.4,1.81-2.06-.44-.47-1.11-.24-1.39-.1-.02-.18.09-.38.06-.56l.4.03c1.46.1.62-3.07,1.22-3.44.56,1.61-.31,2.8-.22,4.46,1.23-.36,1.92-1.35,2.46-2.37.27-.51-.47-.87-.66-1.22.62-.36.86.35,1.22.24.42-.13.56-.7.73-1.05.04-.08.02-.24,0-.33.49-.19.44-.92.38-1.37.18-.05.4-.02.57-.11,1.14-.57.86-2.11,1.15-3.23.02-.09.02-.24,0-.33.45.21.47-.35.51-.6.05-.33,0-.63-.07-.97,1.11-.74.21-3.22.33-4.34,1.75-.07.2,5.6.18,5.8-.43,3.85-3.17,6.29-4.7,8.95-.63,1.09-1.38,1.11-2.29,1.71-1.43.96-2.02,3.2-4.12,3.21.27-.92,1.27-.98,1.67-1.62Z"/>
  <path class="cls-2" d="M60.52,95.01c.16-.03.78.05.44-.32.32.31.55.48.65.96.48,2.35,1.14,1.79.35,2.9-1.2-.18-2.37.61-3.54.65v-.28s2.95-1.31,2.95-1.31c-1.47-.57-2.86-.34-4.25-.07-.33.06-.56-.71-.4-.88,1.67-1.77-.03,1.19,4.55-.08-1.27-.97-2.71-.96-4.51-1.93.1-1.45,2.99,1.42,3.77.37Z"/>
  <path class="cls-2" d="M56.91,79.64c.46-.78,1.4-1.52,1.32-2.52-.05-.66-1.04-.8-1.46-.73-.47.08-.81.64-1.4.7.06-1.44,2.01-.69,2.69-1.3,2.09-1.9,7.91-8.06,10.29-7.84-3.53,2.37-7.24,4.67-9.51,8.3-.6.95-.04,3.31-1.94,3.39Z"/>
  <path class="cls-1" d="M48.83,22.3c-.54-.15-1.64.33-1.4,1.09s1.32.67,1.68,1.06c.85.94,1.89,1.68,3.02,2.24,1.39.68,1,1.98,1.15,3.18.2,1.59-1.7,1.72-2.21,2.69-.24-.07-.48-.14-.65-.32.67-.58.94-1.87,1.82-2.55.76-.59.43-1.63-.19-2.15-3.11-2.58-6.8-3.51-4.69-5.33.36-.31,1.2-.68,1.48.09Z"/>
  <path class="cls-1" d="M49.58,22.8c-.39.13-.53-.43-.75-.51.29,0,.54.41.75.51Z"/>
  <path class="cls-1" d="M50.75,23.76l-.82-.08c-.15-.28-.27-.57-.35-.88.57.09.85.54,1.17.96Z"/>
  <path class="cls-1" d="M21.72,52.5c0,.24.03.48.04.71-.4.44-.92.79-1.53.71.01-.26.05-.52.07-.77l1.41-.65Z"/>
  <path class="cls-1" d="M21.58,60.88c-.17.09-.14.09-.3,0,0-.49.1-.91.39-1.48l-.82.42c-1-.23-.71-1.52-.31-2.25.1-.18.43-.24.42-.54-.01-.23-.27-.4-.37-.56.04-.69-.11-1.52-.39-2.17.36.02.74.03,1.11-.17.28-.16.46-.52.44-.9.31.02.62-.45.96-.08-.36.8-1.24,1.34-.94,2.08.08.2.68-.25.82-.18.62.29-.68,1-.55,1.52.09.4.45-.17.99.01-.56.87-.36,1.4-.16,2.17.19.71-.72,1.86-1.3,2.15Z"/>
  <path class="cls-1" d="M21.72,52.5v-1.14c0-.32.14-.55.17-.82.23.05.46.04.94.25-.13.71-.5,1.44-1.11,1.72Z"/>
  <path class="cls-2" d="M97.85,59.36v-.73c.09.13.57.36.64-.04s-.23-.77-.23-1.1c.78.33,1.2,1.14,1.08,2.31l-1.49-.45Z"/>
  <path class="cls-2" d="M98.26,57.5c-.76-.32-.71-1.59-1.65-1.67-.08-.28-.44-.59-.23-.9.29-.45.8-.57,1.31-.83.67-.35-.02-1.22.48-1.62l5.81-.08c-.07.74-.44.96-.85.8-2.23-.91-1.56-.47-5.04.2.92.55,1.71.33,2.42.85,1.34.98,4.18.05,3.36,1.68-.14.28-.42.35-.76.4-1.05.14-.6-1.71-4.56-1.77.63,1.49,1.87,2,2.99,2.8.21.15-.17.67-.38.7-.88.15-.25-1.95-2.67-2.25-.53-.07-.6-.91-1.13-.58.32,1.01.9,1.54.9,2.27Z"/>
  <path class="cls-1" d="M53.81,51.23c.16.42,1.12,7.29.03,7.35-.63-8.81-.21-7.11-4.18-15.07,1.24-.44,3.63,6.31,4.15,7.72Z"/>
  <path class="cls-1" d="M51.07,32.56c-2.41,4.51-4.21,3.36-2.38,8.31-.97-.55-1.13-1.52-1.6-2.16-.27-.37.2-1.18-.31-1.46,1.33-1.6,2.07-3.66,3.63-5.01.17.18.42.26.65.32Z"/>
  <path class="cls-1" d="M41.97,72.67c-1.03.2-1.56,1.81-2.55,2.18-4.08,1.49-1.86,1.47-6.16,3.74-.43.23-1.32-.08-1.49.69-.27,1.22-1.33,1.46-2.12,2.18-2.58,2.34-4.61,7.92-5.92,6.65,1.1-2.58.91-4.96,1.58-7.76.6,1.2.06,2.29.35,3.35-.25.61-.5,1.34.23,1.76.42-.36.55-.72.74-1.01,2.76-4.35,3.6-2.95,4.65-6.56.17.4.47.77.91.58.49-.21.58-.56.73-.97.23.19.51.49.85.33.22-.1.25-.43.33-.59.72-.28,1.49-.76,1.84-1.49.25,0,.5,0,.75-.11.23-.1.23-.36.3-.59.14-.42.62-.64.96-.81l.42.05c.89.11,1.36-.58,1.88-1.16.34-.19.92-.25,1.12-.69.05-.11.16-.27.26-.32.14.16.25.34.34.53Z"/>
  <path class="cls-2" d="M56.76,82.64c-1.2-.34.12-1.2-.3-3.05.13.06.32,0,.46.05-.05.51.46,1.05.92.95l.91-.21c.58-.14,1.1.37,1.31.69.24.35.42,1.28.07,1.48-1.08.62-2.36.54-3.37.1Z"/>
  <path class="cls-1" d="M23.17,68.44c-.46-.44-.71-1.12-.77-1.82.39.05.36-.28.38-.55.04-.43-.11-.45-.47-.47-.22-.01-.47-.26-.6-.42.52-.23.28-.99.33-1.46-.16-.31.28-.56.3-.78.34-.06.6-.34,1.17-.28,0,.72-.59,1.06-.33,1.85.63-.25.18-1.17,1.1-.89-1.16,2.23,1.76,2.34-1.11,4.83Z"/>
  <path class="cls-2" d="M75.78,71.36h.39c.98,2.66.63,5.52,1.27,8.45-.95-.08-1.42.1-1.9.6-.33-.66-.69-.99-.54-1.27.88-1.64,2.2,2.45.79-7.79Z"/>
  <path class="cls-1" d="M41.37,72.45c-.2.44-.78.5-1.12.69,1.19-4.03,1.71-8.07,1.66-12.45.61,1.06,1.05,2,2.02,2.58-.08.39-.55.65-.67.45-.23-.39-.15-.88-.63-1.08-.72,1.26-.2,2.4-.3,3.62-.17,2.15-.91,4.08-1.49,6.04.24.16.44.18.53.15Z"/>
  <path class="cls-2" d="M86.95,68.76c-.39.02-.47.22-.37.49l.27.7c.38,1,.3,2.15,1.24,2.77.57.37.82.92.45,1.44-.23.32-1.21.69-1.26-.03-.13-1.73-.2-3.48-1.52-4.72-.41.84-.62,1.64-.38,2.21-.11-.28-.27-.2-.37.02.16-.83.14-1.68-.14-2.48,0-.12-.05-.29,0-.45.04-.11,2.53-.27,2.08.05Z"/>
  <path class="cls-1" d="M78.64,34.67c1.68.18,3.4,1.36,4.4,2.61-.11.22-.24.43-.39.62-1.8-1-3.72-1.92-5.82-2.55-.74-.22-1.6-.09-1.85-1.08l4.37,1.16c-.17-.43-.52-.51-.72-.76Z"/>
  <path class="cls-2" d="M97.84,80.48c-1.05.35-1.7,1.5-1.61,2.77-.69.08-1.85.23-2.26-.46-.38-.64.37-1.42.31-1.99.13.04.28-.05.41-.03.27.16.51.48.99.47.11-1.05.41-1.68,1.1-1.92.53.21.94.59,1.06,1.16Z"/>
  <path class="cls-1" d="M22.43,41.64c-.48.03-.86.72-1.4.62-.14-.73.22-.97.62-1.38.34-.06.53-.41,1.13-.37-.23.5-.38.77-.36,1.14Z"/>
  <path class="cls-1" d="M22.48,42.38l-.05-.74c.77-.05,1.03-.65,1.76-1.13-.32.84-.96,1.61-1.71,1.87Z"/>
  <path class="cls-1" d="M20.7,48.01l.56-4.17c.11-.8.47-1.21,1.22-1.47.05.79-.82,1.09-.96,2.1l2.32-1.51-1.37,1.86c.02.29.62.55.48.8-.88,1.67.11,1.84-.6,2.28-.56.34-1.15.2-1.65.11Z"/>
  <path class="cls-1" d="M73.18,33.18v.5c-.47.02-.9.51-1.48.57-1.46.17-2.75-.38-4.01-.44l-1.13-1.09c2.24.08,4.43-.1,6.62.46Z"/>
  <path class="cls-1" d="M61.98,52.91c.03.09.03.24,0,.33-.59.58-1.46-2.97-1.23-3.33.83.96.9,2.02,1.22,3Z"/>
  <path class="cls-1" d="M61.29,46.64c.37.37.91.4,1.33.1l.12.27c-.12,1.12.78,3.59-.33,4.34-1.15-.46-1.64-4.62-1.8-4.43.17-.2.45-.24.67-.27Z"/>
  <path class="cls-1" d="M36.18,61.91h.46c.76,3.01,1.32,6.52-.2,9.7-.17-3.22,1.25-5.84-.14-8.65-.43.99.47,1.93-.57,2.84-.51-1.46-.22-2.64-.16-3.87.51.66.69.66.62-.02Z"/>
  <path class="cls-1" d="M29.41,76.44c-.42.04-.47.45-.62.9l-2.27,6.52c-.09.27-.28.67.12.59-.19.3-.32.65-.74,1.01-.73-.42-.48-1.16-.23-1.76l3.29-8.07c.14.09.55.06.65.32.06.16.05.38-.2.5Z"/>
  <path class="cls-1" d="M58.41,39.8l-.12,1.08c-.8-.29-1.65-.55-2.21-1.37.69-.19,1.23.05,1.52-.38.28.21.69.28.81.67Z"/>
  <path class="cls-1" d="M59,41.25c-.15.2-.35.13-.49,0-.09-.08-.1-.28-.22-.38.15,0,.34-.03.56,0,.25.02.34.13.15.39Z"/>
  <path class="cls-1" d="M61.33,43.37c-.05.15-.11.35-.08.55.03.23.25.29.46.18.18.36.25.68.28.95.09.69-.19,1.15-.87.94-.71-.39-1.27-.96-.96-1.81.07-.3-.62-.77-.4-1.13.16-.02.34-.01.72-.16-.23-.39-.64-.55-1.08-.56,0-.25-.09-.59-.37-.33l-.03-.73c.33-.16.61-.41.76-.75.94.64,1.19,1.84,1.57,2.87Z"/>
  <path class="cls-1" d="M59.03,41.99c-.22.37.13.32.37.33,0,.29.4.42.36.73-.36.1-.75-.08-1.12-.54-.16-.2-.18-.39.38-.51Z"/>
  <path class="cls-1" d="M48.54,58.07c-1.52,1.49.85,4.29-1.49,6.1.44-3.08.88-5.82.4-8.99-.19-.76.9-.73.73,0-.59,1.24.19,2.15.37,2.88Z"/>
  <path class="cls-2" d="M94.26,76.77c.27.1.61.25.77.73-.54.04-.83-.5-.77-.73Z"/>
  <path class="cls-2" d="M97.44,75.17c-.06.09-.24.27-.34.2-.61-.4-1.44-.7-2.26-.33-.5.22-.42,1.14-.58,1.73-.48-.18-.45-.97-.94-1.25l-3.56-2.05c1.37-.27,2.54,1.3,3.84,1.23s2.79-.72,3.84.47Z"/>
  <path class="cls-2" d="M101.07,80.77c-.42.02-.74-.27-1.27-.72,0,3,2.78,3.43,1.62,4.42-.26.22-.7.23-.92.02-.28-.25-.07-.69-.2-1.05l-1.08-3.03c.19-.5-.2-1.02.43-1.67l1.42,2.03Z"/>
  <path class="cls-1" d="M49.93,23.68l.82.08c.61.79,1.83.82,2.17,1.84-.04.12-.07.24-.09.37-.38.06-.64.36-.71.73-1.13-.55-2.18-1.3-3.02-2.24-.32-.29.07-.51.31-.61.15-.06.33-.18.51-.17Z"/>
  <path class="cls-1" d="M62.63,46.73c-.42.3-.96.27-1.33-.1.06-.25-.17-.42-.17-.66.67.22.95-.25.87-.94-.03-.27-.1-.58-.28-.95-.11-.22-.3-.5-.38-.73-.38-1.03-.63-2.22-1.57-2.87-.29-.2-.5-.49-.72-.76,1.72-.14,4.5,5.4,3.59,6.99Z"/>
  <path class="cls-1" d="M59.04,39.75l-.63.05c-.12-.39-.53-.47-.81-.67-2-1.45-4.42-.94-7.23-1.23,2.89-.97,6.65-.5,8.67,1.85Z"/>
  <path class="cls-2" d="M101.37,78.93c-.28-.28-.76-.22-1.01-.57.45-.22.63-.25.93-.29.37-.06.42-.18.12-.55,1.43-.05,2.82.13,4.3-.07.63-.08.09,1.9-.5,1.59-1.09-.57-2.23-1.44-3.58-.82-.21.1-.16.61-.26.72Z"/>
  <path class="cls-2" d="M91.67,67.88l.03.46-2.52-.38c-.01.57.52.9.13,1.31-.53-.24-.86-.67-1.29-.74-.22-.03-.46.94-.77.24,1.2-1.51-.03-1.43,1.57-2.07.86.49,1.82,1.08,2.84,1.18Z"/>
  <path class="cls-1" d="M45.23,70.21c-.33.7-1.28.77-1.67,1.39-.47.75-.81.91-1.59,1.07-.09-.19-.2-.37-.34-.53l1.69-.77c-.53-.65-.28-1.02.04-1.5.67-1.03.45-2.26,1.02-3.24,0,.84-.28,1.67.39,2.21.61-1.32-.12-2.61.99-3.7l-.72,4.82c.08.11.16.19.18.25Z"/>
  <path class="cls-1" d="M39.93,52.68c.11-.1.21-.12.31,0,1.57,3.83.77,3.55,1.78,7.42-.99-.73-.93-1.77-.81-2.97-.29-.75-.76-.85-.67.03.12.83-.32.91-.5.12,1.31-2.63-.49-2.41-.11-4.6Z"/>
  <path class="cls-2" d="M68.47,80.4c.17.26-.09.68-.32.77l-2.56-.45c-.15.61-.01.93-.09,1.5-.59.07-1.06-.49-1.27-.96-.16-.36.59-.76.59-1.33-.1-.84.8-.9.8.01.73.83,1.92.49,2.83.46Z"/>
  <path class="cls-1" d="M82.65,37.9c.15-.2.28-.4.39-.62.26.33,4.77,3.48,4.48,5.08-1.85-1.57-3.02-3.43-4.87-4.46Z"/>
  <path class="cls-2" d="M79.56,105.74c-.48,1.16-.66,2.32-.86,3.55-.04.26-1.07.39-1.17.18s-.29-.52-.17-.82c.08-.21.54-.24.67-.49l1.24-2.4h.29Z"/>
  <path class="cls-1" d="M53.49,65.05c-.4-.68-.39-1.88-.13-2.78.47.13.9.12,1.3-.08.28-.14.95-.37,1.39.1-.93.65-1.79.97-1.81,2.06-.01.54-.63.5-.75.7Z"/>
  <path class="cls-2" d="M87.32,93.1h.45c-.28,1.92.23,3.45-.95,3.43-.28,0-.67-.61-.64-.99.7-.59,1.33-1.43,1.14-2.45Z"/>
  <path class="cls-2" d="M91.71,68.34l-.03-.46c.56.05,1.38-.84,1.94.1.32.55-.09,1.18-.68,1.29s-.91-.56-1.22-.93Z"/>
  <path class="cls-2" d="M54.32,83.29c-.84,1.6-.59,3.5-.62,3.54-.35.35-.78.22-.98,0-.67-.75.64-.34,1.14-3.54l.46.02Z"/>
  <path class="cls-2" d="M84.77,107.7l.02-.48c.13-.37.61-.35.92-.5s.69.66.4.87c-.76.54-1.65,1.3-2.58,1.26.02-1.01,1-.61,1.25-1.16Z"/>
  <path class="cls-2" d="M85.38,71.62c-.04-.1,1.24,1.87.21,2.48-.52.3-1.15.01-1.06-.53.11-.76.48-1.32.49-1.93.1-.22.26-.3.37-.02Z"/>
  <path class="cls-2" d="M84.05,69.24l.28-.02c-.29,1.12-.91,2.13-1.38,3.13h-.27c-.35-.8-.07-1.22.56-1.93.34-.39.09-1.37.81-1.18Z"/>
  <path class="cls-2" d="M91.82,71.34c-.18.76-1.08,1.44-1.86,1.26-.39-.09-.3-.68-.23-.91.05-.17,1.53-1.14,1.69-1.1.18.05.5.34.4.75Z"/>
  <path class="cls-1" d="M48.47,67.34c-.02.21-.06.48-.25.61-.2.14-.46.11-.67.09.64-1.52,1.13-3,1.05-4.86,1.74-.03-.51,3.19-.13,4.16Z"/>
  <path class="cls-1" d="M48.93,67.35c.27-1.38.77-2.68,1.34-4.28,1.02.98-.38,1.5.17,2.51l.88-1.56c.29,1.22-.87,1.32-1.31,1.9l-1.09,1.43Z"/>
  <path class="cls-1" d="M55.66,44.66c-.61.54.09,1.43.48,1.83.57.59,1.36.22,2.18.54-.28.57-1,.25-1.09.61-.39,1.65,1.96,2.05.78,3.51-1.13-3.2-2.75-5.76-5.28-8.02,1.29.46,1.98,1.42,3.55.95.99.15.76,1.08-.63.58Z"/>
  <path class="cls-2" d="M91.6,89.41l.62,1.09c.37.64.33,1.17,1,2.1-1.17-.03-1.69-1.02-2.34-1.74.2-.64-.1-1.29.72-1.44Z"/>
  <path class="cls-1" d="M60.83,56.47c-.17.08-.39.06-.57.11-.18-1.53-.23-3.1-.02-4.88,1.06,1.46.5,3.15.6,4.78Z"/>
  <path class="cls-1" d="M50.42,42.13c-.66.07-.75.58-1.05.93-.09-.76-.47-1.1-.45-2.09l3.65,1.93c-.86.38-1.35-.22-2.15-.77Z"/>
  <path class="cls-1" d="M59.88,57.95c.01.09.04.25,0,.33-2.15.26.4-2.6-.88-5.19,1.2-1.06.59,3.04.88,4.85Z"/>
  <path class="cls-2" d="M83.09,65.08c.22,0,.43.14.65.16.08.01.16.09.2.17-.34.23-.24,1.37-.46,1.53-.14.11-.39.05-.54.03,0-.09-.03-.18-.02-.27l.06-.44c.12-.92-1.5-.77-2.18-1.09l-.05-.72c.82.06,1.49.65,2.33.64Z"/>
  <path class="cls-2" d="M58.4,98.91v.28c-.2.39-.34,1.07-.98,1.07-.39,0-.78-.12-.96-.74-.1-.35.32-.9.81-1.04.29-.09.65.41,1.13.44Z"/>
  <path class="cls-1" d="M43.56,71.6c.39-.62,1.34-.69,1.67-1.39.52-1.09,2.08-.05,2.32-2.17.22.02.48.04.67-.09.18-.13.22-.39.25-.61h.45c-.04.22.12.48.02.69-.1.52.34.42.34-.05,1.06-.16.74-2.08,2.37-1.52-1,.63-1.79,1.92-2.64,2.27-1.23.5-2.43.68-3.27,2.06-.46.74-1.45,1.24-2.19.81Z"/>
  <path class="cls-2" d="M91.49,66.18c.08-.49.29-.9.61-1.33.23-.31.71-.28.89-.12.34.29.34.72.2,1.03-.24.51-.51.2-1.7.42Z"/>
  <path class="cls-2" d="M98.98,49.56c-.49.31-.57.28-.46-.25,2.24-1.21,1.95-4.79,2.96-2.79s-1.07.35-2.5,3.04Z"/>
  <path class="cls-1" d="M32.53,69.43l.35-.06c.61,1.32.71,2.84-.23,4.2l-.13-4.15Z"/>
  <path class="cls-2" d="M88.83,77.15c1.01,1.47,2.64,2.61,1.94,2.89-.4.16-.48-.39-.79-.6l-1.11-.74c-.41-.27-.54-1.03-.03-1.56Z"/>
  <path class="cls-1" d="M45.17,44.81c0-.13.09-.25.1-.38.82.49.5,1.62.88,2.48.57,1.33,2.25,2.25,1.79,3.99-1.21-1.75-2.77-4.69-2.77-6.09Z"/>
  <path class="cls-1" d="M30.11,70.21c-.8.65-1.18,1.71-2.23,2.26-.42-1.74,1.26-2.02,2.23-2.62v.35Z"/>
  <path class="cls-1" d="M36.99,75.05c-.07.22-.07.49-.3.59-.25.11-.5.12-.75.11.16-.82.5-1.58,1.16-2.21l-.11,1.51Z"/>
  <path class="cls-2" d="M94.61,93.28c.09.27.19.66-.17,1.11-.55-.34-.78-1-1.07-1.61.57-.13.49.36.67.45.13.06.52-.08.57.06Z"/>
  <path class="cls-2" d="M82.98,66.26l-.06.44c-.88-.21-3.04.37-2.92-.76,1.01-.23,1.97.25,2.98.32Z"/>
  <path class="cls-2" d="M80.76,64.44l.05.72c-.24-.11-.63-.02-.73.19s-.09.4-.08.58c-.59-.08-.89-.69-.46-1.22.25-.31.83-.3,1.22-.27Z"/>
  <path class="cls-1" d="M52.86,60.7c-.56,1-.47,1.74-.94,2.33-.39-.87.19-1.46.21-2.41-.05-.84.94-.72.73.07Z"/>
  <path class="cls-1" d="M33.77,75.84c-.15-.92.17-1.49.61-2.17.71.72.37,1.61-.61,2.17Z"/>
  <path class="cls-1" d="M34.1,77.24c-.08.17-.11.49-.33.59-.34.15-.62-.15-.85-.33.16-.44.52-.88.96-1.12.23.42.15.66.22.86Z"/>
  <path class="cls-2" d="M79.24,105.11l-1-.13c.05-.24-.07-.62.03-.82.15-.31.64-.2.87-.09.34.17.15.72.1,1.04Z"/>
  <path class="cls-1" d="M55.12,61.66l-.4-.03c-.14-.8.06-1.58.56-2.31.3.96.09,1.66-.16,2.34Z"/>
  <path class="cls-2" d="M67.75,81.49l.06.65c-.39-.04-1.47.4-1.5-.28-.02-.63,1.07-.31,1.43-.36Z"/>
  <path class="cls-1" d="M24.47,73.52c-.04-.09-.04-.24-.04-.34.01-.41.51-1.25.82-.96.13.62.16,1.16-.12,1.29-.2.09-.49-.02-.66.02Z"/>
  <path class="cls-2" d="M90.69,70.07c-.43-.22-.79-.16-.87-.88.51-.05.8.46.87.88Z"/>
  <path class="cls-2" d="M82.98,67.28l.06.43c-.58.07-1.07.48-1.9.32.36-.86,1.15-.74,1.84-.75Z"/>
  <path class="cls-1" d="M38.37,74.3l-.42-.05c.51-1.1.89-2.38.9-3.65.83,1.42-.32,2.48-.49,3.71Z"/>
  <path class="cls-1" d="M46.71,53.2c.34-.13.6-.39.73-.73.37.53-.06,1.03-.05,1.83-.67-.25-.64-.64-.67-1.1Z"/>
  <path class="cls-1" d="M27.21,72.87c.24-.24.54-.08.64.1.24.42-.6.85-.55.87-.29-.11-.29-.78-.1-.97Z"/>
  <path class="cls-1" d="M52.83,25.96c.02-.12.05-.25.09-.37.28.62,1.56.41,1.43,1.49-1.01.19-.79-1.01-1.52-1.13Z"/>
  <path class="cls-2" d="M87.99,92.25c.11.31-.18.58-.22.84h-.45c-.05-.26.14-.57.15-.84.17-.02.34-.02.52,0Z"/>
  <path class="cls-1" d="M29.94,77.03c.03.31.04.4-.27.67-.23.2-.35.12-.37-.04-.05-.37.09-.5.12-.62h.52Z"/>
  <path class="cls-1" d="M48.95,56.29c.14-.35.41.12.51.19.2.14.06.33-.05.35-.28.07-.68,0-.46-.54Z"/>
  <path class="cls-1" d="M46.39,37.72c-.04.44-.34.79-.77.9-.8-.3-1.83-.13-2.72-.56-1.87-.89-3.8-1.1-5.74-1.51-1.63-.34-2.63.34-3.92.62-.6.13-1.24-.55-1.84.23-.47.6-.57,1.13-.77,1.96-.07.31-.99-.14-.45-.46.15-.09.19-.36.42-.82-1.06.03-2.14.42-3.22,1.08.61-1,1.58-1.4,2.68-1.82.12-.33.03-.72.2-.73s.68.28.82.23c2.25-.83,4.42-.8,6.84-1.13l-2.07-2.44c1.59.72,2.63,1.91,3.91,3.01.58.5,5.49,2.24,6.65,1.44Z"/>
  <circle class="cls-2" cx="76.45" cy="105.97" r=".23"/>
  <circle class="cls-1" cx="88.42" cy="63.17" r=".23"/>
  <circle class="cls-1" cx="25.49" cy="71.33" r=".23"/>
  <circle class="cls-1" cx="37.46" cy="72.78" r=".23"/>
  <path class="cls-2" d="M100.82,77.44c-.66.13-.61-.71.02-.64l-.02.64Z"/>
  <circle class="cls-1" cx="51.61" cy="63.54" r=".18"/>
  <path class="cls-1" d="M48.95,68.03l.34-.05c0,.47-.44.57-.34.05Z"/>
  <path class="cls-1" d="M77.87,83.58c.11-.12.25-.24.42-.26.13.26-.27.23-.42.26Z"/>
  <path class="cls-1" d="M44.96,41.98c0-.15-.03-.55.23-.42-.05.14.04.54-.23.42Z"/>
  <path class="cls-1" d="M39.86,45.44c.52-.6.94-1.21,1.75-1.65-.42.68-.84,1.26-1.75,1.65Z"/>
  <path class="cls-2" d="M84.77,107.7c-.48.1-.43-.53.02-.48l-.02.48Z"/>
  <circle class="cls-1" cx="54.87" cy="53.02" r=".18"/>
  <path class="cls-2" d="M73.91,71.7c-.73,1.27-1.1,2.52-1.44,3.93-.6.58-1.06,1.04-1.94,1.59-.38-3.61-.99-6.98-.26-10.3l3.07-5.37c2.52,3.48.6,6.61.57,10.15Z"/>
  <path class="cls-1" d="M74.16,60.66c-.08.39-.99-.04-.92-.29l.44-1.65c.27.44.67,1.03.48,1.94Z"/>
  <path class="cls-1" d="M73.38,58.24c-.34-1.13-.93-2.18-.82-3.62.39,1.07.96,1.99.82,3.62Z"/>
  <path class="cls-1" d="M72.28,54.28c-.16-.54-.56-1.03-.47-1.86.31.43.85.85.47,1.86Z"/>
  <circle class="cls-1" cx="70.83" cy="49.57" r=".23"/>
  <circle class="cls-1" cx="71.56" cy="51.75" r=".23"/>
  <path class="cls-1" d="M22.04,63.72c-.04.47.19,1.23-.33,1.46-.2-.25-.41-.57-.41-.93,0-.38.38-.54.74-.53Z"/>
  <path class="cls-1" d="M33.98,28.37c-.62.16-1.12.48-1.86.11.49-.52,1.19-.43,1.86-.11Z"/>
  <path class="cls-1" d="M22.41,66.62l-.09-1.02c.36.02.52.04.47.47-.03.27,0,.6-.38.55Z"/>
  <path class="cls-1" d="M21.29,60.87c-.36-.23-.4-.66-.42-1.07l.82-.42c-.3.57-.39.99-.39,1.48Z"/>
  <path class="cls-1" d="M20.55,57.56l.04-1.1c.11.15.36.32.37.56.01.3-.32.36-.42.54Z"/>
  <circle class="cls-1" cx="21.5" cy="62.45" r=".18"/>
  <path class="cls-2" d="M81.4,101.07c-.75-.22-1.31-.35-2.13.07-.49-.86-1.01-3.34.28-3.77,1.43-.47,1.77,1.77,1.84,3.7Z"/>
  <circle class="cls-2" cx="77.36" cy="104.16" r=".18"/>
  <path class="cls-2" d="M96.77,79.32c-.7.24-.99.87-1.1,1.92-.48,0-.72-.31-.99-.47-.03-.35-.52-.83-.35-1.23.07-.16,1.55-.99,2.12-.81.2.06.22.43.32.59Z"/>
  <path class="cls-2" d="M51.61,78.31c.36.56-.8.43-1.13.34-.5-.15-1.37-.36-1.28-1.25.07-.65.88-.78,1.27-.61s.57.66,1.13,1.52Z"/>
  <path class="cls-2" d="M52.51,75.69c1.3.52,1.26,1.76.88,2.6-.89-.86-.87-1.75-.88-2.6Z"/>
  <path class="cls-2" d="M61.6,95.65c-.1-.48-.33-.65-.65-.96-.34-.33-.81-.96-.89-1.53-.06-.48.68-.76.88-.6.14.11.67.15.53.39-1.26,2.26,2.97,2.22.13,2.7Z"/>
  <circle class="cls-2" cx="63.58" cy="95.82" r=".18"/>
  <circle class="cls-2" cx="62.31" cy="99.63" r=".31"/>
  <path class="cls-2" d="M83.94,65.41c-.04-.07-.12-.16-.2-.17,0-.64-.45-1.18-.6-1.91-.13-.63.43-1.06.79-1.19.57-.2,1.13.05,1.5.55.51.71.85,1.44.61,2.3-.78-.2-1.49.01-2.09.41Z"/>
  <path class="cls-2" d="M84.07,68.79l-.44-.05c.15-.01.26-.3.36-.34.12-.05.43.11.5.29.04.11-.32.12-.42.1Z"/>
  <circle class="cls-2" cx="84.25" cy="67.53" r=".18"/>
  <path class="cls-1" d="M35.46,57.19l.02.37c-.08-.15-.35-.1-.39-.2s-.02-.48.2-.52c.17-.03.07.32.18.35Z"/>
  <path class="cls-1" d="M36.55,56.78l-.36.05c.05-.32.33-.47.36-.05Z"/>
  <path class="cls-1" d="M42.72,42.5c.29-.22.66-.22,1.03-.57,0,.47-.25.89-1.03.57Z"/>
  <rect class="cls-1" x="58.31" y="29.29" width=".66" height="5.09" transform="translate(-5.56 50.03) rotate(-44.33)"/>
  <path class="cls-1" d="M61.71,44.1c-.21.11-.43.05-.46-.18-.03-.2.03-.4.08-.55.08.23.27.5.38.73Z"/>
</svg>