<?xml version="1.0" encoding="UTF-8"?>
<svg id="katman_1" data-name="katman 1" xmlns="http://www.w3.org/2000/svg" viewBox="0 0 128 128">
  <defs>
    <style>
      .cls-1 {
        fill: #e56161;
      }
    </style>
  </defs>
  <path class="cls-1" d="M89.2,45.01c-.38-1.41-1.27-2.25-1.44-3.23-.14-.79-.16-1.53-.89-2.72,1.69.26,3.56,7.89,3.63,8.75.22,3.01,1.26,5.45,1.82,8.65-6.31-5.02-6.43-2.72-13.89-5.82-1.69-.7-3.04-1.2-4.48-2.56-.92-.86-2.63-1.37-2.78-2.88.79-.93.06-1.49-.61-.21l-1.88-2.4c-3.02-3.85-1.7-10.65-3.52-12.76-.95-1.1-2.37-1.84-3.69-2.6,2.55,10.11,5.54,19.44,9.12,28.91,1.75,4.63,3.17,9.07,4.28,13.86.18.79.51,1.57,1.54,1.33,7.07-1.62,13.77,2.14,16.05,9.1,2.08,6.35.72,13.51-3.73,18.62-7.44,8.53-22.74,8.43-29.77-1.56-5.17,6.6-13.02,9.21-20.92,7.11-9.68-2.58-15.3-12.77-12.46-22.38,1.47-4.96,5.3-8.62,10.35-9.36l4.38-.64c.39-8.9,2.46-17.43,6.62-25.22l5.7-10.65c7.3-13.64,1.1-16.79,2.23-19.28.71-1.57,4.9-2.09,5.2-.5.44,2.29.14,4.58,1.18,6.82.27.59-.2,1.61.45,2.19,1.48,1.33,3.07,3.15,5.02,3.67s3.75-.41,5.58-.07c9.91,1.85,9.42,4.5,12.55,6.68,1.07.75,1.51,2.19,2.34,3.35-3.65-1.89-1.21-2.13-3.12-3.4-1.44-.96-2.68-2.09-4.42-2.16.55-.65,1.1-.12,1.37-.54-4.1-2.97-8.97-4.03-13.61-2.96.39,1.07.39,1.12-.79.74.45,4.37.22,9.04,4.08,13.09.24-.14.3-.98.94-.79.34,3.93,1.29,2.78,4.11,5.66.61-.64-.45-1.05.3-1.49.63.46.19,1,.42,1.39-.63-1.05,4.49,3.52,4.18,1.14,1.75,2,2.09,1.54,3.2,1.12-.44.16,6.49,2.75,7.39,3.75l-.79-4.37c-.14-.79-.17-1.47-.37-2.19l-.88-3.21ZM58.19,23.08l-.49.77c-.15.24.57.37.58.86-.2.06-.34.13-.46.14-.28.04-.2.18-.09.32.13.17.31.12.59.16l.83.14c.42.07.12.74.31.96,1.74,2.01,3.23,12,4.95,14.67-.85-5.14-2.73-9.68-3.91-14.61-.15-.61-1.11-.96-1.12-1.37.17-.58,1.04-.78,1.09-1.52.04-.5-.26-.98-.74-1.13.18-.16.51-.92.12-.96-.28-.03-.42.39-.89.14,1.09-.52-.03-1.73.27-2.47l.38-.9c.12-.3-.56-.14-1.09-.59.18-.28,1.02-.49.96-.87-1.07-1.34-3.01-.71-4.08.63,1.02.89,1.99.36,3.44.35-.5.97-1.42.51-2.06,1.05.13.42.59.49.62.71.04.3-.58.34-.97.59.23.87,1.03,1.31,1.6,2.04.69-.08.69.33.07.48-.27.1-.47.19.08.42ZM59.07,75.77c3.63-4.03,8.38-5.22,13.48-4.55-.64-4.93-2.17-9.31-3.61-13.94-2.68-7.12-5.1-14.08-7.2-21.39-.97-2.92-1.58-5.69-3.02-8.43-1.01,3.14-2.06,5.71-3.52,8.35l-5.46,9.81c-4.43,7.97-7.04,16.82-7.01,26.22,6.23-2.47,12.26-1.17,16.36,3.93ZM54.81,33.03s-.86,1.94-.35,1.85c0-.01,1.68-2.6.35-1.85ZM54.27,35.4c0-.1-.08-.18-.18-.18s-.18.08-.18.18.08.18.18.18.18-.08.18-.18ZM53.3,36.81c.36.12.54-.23.61-.33s.09-.42-.18-.52c-.18-.06-.27.9-.43.85ZM53.18,37.58c0-.1-.08-.18-.18-.18s-.18.08-.18.18.08.18.18.18.18-.08.18-.18ZM52.82,38.3c0-.1-.08-.18-.18-.18s-.18.08-.18.18.08.18.18.18.18-.08.18-.18ZM50.71,41.66c1.21-.53,1.05-1.66,1.64-2.73-.93.59-1.2,1.67-1.64,2.73ZM66.11,46.56c.06-1.92-.84-3.53-1.59-5.24-.05,1.9.6,3.55,1.59,5.24ZM50.64,42.29c0-.1-.08-.18-.18-.18s-.18.08-.18.18.08.18.18.18.18-.08.18-.18ZM50.28,43.02c0-.1-.08-.18-.18-.18s-.18.08-.18.18.08.18.18.18.18-.08.18-.18ZM44.84,53.72c-3.2,7.42-4.2,15.54-3.91,23.62,0,.22-.14.52.01.76.18.28.6.28.91.32-.98,1.37-3.71.26-4.61-.64.55.23,1.14.26,1.73.3.34.02,1.11.34,1.29-.4.35-1.42.3-2.89.02-4.3-.12-.19-.64-.03-.83,0-4.18.73-4.81.02-8.41,2.76-8.69,6.6-4.96,20.1.02,22.92.64.36.89,1.92,1.84,1.55.1-.04.23,0,.34-.03.15.15.24.19.29.29.18.35.39.46.57.18s.13-.54.32-1.19c-.48-.7,3.4,3.49,2.29,1.12.11-.11.12-.31.23-.42l.34-.33c.37.05.74.14,1.09.26.34.31,1.05.34,1.06.95-.38.05-.78.01-1.11-.21-.29-.2-.77-.54-.68-.2.07.24.31.45.39.55.24.27.82.34,1.1.79-.33.56-.8.5-1.31.04-.26.14-.25.57-.17.8.18.54.72.3,2.86.94,1.23.37,2.49-.17,3.58.03,1.43.26,8.29-1.21,8-2.68,1.07,1.06,5.98-3.67,6.25-5-3.83-6.15-3.95-13.81.17-20.09-1.58-1.9-3.61-3.71-5.98-3.97-.24-.63-1.66-1.05-2.23-.62-1.82,1.38-.34-1.22-3.64.6.24-.26-.13-.41-.3-.47-.31-.12-.6-.03-.8.18-.14-.02-.3.03-.45,0-.51-.13-1.05.09-1.42.39-.2.16-.93-.15-.98.46-.06.75-.11,1.53.01,2.15h-.43c-.45-7.26.65-14.51,2.9-21.41,1.13-3.48,3.61-6.47,4.62-10.26-2.55,3-3.51,6.84-4.99,10.26ZM66.6,48.28c1.09,2.54,1.14,4.75,2.18,5.8-.09,1.46.7,2.79,1.2,4.27.56,1.65,4.16,13.44,2.93,13.76-.27.07-.6,0-.93,0-1.79-.07-3.71-.46-5.33.41-7.35,1.25-11.09,9.67-9.86,16.75.06.34-.07.73.18,1.09.18.26.54.39.91.36.13.44.09.93.34,1.33.05.72-.21.31-.81-.22-.14,1.15.31,2.83,1.58,3.23-.19.61.5,1.4,1.14,1.33-.22-.81-.71-1.2-1.14-1.33.04-.14.21-.27.3-.5.04-.12.22.01.37.07,1.1,2.64,1.86,1.11,1.86,3.7-.13-.05-.28-.12-.37-.2-.36-.32-.47.24-.35.4.22.28.51.15.72.17l.45.03c-.09.46.27,1.07.56,1.37.95.96,2.25-.6,2.86.6.1.2-.42.38-.78.73,1.24.8,2.66,1.84,4.13,1.55.43.95,2.38-.41,4.42-.25,1.17.09,2.21.44,3.24.33-1.01.81-2.54-.08-3.86.63.75.99,1.65.02,2.48.35s1.66.16,1.83-.58c.65.06,1.66.81,2.12.05.1.04.24.02.34.03,1.13.05,1.98-.81,2.96-1.13,3.11-1.05,5.79-3.49,7.56-6.58-2.25.31-3.11,2.15-5.14,1.71.53-.65,1.52-.34,1.85-1,.17-.35.55-.3.75-.46,1.67.44,1.53-1.93,2.51-.13,3.16-5.05,3.8-11.52,1.11-17.04-.62-1.27-1.32-2.33-2.53-3.01-.29-.93-.94-1.5-1.72-1.6-1.35-2.48-8.96-2.54-9.86-2.07-.28.15-1.22-.39-1.27.34-.1,1.56.43,3.21,1.08,4.58.6.13,1.33-.49,1.58-.72l.34.58c-2.56,2.06-6.36,1.24-9.04-.51-.09-.49.32-.55.57-.55.45,0,.79.12,1.16.07.06.33.11.48.24.66.23.33.95.74,1.24.25.49-.8.19-1.64.59-2.54.38.59.24,1.27.31,1.89.03.25-.38.68-.18.91.33.36,1.74.18,1.92-.05.24-.3.03-.63,0-.91-.57-6.25-3.95-16.09-6.22-22.12l-2.18-5.8c-.18-.48-.22-1.03-.62-1.49-.17.63.09,1.1.25,1.49Z"/>
  <path class="cls-1" d="M65.24,97.62c-.17.37.06.61.27,1.04-.8-.16-.92-.96-1.16-1.4.31.08.61.22.9.36Z"/>
  <path class="cls-1" d="M90.12,91.02c.1-.05.17-.15.42-.28.12.25-.03.35-.42.28Z"/>
  <path class="cls-1" d="M89.53,93.3c-.45.62-.9,1.13-1.51,1.06.11-.42.6-.71.65-1.18l.86.12Z"/>
  <path class="cls-1" d="M65.24,97.62c-.29-.14-.59-.27-.9-.36.13-.16.02-.38.16-.76.61.16.51.79.74,1.12Z"/>
  <path class="cls-1" d="M59,95.06c.42.13.92.52,1.14,1.33-.64.06-1.33-.73-1.14-1.33Z"/>
  <path class="cls-1" d="M64.34,97.27c.25.44.37,1.24,1.16,1.4-.2-.43-.43-.68-.27-1.04.32.28,1.25.58.94,1.23-.12.26-.94.3-.53.64.1.09.34.37.4.26l.45-.8c.82.85,1.55,1.85,2.36,2.92,1.18.26,2.23-.34,3.21.28-1.28.32-2.44.17-3.33.8-1.47.29-2.9-.74-4.13-1.55.36-.35.88-.53.78-.73-.61-1.2-1.91.36-2.86-.6-.3-.3-.66-.91-.56-1.37.05-.22.49-.57.19-1-.79-1.13-1.33-2.62-2.5-3.1-.14-.06-.32-.19-.37-.07-.09.23-.26.36-.3.5-1.27-.41-1.72-2.09-1.58-3.23.6.53.85.94.81.22l.24-5.72c.55,2.77.42,5.42,1.82,7.7.37-1.66-1.06-2.76-.23-4.32l1.58,5.55.29-3.06c.08,2.16.76,3.98,2.4,5.08ZM62.92,97.16c-.08-.94-.67-1.26-.98-1.64.08.94.67,1.26.98,1.64Z"/>
  <path class="cls-1" d="M86.65,74.27c-.03.64-.13,1.29-.06,1.92-1.92-.79-3.64-2.03-5.47-3.21-1.33-.44-4.59.7-4.33-.78.9-.47,8.51-.41,9.86,2.07Z"/>
  <path class="cls-1" d="M86.59,76.19c.47.1,1.17-.21,1.8.17.34.21-.79.99-1.21.88-.32-.08-.54-.66-.58-1.05Z"/>
  <path class="cls-1" d="M71.22,75.99c-.37.06-.7-.08-1.16-.07-.24,0-.66.06-.57.55-.32,0-.83.11-.96-.21-.67-1.69,2.13-1.98,3.51-2.5-.13,1.06-.8-.04-1.25.44.42.71,1.24.51,1.05.92-.17.37-.3.82-.63.86Z"/>
  <path class="cls-1" d="M71.98,72.11c-.22,1.55-.8.18-4.09,1.08-.56.15-.97-.39-1.24-.67,1.61-.87,3.54-.47,5.33-.41Z"/>
  <path class="cls-1" d="M78.54,76.98l-.34-.58c-.16-.26-.57-.55-.81-1.01.6-.32,1.48-1.06,2.18-.92s.75,1.28.58,1.7c-.25.61-1.22.49-1.61.8Z"/>
  <path class="cls-1" d="M76.85,103.45c-.17.74-.97.93-1.83.58s-1.74.64-2.48-.35c1.32-.71,2.85.18,3.86-.63.15-.04.59.18.45.4Z"/>
  <path class="cls-1" d="M57.88,90.72c-.37.03-.73-.1-.91-.36-.26-.36-.12-.75-.18-1.09.87.15-.03-4.33.61-4.39.34,2.12-.06,4.01.48,5.85Z"/>
  <path class="cls-1" d="M75.36,76.2c.03.28.23.61,0,.91-.18.23-1.6.41-1.92.05-.2-.23.21-.66.18-.91.58.06,1.17.03,1.75-.05Z"/>
  <path class="cls-1" d="M79.31,103.52c-.11,0-.25.01-.34-.03-1.23-.47-2.5-.69-3.7-1.43.99.06,4.24.51,4.04,1.46Z"/>
  <path class="cls-1" d="M61.97,98.73l-.45-.03v-.36c0-2.59-.75-1.06-1.86-3.7,1.17.48,1.71,1.97,2.5,3.1.3.42-.15.78-.19,1Z"/>
  <path class="cls-1" d="M61.52,98.33v.36c-.21-.02-.51.12-.72-.17-.13-.16-.02-.73.35-.4.1.09.25.16.37.2Z"/>
  <path class="cls-1" d="M78.55,81.55c-.41.07,6.27-2.39,3.48-2.67,0,0-4.52,2.35-5.79,1.42,2.26-.66,4.04-.69,5.69-2.21.23-.21.86.1,1.06.04,1.33-.42.6,3.15-4.44,3.43Z"/>
  <path class="cls-1" d="M66.56,81c-.24-.22.2-.58.43-.62,1.22-.19,3.44,1.68,4.92.85l-3.31-1.85c1.46.2,2.79.7,3.98,1.99-.69,1.72-6.91-1.2-6.02-.38Z"/>
  <path class="cls-1" d="M82.27,102.39c-1.97.01-3.62-.31-5.1-1.01.97-.34,1.44.14,2,.1.38-.03.62-.32.69-1.16,1.8.73,3.73.05,5.34-.96-.42-.5-.75-.17-1.08-.47.89-.56,1.9-.93,3.11-.93-.28.88-.96,1.19-1.73,1.49-1.07.42,1.06,1.74-5.94,1.82.06,1.01,4.21-.53,2.72,1.11Z"/>
  <path class="cls-1" d="M88.67,93.18c-.05.47-.53.76-.65,1.18-.66-.08-.91.15-1.54.51.45-.99,1.44-1.18,2.19-1.69Z"/>
  <path class="cls-1" d="M90.54,90.74c-.25.13-.32.23-.42.28-.31.18-.39.35-.5.43-.14.11-.65-.09-.59-.4l2.16-1.8-1.43-.63c.89-.74,1.2-1.41,1.99-1.76-.1.73-.72.86-.83,1.24-.13.48.34.74.68,1.11-.59.47-1.04.9-1.06,1.52Z"/>
  <path class="cls-1" d="M87.28,96.06c-.2.17-.58.12-.75.46-1.4-.74,1.05-.5,1.49-2.16.61.07,1.06-.44,1.51-1.06.27.04.59-.18,1.05.12-1.2.82-2.26,1.7-3.3,2.63Z"/>
  <path class="cls-1" d="M89.53,93.3l-.86-.12c.89-.6,1.68-1.29,1.45-2.16.39.06.54-.03.42-.28,2.12.46-1.04,1.74-1,2.57Z"/>
  <path class="cls-1" d="M71.25,99.06c-1.25-.39-.93-1.64-1.86-1.85-.31.47-.33.83-.54,1.08-.93-.71-1.2-1.62-1.4-2.48l.71,1.19c.24.41.97.42,1.36.01-.18-.5-.67-.61-.53-1.15.79,1.11,1.85,1.81,2.26,3.19Z"/>
  <path class="cls-1" d="M67.87,79.03c-1.28-.14-2.01-.3-3.2.09.5-1.4,2.32-1.58,3.2-.09Z"/>
  <path class="cls-1" d="M83.63,99.23c-.34.63-1.21.88-1.97.23.47-.66,1-.48,1.97-.23Z"/>
  <path class="cls-1" d="M71.49,99.53c0-.22.59-.1.73-.1s.25.24.2.53c-.04.18-.39.26-.53.19-.13-.07-.39-.15-.4-.62Z"/>
  <path class="cls-1" d="M69.41,99.54c-.49.27-.77.19-.38-.18.19-.27.05-.58.29-.67.22-.08.44-.01.55.19.12.22.03.5-.46.66Z"/>
  <circle class="cls-1" cx="88.18" cy="78.38" r=".23"/>
  <path class="cls-1" d="M76.39,100.74c-1.06.1-1.28-.68-1.85-.87.94-.2,1.19.69,1.85.87Z"/>
  <path class="cls-1" d="M62.92,97.16c-.31-.37-.9-.7-.98-1.64.31.37.9.7.98,1.64Z"/>
</svg>