<?xml version="1.0" encoding="UTF-8"?>
<svg id="katman_1" data-name="katman 1" xmlns="http://www.w3.org/2000/svg" viewBox="0 0 128 128">
  <defs>
    <style>
      .cls-1 {
        fill: #a65be8;
      }
    </style>
  </defs>
  <path class="cls-1" d="M67.85,90.86c.32.33-.25.54-.26.82-.16.01-.64.13-.69-.18-.02-.15.61-.62.95-.63Z"/>
  <path class="cls-1" d="M47.7,88.04c-.98-1.5-2.79-2.73-4.05-4.43.44,5.55,3.39,10.01,6.62,14.14.34.43,1.08,1.04.92,1.54-4.07-3.69-6.74-8.95-8.21-14.4-.25-.9-.43-1.86.25-2.67,1.78,1.97,3.49,3.71,4.48,5.82Z"/>
  <path class="cls-1" d="M52.28,100.4c0,.1-.04.21-.04.31-.07-.46-1.32-.59-1.06-1.42.38.34,1.04.46,1.1,1.12Z"/>
  <path class="cls-1" d="M67.59,91.68c0-.28.58-.49.26-.82.29.13.67-.06.97.46-.34.58-.89.33-1.24.36Z"/>
  <path class="cls-1" d="M78.53,73.92c-.08.13.04.38-.08.51-.2.22-.51.24-1.06.2.13-.53.62-.79,1.14-.71Z"/>
  <path class="cls-1" d="M84.25,63.71c-.21.91-1.43.78-1.77,1.15.43-.41.87-1.09,1.77-1.15Z"/>
  <path class="cls-1" d="M76.99,63.05c-.11-.08-.19-.32-.3-.39.22.18.27.28.3.39Z"/>
  <path class="cls-1" d="M85.36,57.66c-.1,0-.19-.03-.28-.05.11-.41.41-.86.86-1.25,2.73-2.42,2.79-5.89,1.82-6.03-.19-.03-.35.26-.57.3-.43.08-.67.26-.95.78-.16.28.28.56.62.79-.16.29-.47.44-.68.67-.02-.31-.05-.74-.44-.77-1.68,1.41-2.51,4.01-2.44,6.29.9-.29,1.32-.71,1.79-.78-.03.56-.69.76-.82,1.47,0,.29.58.29.75.28.23.42.38,1.36,1.04,1.41s1.22-.44,1.77-.33c.09.2.23.38.41.51.35.26.66.69.5,1.01-.25.49-.59.83-1.16.91-.21-.56.17-1.15-.36-1.93-.89.57-1.18,1.35-1.79,1.87.62.21,1.33.03,1.68.39.29.3.3,1.18.04,1.68-1.11,2.07-3.52,2.41-5.62,1.96-2.23-.48-4.01,1.52-4.08,3.5,1.17-.27,1.81-1.13,2.58-.56.34.25.4,1.19.95,1.16.72-.03,1.26-.28,1.71.35.37.53.26,1.15-.52,1.7l.49,1.88c-4.37,5.09-9.02-.16-7.91,2.4-1.42-.09-2.1.64-2.75,1.79l-7.91,13.99c.65-.13,4.17-4.39,5.03-3.96-.42.83-1.31.95-1.25,1.76-.34.02-.97.48-.95.63.04.31.53.2.69.18-.03.98-1.12,1.11-1.8,2.11,4.83-1.62,9.26-4.18,13.07-7.63-4-.52-6.77,1.42-10,2.9,2.99-2.92,7.36-4.04,11.46-3.6.4.04-.1,1-.35,1.12-1.89.88-3.38,2.12-5.06,3.3-8.42,5.96-11.55,2.42-15.85,14.03,1.14-.21,1.76-1.11,2.63-1.81,4.03-3.25,9.4-4.93,14.58-3.38-1.3,1.24-2.89,1.49-4.25,2.35-6.61,4.21-14.29,4.97-15.75,8.35l-2.73,6.34c-.13.29-.44.42-.64.46-.21.05-.76-.15-.62-.51l2.37-5.83c.98-2.42-.26-5.16-1.28-7.38.24-.31.38-.68.43-1.07.31.31.45.43.63.58.26.22.46-.05.47-.56,0-.31-.02-.56-.04-.87s-.6-.17-.88-.02c-.19.11-.09.41-.26.93-.51-.22-.41-.96-.98-1.11-.1-.19-.02-.5-.14-.68l.12-.74c1.38-1.07-4.18-9.56-5.06-10.92,3.45,3.13,5.05,7.77,6.9,12.23.67-8.22.48-8.78-3.34-14.71-3.41-5.3-5.78-11.06-5.96-17.42-.01-.38.04-.78.19-.89.1-.08.58-.29.67-.14l3.95,6.75c1.48,2.54,2.68,5.16,3,7.94h-.4c-1.36-4.59-3.33-9.11-6.57-13.12,0,6.66,2.86,12.51,6.32,17.57.27.4.43,1.04,1.15.66.26-.14.25-.81.55-1.04.03.12.03.24.05.36.23,1.46.26,3.04,1.17,4.31.35-.88.16-1.83.18-2.5-.04-.78.36-1.6-.17-2.59.34-.59.76-.36.66.36.01.35-.33,1.49.26,1.48.84-.02.16-1.09.06-1.47,1.98-4.89,3.79-10.04,8.33-13.56.56,1.86-.6,3.36-.8,4.94-.71,5.6-6.8,11.41-7.48,16.29-.6,4.25-.13,8.35-.13,13.01l5.52-10.91c3.18-6.28,6.17-12.38,9.98-18.34.6-3.01-.63-3.16-.57-3.46.03-.17.49-.33.52-.56.22-2.08,1.45-4.23.15-4.52-.27-.06-.48.22-.98.23.19-.45.51-.74.32-1.04-.08-.12-.38-.17-.53-.14-1.38.24-.7,4.05.42,5.85-1.59-1.38-2.46-4.51-1.04-6.25.51-.63,1.81-1.01,2.03-1.93.08-.32,1.26,0,1.24.31-.09,2.23,2.37.24,2.81,3.52.49-.91,1.34-1.66,1.47-2.66l.26-2.05c.06-.51-1-.95-.88-1.52,1.22.55.28.17,1.3-3.27.2-.67-.41-1.48-1.05-1.47-1.39.02-.8,3.51-.55,4.35-1.33-.8-1.02-2.51-.59-3.96.86-2.89,3.18-.25,2.37-2.92-.03-.65.72-1.01,1.17-.87.58.18.66.7.88,1.29l1.34,3.64c.92-.81,1.79-5.85,1.94-7.27-.12-.34-.92-.47-.84-.94.06-.37.27-.62.72-.96.28-.21.55.25,1.05.42,1.12.38,2.46-2.04,3.46-1.51,2.16,1.14-.54,6.86-2.81,8.06ZM79.72,57.57c.32-.86.35-1.27-.07-1.47-.15.65-.22,1.09.07,1.47ZM79.35,64.31c1.6-1.51,2.13-3.6,1.42-5.55-.15-.41-1.43-.2-1.66.15-.6.95-.89,2.11-.48,3.02.54-.69-.17-1.39.46-1.85l.26,4.23ZM83.25,60.9c-1.13,1.14-2.48,2.09-3,3.82.81.23,1.39.04,2.22.14-.45.5-.7.71-1.51.86,1.58.91,3.48.8,5.05-.23.63-.41,1.01-1.61.12-1.88-.65-.2-1.39.05-1.88.09.14-.59.43-1.15.7-1.85.31-.82-.88-1.03-1.69-.96.19-.43.39-.69.3-.96-.37-1.13-1.03.93-1.43,1.14.53.41.85-.15,1.13-.17ZM73.57,74.42c1.73-1.74,2.32-4.78,1.2-6.64-2.82.37-2.25,4.53-1.2,6.64ZM77.38,74.63c-.07.81-.92.78-1.86,1.26,2.12,1.21,4.86.8,6.51-1.17-.92-1.38-2.12-1.12-3.51-.8l1.2-1.94c.21-.34.1-.74-.01-.98-.8-1.62-4.71,1.34-5.35,3.9,1.3.15,2.12-.13,3.02-.27ZM81.79,72.42c0-.42-.34-.76-.76-.76s-.76.34-.76.76.34.76.76.76.76-.34.76-.76ZM57.41,86.23c-.14.3-.56.56-.21,1.11.24.05.47-1.48.6-.38.03.27-.19.57.19,1.1l3.22-5.3c1.63-2.67,2.68-5.58,2.64-8.96-3.57,3.29-5.44,7.75-6.44,12.44ZM62.83,103.03l.31.29c-.99.59-1.89,1.08-2.81,2.03,5.02-1.07,9.46-3.49,14.15-6.31-4.92-.77-9.89.87-13.46,4.48.89.24,1.25-.51,1.81-.48Z"/>
  <path class="cls-1" d="M71.55,30.68c-.36.11-.28.55-.66.46.04-.26.57-.21.66-.46Z"/>
  <path class="cls-1" d="M68.33,52.82c.1-.55-.12-1.15-.48-1.58s-1.55-.34-1.81.34c-.29.77-.25,1.72-.09,2.56.96-.43,1.34-.97,2-.98l1.61,1.97c-.83,3.52-4.75,5.07-8.12,4.82-3.15,3.4-2.08.11-2.89,4.92-1.11,6.54-1.85,12.89-2.3,19.56-.47-.3-.26-.89-.41-1.31.39-.77.16-2.06.03-2.93-.04-.27-.77-.12-.83-.14.08-.83.16-1.7.19-2.52l1.01,1.12c.22-.51.09-.82.11-1.12.06-.75.62-6.54.14-6.2-.11,1.89-.64,3.46-.5,5.11h-.73c.05-1.74,1.17-9.03,1.58-11.47.21-1.22,1.08-2.48.69-3.76-.25-.83-.96-1.48-.49-2.53-3.56-1.2-5.98-4.27-5.72-7.96.08-1.14,1.4-.82,1.94-1.36.5-.51-.48-1.93.27-2.5s1.41-.23,1.96.15.56,1.12,1.03,1.61c.55.56,1.45.17,1.93.72l-.05.34c-.98-.16-1.8.32-2.08,1.42-.53,2.08-.02,4.03.88,5.77l1.11,2.16c.36-1.08,1.16-.45,1.71-.71,1.08-.51,2.05-1.29,3.28-1.09-.22.87-1.19,1.02-1.92,1.8,3.23.88,6.46-.96,7.61-4.01-1.01.2-1.35,1.47-2.56,1.01.54-.55,1.44-.66,1.38-1.51-1.19-.27-1.8.42-2.71.52-.02-1.54.33-2.87-.28-3.23-.22-.13-.5-.13-.83-.08-2.26,1.1-3.38,2.94-4.3,5.39-.54-2,.03-3.48-.13-5.02.3.08.61.07.76-.23s-.09-.6-.03-.86l1-4.48c.2-.9-.5-2-.78-2.91-3.04-1.43-4.92-4.91-3.65-7.99.25-.44,1.26-.28,1.5-.57.34-.42.34-1.13.38-1.68.06-.78.82-.85,1.27-.66s1.01,1.12.44,1.22c-.4.03-1.17-.28-1.01.33.2.77.6,1.42,1.09,1.94.42-.78-.16-1.16.17-2.01,2.1,2,2.07-.93,3.73,3.12.47-1.22,1.38-2.24,1.29-3.37l-.2-2.51-.91-1.11c.23-.09.36.01.89-.11-1.21-2.27.62-3.27-.56-5.39-.21-.38-1.11-1.04-1.6-.53-1.37,1.42-.13,3.41.22,4.97-1.66-.66-1.9-3.77-.87-5.24.61-.88,1.69-.99,1.65-2.51,0-.45,1.08-.54,1.32-.23.28.35.47,1.02.37,1.48-.38-.23-.7.28-.7.79-.35.01-.45-.12-.55-.04-.11.09-.2.37-.14.5.13.26.3.06.58.1l1.29.16c-.61,1.64-1.21,3.28-.59,5.04l.34-2.59c.69,1.47.48,2.73.82,4.21,1.85-1.13,1.89-5.57.95-6.31-.36-.28-1.01-.28-1.52-.34.22-.58.6-.48,1.51-.46-.03-.76-.64-.68-.8-1.08.12-.25.7-.87.99-.51.66.82.27,2.06.87,3.18,1.53-1.8,1.24-4.19-.09-5.9,1.11-1.18.51-3.31.84-5.01-.84.04-.56.75-1.08,1.04-.27-.6.14-1.24-.55-1.3-.78,1.78-.03,3.34.45,4.92-2.18-1.28-1.89-4.59-.12-6.34.46-.46.43-.99,1.04-.94.47.04,1.22.35.78.88-.24.29-1.04.21-.76.54.1.12.41.69.69.67.74-.55,2.48-.99,3.04.16s-.25,2.64.1,3.91c.05.17.5,0,.68.06l-1.18,2.67c.85,0,1.51.1.66.81,1.69,1.01,5.03.62,5.56-1.79.17-1.02-2.02-.63-2.75.05.46-1.04,1.72-2.1,1.01-3.31-.51-.42-1.52.29-2.29.46l2.64-4.4c.59-.99.81-3.05-.06-4.01-.51-.56-1.44.71-1.48,1.07-1.61.58-2.03,2.57-2.68,4.15-.58-.82.24-1.51.14-2.26-.53-.36-.92-.86-.46-1.44.21-.27.73.02,1.2-.12.8-.23,2.29-2.72,3.57-2.1,1.95.94.37,5.79-1.06,7.53.75.31,1.7.54,1.59,1.13l-.34,1.78c.75.35,1.84.14,2.01,1.01.42,2.24-3.42,3.66-6.14,3.36-1.94-.21-3.45,1.72-3.47,3.44,1.82,0,2.04-1.42,3.39-2.11.55,1.15-.46,1.78.19,2.82.53-.44.75-1.01,1.26-1.09.6-.1,1.04.17,1.23.72.12.33.21.92-.15,1.28-.68.68.18,1.57-.06,2.26-.93,2.63-4.16,3.82-6.79,2.81-3.4,2.18-2.28.78-3.59,4.76,1.57.04,2.41-.69,3.01-2.08.94.74,1.99.71,2.89.96.23.62.76,1.45,1.09,2.02s-.63,1.28-.69,1.8c.69,1.16.64,2.52-.5,3.47-2.02,1.7-4.47,2-7.13,1.44,0,1.26-1.53,1.22-1.82,1.86-.77,1.68-1.16,3.32-1.3,5.36,1.6-.97,2.52-1.88,4.26-1.13.23-.67-.3-.85-.61-.8-.19.03-.44.15-.75.05-.33-.47-.3-1.23-.07-1.66.17-.31.84-.32,1.33-.1.55.24-.15,1.67.52,1.93.16.06.22-.06.57-.2.63-.32,1.42-.69,2.03-.24.38.28.52,1.01.45,1.6-.05.44-.41.97-1.03.97ZM71.58,20.62c.99-1.19,1.98-5.91.54-6.3-1.52-.42-2.56,3.78-1.42,5.23.37-.62-.25-1.2.44-1.54.29.99-.13,1.76.43,2.61ZM69.78,31.19c.26.08.57-.17,1.11-.05-.09.55-.64.65-.76,1.12,1.9.61,4.85-.05,5.59-2.25.35-1.03-1.33-1.12-1.93-.8-.94.5-1.37,1.21-2.24,1.47.43-1.16,1.95-1.9,1.58-3.03-.1-.31-.53-.13-1.07.18-.24-.57.46-.79.51-1.37-1.63-1.13-5.31,3.64-3.57,5.05.19.15.56-.11.78-.32ZM74.11,28.19c.21.55,1.15.01,1.46-.23.26-.22.62-1.06,0-1.32-.54-.22-1.73.86-1.46,1.55ZM60.39,39.55c-.27-1.53-1.47-3.92-2.87-3.41-1.46,2.71.69,6.22,3.48,6.87l-.61-3.46ZM61.06,40.17c.3.93.15,2.14,1.05,2.84.16-1.5-.89-2.48.04-3.21-.02.99.17,1.99.74,3.01,1.83-2.35.72-9.01-1.25-6.83-1.17,1.3-1.03,2.8-.58,4.18ZM70.72,37.39c0-.39-.32-.71-.71-.71s-.71.32-.71.71.32.71.71.71.71-.32.71-.71ZM71.61,42.75c.25-.2.51-.45.6-.76.14-.5-.4-.67-.83-.84-1.27-.49-2.1-.03-3.13.92.2-1.49,1.35-2.29,1.03-3.6-.64-2.6-5.59,2.11-5.68,4.89.82-.24,1.23,0,1.56.41.95-.3.76-.41-.1-.9.6-.44.86.45,1.47.34.85-.16.89-1.24,1.9-1.31-.52,1.59-1.95,1.67-3.13,2.58,2.31.89,4.61.09,6.33-1.72ZM72.17,38.89c-.45-.39-1.63-.39-1.88.11-.28.58-.97.91-.77,1.42,1.28-.05,2.86-.16,2.65-1.53ZM61.89,44.76l-.18.88,2.01.42.18-.88-2.01-.42ZM55.26,52.3c-.17-.71-1.31-1.17-.97-1.81.3-.55-.05-1.6.73-1.67l.39,2.22c.68-.95.84-2.96-.5-3.45-.87-.32-1.19.7-1.16,1.13.03.49.23.99.47,1.56-.56.18-2.01-.2-2.15.56-.53,3.02,1.61,6.27,4.75,6.93-.81-1.92-1.12-3.57-1.56-5.45ZM59.91,60.23l-2.33-.65c0,.98.64,1.16,1.14,1.19s1.03.15,1.19-.54ZM58.58,61.96c-.08-.45-.4-.45-.48,0,.05.84.43.84.48,0ZM57.96,64.47c.32-.86.35-1.27-.07-1.47-.15.65-.22,1.09.07,1.47ZM56.71,69.55c.07.41-.18.89.16,1.47.46-.43.08-1.01.2-1.47.39-1.46.89-3,.6-4.77-.64,1.49-.53,3.02-.97,4.77Z"/>
  <path class="cls-1" d="M74.84,17.32c.16-.15.23-.29.3-.33l-.3.33Z"/>
  <path class="cls-1" d="M69.03,19.52c-.08-.11-.24-.29-.35-.36.49.08.48.2.35.36Z"/>
  <path class="cls-1" d="M64.65,30.36c-.6.25-.64-.91-1.05-1.07.32.27.78.74,1.05,1.07Z"/>
  <path class="cls-1" d="M74.84,17.32c-.1.11,0,.36-.07.53-.1.22-.4.34-.64.25.17-.39,0-.62.19-.71.16-.08.41,0,.52-.07Z"/>
  <path class="cls-1" d="M63.32,57.24c.09-.26.31-.73.65-.75-.03.33-.42.58-.65.75Z"/>
  <path class="cls-1" d="M67.95,53.17c0-.21.27-.26.38-.34-.12.12-.25.24-.38.34Z"/>
  <path class="cls-1" d="M65.12,55.06c0,.7-.47,1.38-1.16,1.43.09-1.05.43-1.35,1.16-1.43Z"/>
  <path class="cls-1" d="M55.84,83.12c-.74,1.46-1.13,3.44-.28,4.93-.01.67.18,1.62-.18,2.5-.91-1.27-.94-2.85-1.17-4.31.27-.04.29-.35.32-.71l.5-5.47c.06.02.79-.13.83.14.13.87.36,2.16-.03,2.93Z"/>
  <path class="cls-1" d="M52.72,81.8h.4c.88.84.64,2.28,1.04,4.07-.3.23-.29.9-.55,1.04-.72.38-.87-.26-1.15-.66.52-1.43-2.92-7.04-2.97-9.2,1.77,2.71,2.55,5.63,3.77,8.47.1-1.4-.21-2.58-.55-3.73Z"/>
  <path class="cls-1" d="M88.23,60.95c-.18-.13-.32-.31-.41-.51.07-.35.62-1.31.03-1.78-.81-.64-2.46-.12-2.84.7-.17,0-.75,0-.75-.28.13-.72.79-.92.82-1.47.09.02.19.04.28.05-.01.61,3.87-.51,3.38,1.61-.14.61-.8,1.08-.51,1.68Z"/>
  <path class="cls-1" d="M66.07,22.78c.19.11.29.67.61.68.26,0,.48-.51.57-.7.17.39.77.32.8,1.08-.91-.02-1.29-.12-1.51.46l-1.29-.16c-.28-.03-.45.17-.58-.1-.07-.13.02-.41.14-.5.1-.08.2.05.55.04,0-.51.32-1.02.7-.79Z"/>
  <path class="cls-1" d="M60.3,51.03c-.06.26.17.58.03.86s-.46.31-.76.23c-.41-.8-.83-1.59-1.16-2.43l.05-.34c-.86-.97,3.15,3.43,1.84,1.68Z"/>
  <path class="cls-1" d="M53.39,102.5c-.26-.58-1.03-1.05-1.15-1.79,0-.1.05-.21.04-.31l.5-.02c.56.16.46.89.98,1.11.17-.52.07-.82.26-.93.28-.16.86-.3.88.02s.04.56.04.87c-.01.51-.21.78-.47.56-.18-.15-.33-.27-.63-.58-.06.39-.19.75-.43,1.07Z"/>
  <path class="cls-1" d="M55.98,76.44c.03.39-.12.94.36,1.09-.02.3.11.61-.11,1.12l-1.01-1.12.03-1.09h.73Z"/>
  <path class="cls-1" d="M56.05,85.82h.32c.11.39.79,1.46-.06,1.48-.59.01-.24-1.13-.26-1.48Z"/>
  <path class="cls-1" d="M63.14,103.32l-.31-.29c1.33-.83,2.46-1.95,4.14-1.88-1.14,1.16-2.59,1.44-3.82,2.17Z"/>
  <path class="cls-1" d="M57.8,86.96c-.13-1.09-.36.43-.6.38-.34-.55.07-.81.21-1.11.92-.84.34-2.34,2.2-4.34-.78,1.78-.85,3.59-1.82,5.06Z"/>
  <path class="cls-1" d="M52.76,98.95l-.12.74c-.75-1.07-1.25-2.26-1.68-3.67,1.08.71,1.47,1.83,1.79,2.93Z"/>
  <path class="cls-1" d="M87.18,50.62c-.18.74.28,1.3.38,2.24-.5-.07-.38-.53-.72-.67-.33-.24-.77-.51-.62-.79.28-.52.52-.7.95-.78Z"/>
  <path class="cls-1" d="M83.25,60.9c-.28.02-.59.58-1.13.17.4-.2,1.06-2.27,1.43-1.14.09.27-.12.53-.3.96Z"/>
  <path class="cls-1" d="M86.16,52.87c-.1.11-.07.48,0,.61.12.25-.77.75-.71.35l.28-1.72c.38.03.42.45.44.77Z"/>
  <path class="cls-1" d="M79.72,57.57c-.29-.38-.22-.83-.07-1.47.42.21.39.62.07,1.47Z"/>
  <path class="cls-1" d="M60.03,58.33c-.55.26-1.35-.38-1.71.71l-1.11-2.16c.46-.58-.02-1.36.28-2.13,1.01.37.76,1.64,1.32,2.41.26.36,1.25.34,1.23,1.16Z"/>
  <path class="cls-1" d="M56.34,77.53c-.49-.14-.33-.7-.36-1.09-.14-1.65.39-3.22.5-5.11.49-.34-.08,5.45-.14,6.2Z"/>
  <path class="cls-1" d="M57.07,69.55h-.36c.43-1.74.33-3.28.97-4.77.29,1.77-.21,3.3-.6,4.77Z"/>
  <path class="cls-1" d="M62.15,39.81c-.93.73.12,1.71-.04,3.21-.9-.7-.75-1.91-1.05-2.84.22-.17.34-.49.55-.72.18-.19.67.1.54.35Z"/>
  <rect class="cls-1" x="62.36" y="44.38" width=".9" height="2.05" transform="translate(5.48 97.57) rotate(-78.17)"/>
  <circle class="cls-1" cx="70" cy="37.39" r=".71"/>
  <path class="cls-1" d="M56.71,69.55h.36c-.13.47.26,1.04-.2,1.47-.34-.58-.09-1.06-.16-1.47Z"/>
  <path class="cls-1" d="M57.96,64.47c-.29-.38-.22-.83-.07-1.47.42.21.39.62.07,1.47Z"/>
  <path class="cls-1" d="M58.58,61.96c-.05.84-.43.84-.48,0,.08-.45.4-.45.48,0Z"/>
  <path class="cls-1" d="M50.81,95.8c-1.14-1.23-1.93-2.34-2.41-3.93,1.01,1.2,2.14,2.3,2.41,3.93Z"/>
  <circle class="cls-1" cx="48" cy="91.31" r=".4"/>
  <circle class="cls-1" cx="47.28" cy="90.23" r=".31"/>
  <path class="cls-1" d="M49.35,76.69c-.64-.87-1.71-1.74-1.24-3.22.83.79.81,1.55,1.24,3.22Z"/>
  <path class="cls-1" d="M70.83,89.68c.51-1.11,1.98-.93,2.89-1.53-.87.74-1.46,1.61-2.89,1.53Z"/>
  <path class="cls-1" d="M69.4,90.95c-.11-.13-.23-.25-.36-.36.47-.37,1.02-1.09,1.63-.41-.44.49-.9.63-1.26.77Z"/>
  <path class="cls-1" d="M69.4,90.95c-.32.12-.43-.28-.36-.36.13.11.25.23.36.36Z"/>
  <path class="cls-1" d="M59.63,81.39c.03-.7.66-1.11,1-1.61.02.86-.57,1.19-1,1.61Z"/>
  <path class="cls-1" d="M76.25,9.65c.68.04.66-.43,1.11-.7.22,2.84.49,1.35-1.32,3.91l.1-1.13c0-.11-.48.02-.45-.1l.56-1.98Z"/>
  <path class="cls-1" d="M69.78,31.19c-2.03.83,1.32-2.43,1.06-1.85-.41.72-1.19,1.04-1.06,1.85Z"/>
  <path class="cls-1" d="M71.61,42.75c-.78.13-.94.52-1.54.21l1.14-1.41c.51,0,.35.87.39,1.2Z"/>
</svg>