<?xml version="1.0" encoding="UTF-8"?>
<svg id="katman_1" data-name="katman 1" xmlns="http://www.w3.org/2000/svg" viewBox="0 0 128 128">
  <defs>
    <style>
      .cls-1 {
        fill: #c17d05;
      }
    </style>
  </defs>
  <path class="cls-1" d="M82.69,68.33c-.56-.07-.46.58-.72,1.11-.14.3-.86.3-.72,1.17-.67.36-.92.86-1.04,1.39-.11.03-.14.27-.37.42-1.17.47-1.13,2.18-2.61,2.5-.2-.88-.86-1.31-1.45-1.47.25-.22,0-.65-.37-.36-.05-.3-.16-.62-.14-.89.04-.49,5.98-4,7.06-4.51.17-.08.39.57.35.63Z"/>
  <path class="cls-1" d="M75.39,93.8c-.04-.32,0-.57.05-.79.13.09.34-.08.39.21.07.34-.18.65-.44.59Z"/>
  <g>
    <g>
      <path class="cls-1" d="M79.84,72.43c.23-.15.27-.39.37-.42-.13.25-.36.33-.37.42Z"/>
      <path class="cls-1" d="M75.44,93c-.05.23-.1.47-.05.79-.39-.61-1.07-.99-1.4-1.84l1.45,1.05Z"/>
      <path class="cls-1" d="M80.21,72.01c.12-.53.37-1.04,1.04-1.39.08.52-.38,1.19-1.04,1.39Z"/>
      <path class="cls-1" d="M77.22,74.93c-.66-.1-1.18-.62-1.45-1.47.58.16,1.25.59,1.45,1.47Z"/>
      <path class="cls-1" d="M81.25,70.61c-.14-.87.58-.87.72-1.17.03.57-.03.85-.23,1.03-.13.12-.36.07-.49.14Z"/>
      <path class="cls-1" d="M75.78,73.46c-.38.27-.62-.16-.37-.36.37-.29.62.14.37.36Z"/>
      <path class="cls-1" d="M81.97,69.45c.26-.54.15-1.18.72-1.11.11.44,0,.82-.24.98-.11.08-.3.11-.48.14Z"/>
      <path class="cls-1" d="M78.27,75.61c-.02.21-.35.42-.42.63-.35.97-.39,2-.59,3h-.36c.24-1.63.62-3.01.33-4.3,1.49-.32,1.44-2.03,2.61-2.5-.16,1.44-1.6,1.93-1.56,3.18Z"/>
      <path class="cls-1" d="M75.39,93.8c.26.06.51-.25.44-.59-.06-.28-.26-.11-.39-.21.15-.76-.26-1.62.09-2.56,1.1,1.02.62,2.6,1.69,3.98,2.17-1.73,2.79-4.22,3.58-6.61.36-1.11,3.44-9.23,3.45-9.36.03-.7-.62-.97-1.11-1.03v-.27c.35.18.82.27,1.47.19-.38-1.79-.38-3.3-.47-5.03l-.24-4.76c-.7.23-.71.89-1.21.77.03-.06-.19-.71-.35-.63-1.08.51-7.02,4.02-7.06,4.51-.02.27.09.59.14.89-.59.01-.94.49-1.03,1.19l-1.79,14.41c.65-.48.93-1.59.82-2.3.32-.25.68-.45,1.05-.61-.23.86.05,2.44-.05,3.24-.28-.2-.37-.45-.58-1.1-.37.18-.22.82-.21,1.24.01.24.47.28.74.24.07.01.27.05.46,0,.74-1.28.02-2.84,1.14-4.22.4,1.9-.69,3.36-.49,5.4l-2.35-.83.85,2.19c-1.71-1.24-1.84-3.27-1.66-5.43l.42-4.89,1.4-9.55,10.29-6.43,5.49,10.78-6.13,15.54-5.33,3.23c-1.4.85-2.46-.43-3.08-1.4ZM85.09,77.3l3.94-1.23c-1.29-3.03-2.65-5.59-4.22-8.3-.46,2.69-.1,6.42.28,9.53ZM82.37,92.02c.44-.13.5-.47.75-.77,1.05-1.29,3.63-8.66,4.34-10.86-.42-.11-.47.27-.57.42-.19-.08-.39-.17-.48-.36-.16-.83.48-1.92-.1-2.74-.52-.25-1.42.57-1.62,1.12l-4.98,13.77c.51.12.59-.3.82-.45.3-.19.53.04.86.31.43.34.7-.34.97-.42ZM80.88,92.84c0-.1-.08-.18-.18-.18s-.18.08-.18.18.08.18.18.18.18-.08.18-.18Z"/>
      <path class="cls-1" d="M64.93,92.74l1.44-1.53c.05.82-.65,1.42-1.44,1.53Z"/>
      <path class="cls-1" d="M71.43,97.8c-2.7,2.77-10.47.96-11.9-3.91-.57-1.94.98-4.45,1.18-6.45,2.88-.64,5.34-.43,8,.25,1.18,2.49,4.68,8.09,2.71,10.1ZM63.47,88.99l-.02.44c-.3-.26-.87-.32-1.37-.38.27,1.61.68,3,1.15,4.49.86-.35,1.2-.73,1.69-.8l-1.23,1.83c2.15.85,3.8,1.97,5.63,3.28.27-.13.16-.68.09-.82-.1-.21.17-.43.38-.34.26.12.42.43.94.21-.33-.42-.73-.77-.75-1.45-.01-.42.51-.86.97-1.12-.28-1.92-1.41-3.81-2.42-5.75-1.39.92-.42,3.01-2.17,2.63l-.03-.44c.2-.24.62-.37.75-.67l.79-1.8c-2.02-.54-3.81-.78-5.93-.38.37.72,1.04.75,1.51,1.07ZM62.64,93.69c-.51-2.04-.7-3.35-1.51-5.12-.59,1.73-1.18,3.29-1.17,5.13.9.07,1.75.54,2.67,0ZM68.48,97.81c-1.97-.73-3.22-1.61-4.74-2.59-.46-.3-1.66.62-1.73,1.13-.09.66,1.08,1.42,2.39.87.26.21.28.88.85,1.01,1.09-.19,2.12.56,3.24-.42Z"/>
      <path class="cls-1" d="M83.12,91.24c.6-3.08,2.95-7.18,3.77-10.44.1-.14.15-.52.57-.42-.71,2.2-3.29,9.57-4.34,10.86Z"/>
      <path class="cls-1" d="M86.41,80.44c-1.2.61-1.76,1.72-1.91,3.18-.12,1.17-1.11,1.99-1.01,3.28.94-.69.58-1.83,1.29-2.58-.55,5.05-2.66,4.39-2.77,5.19-.1.71-.76,1.16-1.2,1.67.46.55,1.06.63,1.57.83-.27.08-.54.76-.97.42-.34-.26-.56-.5-.86-.31-.24.15-.31.58-.82.45l4.98-13.77c.2-.55,1.09-1.37,1.62-1.12.58.82-.07,1.91.1,2.74Z"/>
      <path class="cls-1" d="M86.89,80.8c-.82,3.26-3.18,7.37-3.77,10.44-.25.31-.31.65-.75.77-.51-.2-1.1-.28-1.57-.83.44-.52,1.1-.96,1.2-1.67.12-.8,2.22-.14,2.77-5.19-.71.75-.35,1.89-1.29,2.58-.1-1.29.89-2.11,1.01-3.28.15-1.46.71-2.57,1.91-3.18.09.19.29.28.48.36Z"/>
      <path class="cls-1" d="M74.48,85.79c-.38.16-.73.36-1.05.61-.17-1.16.22-2.19.56-3.45.26-1-.16-2.15.68-3.04.05,2.14.31,4.04-.18,5.87Z"/>
      <path class="cls-1" d="M83.14,77.16v.27c-1.82-.19-3.46-1.1-5.29-1.19.08-.21.4-.42.42-.63,1.63.47,3.35.76,4.86,1.55Z"/>
      <path class="cls-1" d="M74.43,89.04c-.01.1.1.35-.05.37-.26.04-.73,0-.74-.24-.02-.41-.16-1.06.21-1.24.21.65.3.9.58,1.1Z"/>
      <circle class="cls-1" cx="80.7" cy="92.84" r=".18"/>
      <path class="cls-1" d="M68.48,97.81c-1.12.97-2.14.23-3.24.42-.57-.12-.59-.8-.85-1.01-1.3.55-2.48-.21-2.39-.87.07-.51,1.26-1.43,1.73-1.13,1.52.98,2.77,1.87,4.74,2.59Z"/>
      <path class="cls-1" d="M67.1,90.1c-.13.3-.56.43-.75.67-.96-.47-2.07-.62-2.89-1.33l.02-.44c1.06.74,2.33,1.23,3.63,1.11Z"/>
      <path class="cls-1" d="M77.26,79.24c-.42,2.05-.07,4.01-1.25,5.65-.41-2.17.63-3.93.89-5.65h.36Z"/>
      <circle class="cls-1" cx="67.83" cy="91.93" r=".31"/>
      <circle class="cls-1" cx="68.37" cy="92.84" r=".18"/>
    </g>
    <g>
      <path class="cls-1" d="M66.73,70.57c-.25.18-.73.04-.89.36-.13.26-.12.51-.11.75-.25.03-.41.43-.44.64-.45.02-.94-.08-1.43-.36.54-1.24.49-2.53-.79-3.07.82-.11,1.26-.8,1.91-.84.71-.04,1.36.84,2.02,1.18.23.34-.26.82-.26,1.34Z"/>
      <path class="cls-1" d="M65.41,74.11l-11.45,14.1c-5.75,7.07-15.79,8.85-22.37,2.21-5.29-5.33-5.07-13.54-.42-19.27l30.01-36.95c5.31-6.54,14.12-8.47,21.11-3.28.35-.57.46-1.18,1.14-.99.1.63-.38.88-.5,1.61,5.08,4.8,6.49,12.96,1.81,18.74l-19.32,23.84ZM86.41,40.07l-.04-.35-.67-1.89c-1.02-2.91-2.91-5.71-5.81-7.35-6.25-3.54-13.54-1.3-17.95,4.18l-13.89,17.29c3.32,1.88,6,3.89,8.75,6.1,4.19,3.36,8.3,6.59,12.02,10.46l13.74-16.62c2.81-3.4,4.21-7.23,3.84-11.8ZM40.54,93.53c.36.1.71.24,1,.17.54-.12,1.3-.46,1.18-1.13-.59-.32-1.22.07-1.44-.57,1.69-.2,2.99.19,4.49-.28.31-.55.21-1.17.39-1.84,1.23-.17,2.16-.77,2.96-1.58-.34-.31-.65.07-.92.01.45-.52.24-1.37.57-2.04,3.19.13,1.3-.6,3.46-1l.05.35c-2.59,3.22-1.05,1.91-.96,2.27.07.25.1.52.02.66-.15.26-.55.13-.72.06-1.61-.64-1.76,1.14-2.29,1.95-1.6,2.41-7.16,1.51-5.36,2.85.32.24.46-.3.67-.32,3.74-.34,6.66-1.9,8.98-4.74l11.42-13.99c.56-.69,1.31-1.23,1.26-2.05.18-.14.45-.35.44-.64.83-.09,1-.58,1.01-1.11.3-.22.68-.56.89-.82,1.18-1.55-17.03-16.4-20.25-16.96l-15.48,18.85c-4.23,5.15-4.53,12.56-.23,17.44-.06-2.7,1.86,1.23,2.26,1.24-.58.18-.69.3-.41.6.13.14.44.36.76.18.59-.34.51-1.12,1.23-1.24-.84,3.07.02.14,1.88.9.79.32-1.28,2.11.18,2.16.18,0,.27-.44.54-.74.68.81,1.4,1.58,2.46,1.36ZM34.81,91.68c.86.71,1.26.86,1.66.69.34-.14.22-.67.63-1.48-.78.05-1.53.49-2.29.78Z"/>
      <path class="cls-1" d="M40.54,93.53l-.53-1.61c-.22-.67.1-.87.57-1.29.04-.03,2.56.61,3.11.39.64-.41,1.16-1.22,1.52-1.78l.4-.62c.05-.08.35.23.54.26.73-.32,1.31-.75,2.05-.58.27.06.58-.32.92-.01-.8.81-1.73,1.41-2.96,1.58-.18.67-.08,1.29-.39,1.84-1.5.47-2.8.08-4.49.28.22.65.85.25,1.44.57.12.68-.65,1.01-1.18,1.13-.3.07-.64-.07-1-.17Z"/>
      <path class="cls-1" d="M86.37,39.72l.04.35c-.16.02-.79.1-.76.43.07.71.12,1.2-.06,1.74-.09,0-.52.06-.55-.07-.19-.88.05-1.66.25-2.41.32.1.74-.02,1.08-.05Z"/>
      <path class="cls-1" d="M34.81,91.68c.76-.3,1.51-.73,2.29-.78-.4.8-.29,1.34-.63,1.48-.41.17-.81.02-1.66-.69Z"/>
      <path class="cls-1" d="M65.29,72.32c.03-.2.18-.61.44-.64,0,.28-.26.49-.44.64Z"/>
      <path class="cls-1" d="M66.73,70.57c0,.53-.18,1.02-1.01,1.11,0-.25-.02-.5.11-.75.16-.32.65-.18.89-.36Z"/>
      <path class="cls-1" d="M52.28,85.62l-.05-.35c.11-.31.38-.64.35-.89-.05-.43-.69-.31-1.22-.66.36-.64,1.29-.72,1.75-1.23.2.14.29.51.43.59.09.05.21-.23.27-.3.12-.15-.05-.39-.19-.69-.95-1.89,2.25-1.77,3.39-2.96.31-.32-.22-1.19.07-1.61.45-.65,1.65-.26,2.39-.81-2.08,5.68-2.24,3.1-3.32,5.1-.44.82-1.36,1.2-1.03,2.61-.7-.15-1.41-.63-1.69-.06-.32.66-.86.88-1.16,1.26ZM58.03,77.6c0-.1-.08-.18-.18-.18s-.18.08-.18.18.08.18.18.18.18-.08.18-.18Z"/>
      <path class="cls-1" d="M33.17,83.48c-1.78-2.56-.15-5.28.66-8.1-1.62-.35-2.35,6.49-3.03,3.77-.05-.2-.03-.44.27-.71.78-.72-.72-2.48,1.98-5.17.32.33.36.74.56.79.41.11.5-.45.79-.63.4.75-.56.85-.5,1.57.05.62.69-.18,1.33.02-2.11,2.47-2.51,5.2-2.05,8.46Z"/>
      <rect class="cls-1" x="43.8" y="58.58" width="2.65" height=".48" transform="translate(-28.99 57) rotate(-51.11)"/>
      <path class="cls-1" d="M46.07,57.37c.44-.47.62-1.08,1.42-1.36-.22.59-.36,1.09-1.42,1.36Z"/>
      <path class="cls-1" d="M38.89,90.92c.22-.24.56-.07.63.1.05.12,0,.32,0,.71,0,.18-.18.26-.37.03-.2-.24-.58-.49-.26-.84Z"/>
      <path class="cls-1" d="M61.47,74.03c1.18-.5-2.05,2.51-1.45,2.31-2.17.73,1.04-1.67,1.45-2.31Z"/>
      <path class="cls-1" d="M48.35,55.27c.38.21.22.4-.2.45-.84-.06-.74-.49.2-.45Z"/>
      <circle class="cls-1" cx="43.7" cy="60.56" r=".18"/>
      <path class="cls-1" d="M79.8,51.31c.38.02.77.11,1.04.41-3.44,5.02-7.57,9.57-11.62,14.24-.24.28-1.4.17-1.34-.11.29-1.26,1.63-1.88,2.07-3.01.12-.3-.51-.73-.49-.95.03-.32.37-.84.88-.69-.02.25-.27.44-.39.55-.19.17-.03.41.23.45.55.09,6-6.39,6.46-7.88l-6.26,6.39c1.99-2.74,4-5.3,6.21-7.69.34.53.17,1.04.45,1.05.23,0,1.82-1.48,1.1-1.66-.41-.1-.64.18-1.14.34.02-.6.42-.91,1.11-1.59l.52,1.28c.16-.55.92-.72,1.17-1.12Z"/>
      <path class="cls-1" d="M69.07,34.17c2.13-1.32,4.89-.33,4.86-1.54-.04-1.81-4.82-.76-8.06,1.85-1.19.96-1.68,2.38-3.09,3.11.72-1.25,1.62-2.23,2.63-3.24,3.6-3.56,9.16-3.55,9.2-1.73.02.73-.62,1.03-1.35,1.02-3.88-.05-6.45,2.41-8.95,5.13.94-2.14,2.9-3.44,4.77-4.6Z"/>
      <path class="cls-1" d="M85.3,39.76c-.2.75-.44,1.53-.25,2.41.03.13.46.06.55.07-.09.27-.12.85-.11,1.14-.4-.12-.66.12-.78.43-.07.18.21.79.05.92-.92.78-.84,2.51-1.53,3.4s-2.57,1.61-1.63,2.79c-.21.24-.6.55-.77.79-.26-.29-.65-.39-1.04-.41,1.8-3,4.41-4.1,4.52-10.09,0-.48.41-1.05-.21-1.52.28-.11.48-.31.74-.44s.28.45.45.5Z"/>
      <path class="cls-1" d="M84.11,39.7c.62.47.22,1.04.21,1.52-.61-1.06-.95,5.83-2.47,5.85.8-2.77,1.98-5.21,1.17-8.1.85-.03.71.6,1.1.73Z"/>
      <path class="cls-1" d="M85.49,43.38c.7,2.31-2.45,5.89-3.89,7.54-.94-1.18.97-1.94,1.63-2.79s.61-2.62,1.53-3.4c.16-.13-.12-.74-.05-.92.13-.32.38-.55.78-.43Z"/>
      <path class="cls-1" d="M85.71,37.82c-3.03,1.99-.92-.96-4.08-4.23l4.08,4.23Z"/>
      <rect class="cls-1" x="55.45" y="43.24" width="5.15" height=".52" transform="translate(-13.05 57.88) rotate(-48.3)"/>
      <rect class="cls-1" x="50.87" y="49.19" width="4.62" height=".46" transform="translate(-18.82 58.74) rotate(-50.28)"/>
      <rect class="cls-1" x="53.39" y="49.4" width="4.21" height=".5" transform="translate(-18.39 58.96) rotate(-49)"/>
      <rect class="cls-1" x="59.21" y="42.16" width="4.15" height=".51" transform="translate(-10.86 61.13) rotate(-49.23)"/>
      <path class="cls-1" d="M64.2,38.81c-.19.89-.71,1.3-1.35,1.66.23-.75.56-1.26,1.35-1.66Z"/>
      <path class="cls-1" d="M62.67,37.94c-.47.87-.69,1.25-1.29,1.43.18-.74.72-1.44,1.29-1.43Z"/>
      <rect class="cls-1" x="56.31" y="45.77" width="4.19" height=".5" transform="translate(-14.66 59.83) rotate(-48.94)"/>
      <path class="cls-1" d="M54.85,47.28c.24-.67.59-1.17,1.36-1.58-.22.75-.5,1.25-1.36,1.58Z"/>
      <path class="cls-1" d="M59.99,41.15c.1-.71.56-1.15,1.27-1.63-.07.78-.54,1.09-1.27,1.63Z"/>
      <path class="cls-1" d="M78.39,50.85c.37-.78.69-1.16,1.42-1.32.08.93-.89,1.11-1.42,1.32Z"/>
      <circle class="cls-1" cx="57.85" cy="77.6" r=".18"/>
    </g>
  </g>
</svg>