<?xml version="1.0" encoding="UTF-8"?>
<svg id="katman_1" data-name="katman 1" xmlns="http://www.w3.org/2000/svg" viewBox="0 0 128 128">
  <defs>
    <style>
      .cls-1 {
        fill: #e8bb00;
      }

      .cls-2 {
        fill: #6b5f77;
      }

      .cls-3 {
        fill: #06050e;
      }

      .cls-4 {
        fill: #e5f236;
      }

      .cls-5 {
        fill: #666;
      }
    </style>
  </defs>
  <path class="cls-1" d="M23.48,97.12c-2.15-1.85-2.36-6.07-.28-7.92,1.33-1.18,3.62-.54,5.03-1.56,3.83-2.76,7.66-4.91,12.03-6.83,16.69-7.33,26.91-19.7,31.37-37.36.99-3.92,2.22-7.46,4.42-10.81,1.63-2.48-.75-10.25-2.33-12.6-.66-.98-1.27-1.57-1.39-2.94-.06-.64-.65-1.25-.28-2,.23-.48.84-.72,1.46-1.13,2.5-1.67,5.65-1.88,8.17-.14,1.12,4.82-.85,4.41.66,8.4.94,2.48,1.45,6.14,3.92,7.73,3.75,2.42,6.99,5.05,8.68,9.44,1.94,5.02,2.49,10.42,1.6,15.96-3.46,21.46-20.74,40.45-41.81,46.24-6.07,1.67-12.15,2.17-18.25.9-3.18-.66-5.82-2.07-8.44-3.85-1.26-.85-3.2-.36-4.56-1.52ZM80.77,13.9c-2.73-1.62-5.89-.63-8.11,1.36,2.88.68,5.65.09,8.11-1.36ZM78.18,18.59c.14-.8-.27-1.45.11-2.25.87.4.09,1.02.56,1.66.14-.62.66-1.01.71-2.11.43.52.4,1.19.76,1.75,1.3-.77,1.32-2.3.66-3.43-2.67,1.99-5.32,2.33-8.44,1.52.24,1.24.57,2.2,1.35,3.11l.63-1.25c.3.38.32.78.66.89-1.52-.48,1.8.03,1.45.18.34-.15.33-.96.57-.94.52.03.51.8.98.87ZM29.72,87.99c-1.98.49-3.86,1.28-6.1,1.51-.06.76.48,1.06.29,1.81-.64-.19-.4-.74-.95-1.18-.58,1.68-.85,3.62.07,5.6,1.25-1.28.64-2.86.97-4.61,1.31,2.68-1.68,5.85,1.03,6.02,2.44.16,4.16,1.47,6.53,2.34-.38-1.73-2.23-1.17-2.93-2.44.04,0,7.26,3.28,5,1.91,3.51,2.14,7.9,1.68,12.24,1.53-1.22.78-2.87.79-4.13.68l-4.42-.41-6.05-1.7c.48,1.19,1.68,1.47,2.68,1.81,5.46,1.87,11.02,2.02,16.74.86,35.47-7.16,56.07-50.37,39.61-67.85-.78-.83-1.77-1.39-2.86-1.8-.17-.6-.91-.78-1.42-1.25-1.94-1.78-2.93-4.21-4.02-6.72-.73-1.7-.31-3.93-1.26-5.85l-3.64,1.84c-.55.23-1.53-.78-2.49-.18,1.52,3.93,2.89,7.89,2.57,12.15.92.37,1.83.29,2.18,1.12-.83-.02-1.75-1.12-2.4-.32-1.6,1.99-2.39,4.41-3.11,6.79l-2.29,7.57c-4.47,14.75-14.35,26.57-28.25,33.24-4.75,2.28-9.68,3.95-13.6,7.5Z"/>
  <path class="cls-4" d="M82.03,24.11c-.32.15-.39-.25-.78-.36-.16,1.34.43,2.27.92,3.32.39-1-.07-1.67-.14-2.96,1.09,2.51,2.08,4.94,4.02,6.72.51.47,1.25.65,1.42,1.25-.7.23-1.05-.64-1.79-.85-1.57-.44-3.87.22-4.44,1.99-1.31,1.31-1.54-8.86-3.13-9.97-.11,2.71,1.11,4.89,1.43,7.4.45,3.57-.09,6.97-.33,10.54-.43,6.55-2.59,12.25-4.74,18.35,5.18-7.27,5.18-21.37,6.77-26.31,1.56-1.56,3.53-2.26,5.5-.77.13.1.36.38.48.36.14-.03.31-.41.24-.72,1.09.41,2.07.97,2.86,1.8,16.46,17.48-4.14,60.69-39.61,67.85-5.73,1.16-11.29,1.02-16.74-.86-1-.34-2.21-.62-2.68-1.81l6.05,1.7,4.42.41c1.26.12,2.91.1,4.13-.68-4.34.14-8.72.61-12.24-1.53l7.32.96c1.14.15,2.3-.24,3.31-.62-7.15-.18-8.4-.35-15.19-2.94,1.24,1.03,2.68,1.79,4.55,2.6,2.25,1.37-4.96-1.91-5-1.91-.55-1-1.78-1.57-2.9-.76.47.75,2.2.77,2.9.76.7,1.27,2.55.7,2.93,2.44-2.38-.87-4.09-2.18-6.53-2.34-2.71-.18.28-3.35-1.03-6.02-.33,1.74.28,3.33-.97,4.61-.93-1.98-.66-3.92-.07-5.6.55.44.31.99.95,1.18.19-.76-.34-1.06-.29-1.81,2.23-.23,4.12-1.02,6.1-1.51-.05,1.74,2.02.22,3.06,1.38l4.52-2.23c-1.79.29-3.13,1.63-5.19,1.56l7.75-4.15c-.9-.59-1.43.92-2.29,0l9.16-4.24c.63-.29,8.3-4.85,8.23-5.6-3.64,2.13-6.8,4.64-10.58,6.28-1.21.52-2.43.62-3.55,1.38-1.28.86-2.84,1-4.32,2.13.2.51.81-.32,1.42.49-2.16,1-4.05,2.23-6.39,2.98.89-1.25,2.52-1.12,3.3-2.55l-5.11,2.59c3.92-3.55,8.85-5.22,13.6-7.5,13.91-6.68,23.79-18.49,28.25-33.24l2.29-7.57c.72-2.38,1.51-4.8,3.11-6.79.65-.81,1.57.3,2.4.32-.35-.83-1.27-.75-2.18-1.12.32-4.26-1.06-8.23-2.57-12.15.96-.6,1.95.41,2.49.18l3.64-1.84c.95,1.92.53,4.15,1.26,5.85ZM81.05,23.39c.16-1.34.1-2.3-.69-3.12-.4,1.3.41,2.14.69,3.12ZM76.91,38.61c-.16,1.38-1.07,2.29-.61,3.7.53-1.6.86-3.11,1.61-4.73-.62.13-.48.76-.89,1.07-.27-.69-.67-1.78-1.28-1.69-1.43,2.33-1.76,5.1-2.34,7.62-.2.89-1.08,1.8-.06,2.64.99-3.42,1.28-6.66,2.64-9.74.5,1.43-.85,2.44-.82,3.74.05,1.92-.99,3.49-.64,5.53,1.06-.67.96-8.65,2.4-8.14ZM83.04,37.01c0-.1-.08-.18-.18-.18s-.18.08-.18.18.08.18.18.18.18-.08.18-.18ZM80.62,50.3c.45-2.28,1.01-4.52,1.29-6.93l.69-5.87c-1.06,1.16-2.23,10.82-1.99,12.81ZM92.74,44.02c.59,3.79.69,7.24.04,10.94-.77,7.17-3.89,13.26-7.16,19.76,4.81-5.34,10.99-24.24,7.12-30.7ZM70.45,54.19l2.37-4.58c.39,1.94-1.59,2.74-.78,4.4l2.32-6.27-1.28,1.75c-.16-.24-.43-.78-.87-.66-.58,1.86-1.75,3.62-1.77,5.36ZM71.84,54.6c0-.13-.1-.23-.23-.23s-.23.1-.23.23.1.23.23.23.23-.1.23-.23ZM69.98,55.87c0-.1-.08-.18-.18-.18s-.18.08-.18.18.08.18.18.18.18-.08.18-.18ZM69.62,56.6c0-.1-.08-.18-.18-.18s-.18.08-.18.18.08.18.18.18.18-.08.18-.18ZM69.25,57.32c0-.1-.08-.18-.18-.18s-.18.08-.18.18.08.18.18.18.18-.08.18-.18ZM67.85,59.19c.74-.22.74-.83.99-1.33-.67.28-.6.88-.99,1.33ZM49.1,85.14c9.54-4.63,18.72-12.73,23.84-22.04-.2-.72.76-1.03.44-1.7-5.4,9.62-13.3,17.31-23.18,22.47-6.61,3.45-13.56,5.51-20.84,7.15-1.44.32-2.83-.34-4.2.48,5.27,1.21,19.09-4.01,23.94-6.36ZM65.03,64.64c.43-.3.46-.49.4-1.2l-.9.77c-.16.14.03.76.5.43ZM62.36,67.68c.76-.93,1.52-1.53,2.16-2.58-1.06.52-1.86,1.39-2.16,2.58ZM87.03,68.93c0-.1-.08-.18-.18-.18s-.18.08-.18.18.08.18.18.18.18-.08.18-.18ZM59.5,70.78c.74-.32,1.31-.72,1.28-1.36-.94.17-.8,1.05-1.28,1.36ZM83.26,75.23c1.58-1.77,2.5-3.74,3.26-5.77-1.3,2.01-2.41,3.75-3.26,5.77ZM56.2,73.28c1.54-.2,2.17-1.28,2.85-2.34l-2.85,2.34ZM57.73,73.86c-.54.37-.33.77.09.46.15-.11.2-.21.31-.34.26-.3-.04-.37-.4-.12ZM55.11,75.94c1.09.06,1.15-.65,1.65-1.13-.64.18-1.3.45-1.65,1.13ZM85.62,75.28c0-.22-.18-.4-.4-.4s-.4.18-.4.4.18.4.4.4.4-.18.4-.4ZM82.58,76.48c.49-.16.58-.43.46-.66-.11-.2-.33-.27-.55-.19-.25.09-.1.4-.29.67-.4.37-.11.44.38.18ZM84.89,76.36c0-.22-.18-.4-.4-.4s-.4.18-.4.4.18.4.4.4.4-.18.4-.4ZM80.5,81.44c-.96.26-1.16,1.42-1.9,2.1l-6.07,5.52c-6.47,4.6-13.17,7.64-20.8,10.37,7.6-1.47,15.11-5.2,20.8-10.37,2.91-2.06,5.82-4.38,7.97-7.62l3.65-4.31c-.47-.53-3.5,4.08-3.65,4.31ZM81.12,78.29c.49-.16.58-.43.46-.66-.11-.2-.33-.27-.55-.19-.25.09-.1.4-.29.67-.4.37-.11.44.38.18ZM79.41,79.99c-1.11.74-1.67,2.03-2.85,3.16,1.28-.69,2.09-1.93,2.85-3.16.34.02.63-.12.74-.52.05-.17.52-.34.22-.53-.8.27-.75.72-.96,1.05ZM44,82.79c1.87-.33,2.63-.96,3.38-1.93-1.23.83-2.68.89-3.38,1.93ZM56.53,83.3c-1.76.42-2.77,1.44-4.16,2.33,1.8.05,3-1.34,4.16-2.33ZM60.25,94.05c-.27.66.04.99.54.76,5.55-2.88,10.8-6.27,14.88-10.9-3.95,3.42-7.74,6.55-12.39,8.96-.87.45-1.39,1.61-3.02,1.18ZM35.16,85.25c.78.32,1.02-.1,1.03-.57-.36.35-.74.35-1.03.57ZM52.21,85.98c0-.1-.08-.18-.18-.18s-.18.08-.18.18.08.18.18.18.18-.08.18-.18ZM51.1,86.71c.31-.15-.28-.71-.64-.5-3.32,1.94-6.83,3.15-10.53,4.14-1.55.42-3.47.28-4.59,1.65,5.61-1.12,10.75-2.81,15.76-5.29ZM59.69,95.04c0-.13-.1-.23-.23-.23s-.23.1-.23.23.1.23.23.23.23-.1.23-.23Z"/>
  <path class="cls-3" d="M78.18,18.59c-.47-.07-.46-.84-.98-.87-.24-.01-.23.8-.57.94.35-.15-2.96-.66-1.45-.18-.34-.11-.36-.51-.66-.89l-.63,1.25c-.78-.91-1.11-1.87-1.35-3.11,3.11.81,5.77.47,8.44-1.52.66,1.13.64,2.65-.66,3.43-.35-.56-.33-1.23-.76-1.75-.05,1.1-.58,1.49-.71,2.11-.47-.64.31-1.26-.56-1.66-.38.8.03,1.45-.11,2.25Z"/>
  <path class="cls-3" d="M80.77,13.9c-2.46,1.45-5.24,2.04-8.11,1.36,2.22-1.99,5.38-2.98,8.11-1.36Z"/>
  <path class="cls-5" d="M49.1,85.14c-4.85,2.35-18.67,7.57-23.94,6.36,1.37-.82,2.75-.16,4.2-.48,7.29-1.64,14.23-3.7,20.84-7.15,9.89-5.16,17.78-12.85,23.18-22.47.32.67-.65.98-.44,1.7-5.11,9.31-14.29,17.41-23.84,22.04Z"/>
  <path class="cls-5" d="M81.24,33.23c-1.59,4.94-1.59,19.04-6.77,26.31,2.15-6.1,4.31-11.79,4.74-18.35.24-3.56.78-6.96.33-10.54-.32-2.51-1.53-4.69-1.43-7.4,1.59,1.12,1.82,11.28,3.13,9.97Z"/>
  <path class="cls-5" d="M92.74,44.02c3.87,6.46-2.32,25.36-7.12,30.7,3.27-6.49,6.39-12.59,7.16-19.76.65-3.7.55-7.15-.04-10.94Z"/>
  <path class="cls-5" d="M51.1,86.71c-5.01,2.48-10.15,4.17-15.76,5.29,1.12-1.37,3.04-1.24,4.59-1.65,3.7-1,7.21-2.2,10.53-4.14.36-.21.95.35.64.5Z"/>
  <path class="cls-5" d="M29.72,87.99l5.11-2.59c-.78,1.44-2.41,1.3-3.3,2.55,2.34-.75,4.23-1.98,6.39-2.98-.61-.81-1.22.02-1.42-.49,1.48-1.14,3.04-1.27,4.32-2.13,1.12-.75,2.35-.85,3.55-1.38,3.78-1.64,6.94-4.15,10.58-6.28.07.76-7.6,5.31-8.23,5.6l-9.16,4.24c.86.93,1.39-.59,2.29,0l-7.75,4.15c2.07.07,3.41-1.27,5.19-1.56l-4.52,2.23c-1.04-1.16-3.11.36-3.06-1.38Z"/>
  <path class="cls-5" d="M72.53,89.06c-5.69,5.18-13.2,8.9-20.8,10.37,7.63-2.73,14.33-5.77,20.8-10.37Z"/>
  <path class="cls-5" d="M33.65,98.96c-1.88-.81-3.31-1.57-4.55-2.6,6.79,2.59,8.04,2.76,15.19,2.94-1.01.38-2.17.77-3.31.62l-7.32-.96Z"/>
  <path class="cls-2" d="M80.62,50.3c-.25-1.99.93-11.65,1.99-12.81l-.69,5.87c-.29,2.41-.84,4.66-1.29,6.93Z"/>
  <path class="cls-5" d="M76.91,38.61c-1.43-.51-1.34,7.47-2.4,8.14-.35-2.04.69-3.61.64-5.53-.03-1.3,1.32-2.32.82-3.74-1.37,3.08-1.65,6.32-2.64,9.74-1.02-.84-.15-1.76.06-2.64.58-2.51.91-5.29,2.34-7.62.61-.09,1.01.99,1.28,1.69.41-.31.27-.93.89-1.07-.75,1.61-1.08,3.13-1.61,4.73-.46-1.4.45-2.32.61-3.7Z"/>
  <path class="cls-2" d="M87.47,32.09c.07.31-.11.69-.24.72-.12.02-.34-.26-.48-.36-1.97-1.48-3.94-.79-5.5.77.57-1.77,2.86-2.44,4.44-1.99.74.21,1.09,1.08,1.79.85Z"/>
  <path class="cls-5" d="M70.45,54.19c.02-1.74,1.19-3.5,1.77-5.36.43-.12.7.41.87.66l1.28-1.75-2.32,6.27c-.81-1.66,1.17-2.46.78-4.4l-2.37,4.58Z"/>
  <path class="cls-5" d="M44,82.79c.69-1.04,2.14-1.1,3.38-1.93-.74.97-1.5,1.6-3.38,1.93Z"/>
  <path class="cls-5" d="M28.64,97.05c-.7.01-2.43,0-2.9-.76,1.12-.81,2.35-.24,2.9.76Z"/>
  <path class="cls-5" d="M60.25,94.05c1.63.42,2.15-.73,3.02-1.18,4.65-2.41,8.44-5.54,12.39-8.96-4.07,4.63-9.33,8.02-14.88,10.9-.5.23-.8-.11-.54-.76Z"/>
  <path class="cls-2" d="M82.03,24.11c.06,1.29.53,1.96.14,2.96-.49-1.06-1.08-1.98-.92-3.32.39.11.47.51.78.36Z"/>
  <path class="cls-5" d="M83.26,75.23c.85-2.01,1.96-3.76,3.26-5.77-.76,2.03-1.69,4-3.26,5.77Z"/>
  <path class="cls-2" d="M81.05,23.39c-.29-.98-1.09-1.82-.69-3.12.79.82.85,1.78.69,3.12Z"/>
  <path class="cls-5" d="M55.11,75.94c.36-.68,1.01-.95,1.65-1.13-.51.47-.57,1.18-1.65,1.13Z"/>
  <path class="cls-5" d="M56.53,83.3c-1.17.98-2.36,2.37-4.16,2.33,1.39-.88,2.4-1.91,4.16-2.33Z"/>
  <path class="cls-5" d="M72.53,89.06l6.07-5.52c.74-.68.94-1.84,1.9-2.1-2.14,3.23-5.06,5.55-7.97,7.62Z"/>
  <path class="cls-5" d="M62.36,67.68c.3-1.19,1.1-2.05,2.16-2.58-.64,1.05-1.4,1.65-2.16,2.58Z"/>
  <path class="cls-5" d="M57.73,73.86c.37-.25.66-.18.4.12-.11.13-.16.23-.31.34-.42.3-.63-.09-.09-.46Z"/>
  <path class="cls-5" d="M80.5,81.44c.15-.23,3.18-4.84,3.65-4.31l-3.65,4.31Z"/>
  <path class="cls-5" d="M56.2,73.28l2.85-2.34c-.68,1.06-1.3,2.14-2.85,2.34Z"/>
  <path class="cls-5" d="M82.58,76.48c-.49.27-.77.19-.38-.18.19-.27.05-.58.29-.67.22-.08.44-.01.55.19.12.22.03.5-.46.66Z"/>
  <path class="cls-5" d="M79.41,79.99c.2-.33.16-.78.96-1.05.3.19-.17.36-.22.53-.11.4-.39.54-.74.52Z"/>
  <path class="cls-5" d="M81.12,78.29c-.49.27-.77.19-.38-.18.19-.27.05-.58.29-.67.22-.08.44-.01.55.19.12.22.03.5-.46.66Z"/>
  <circle class="cls-5" cx="84.49" cy="76.36" r=".4"/>
  <circle class="cls-5" cx="85.21" cy="75.28" r=".4"/>
  <path class="cls-5" d="M65.03,64.64c-.48.33-.66-.29-.5-.43l.9-.77c.06.7.03.9-.4,1.2Z"/>
  <path class="cls-5" d="M59.5,70.78c.48-.32.34-1.19,1.28-1.36.03.65-.54,1.04-1.28,1.36Z"/>
  <circle class="cls-5" cx="71.61" cy="54.6" r=".23"/>
  <path class="cls-5" d="M67.85,59.19c.39-.44.32-1.05.99-1.33-.25.49-.25,1.1-.99,1.33Z"/>
  <path class="cls-5" d="M79.41,79.99c-.76,1.23-1.58,2.47-2.85,3.16,1.18-1.12,1.75-2.42,2.85-3.16Z"/>
  <circle class="cls-2" cx="59.46" cy="95.04" r=".23"/>
  <circle class="cls-5" cx="52.02" cy="85.98" r=".18"/>
  <circle class="cls-2" cx="86.85" cy="68.93" r=".18"/>
  <circle class="cls-5" cx="69.07" cy="57.32" r=".18"/>
  <circle class="cls-5" cx="69.43" cy="56.6" r=".18"/>
  <circle class="cls-5" cx="69.8" cy="55.87" r=".18"/>
  <circle class="cls-2" cx="82.86" cy="37.01" r=".18"/>
  <path class="cls-5" d="M35.16,85.25c.29-.22.66-.22,1.03-.57,0,.47-.25.89-1.03.57Z"/>
</svg>