<?xml version="1.0" encoding="UTF-8"?>
<svg id="katman_1" data-name="katman 1" xmlns="http://www.w3.org/2000/svg" viewBox="0 0 128 128">
  <defs>
    <style>
      .cls-1 {
        fill: #e3e813;
      }

      .cls-2 {
        fill: #ededed;
      }
    </style>
  </defs>
  <path class="cls-2" d="M72.22,59.21c-.48-.3-.73-.87-.71-1.42.54.14.64.95.71,1.42Z"/>
  <path class="cls-2" d="M72.94,60.3c-.34-.34-.66-.6-.73-1.09.19.12.57-.02.66.26.09.29.09.56.06.83Z"/>
  <path class="cls-2" d="M82.76,68.61c.11.06.27.23.34.33.5.85,1.23,1.33,1.55,2.29-.05-.12-.38-.06-.46.06l-5.99-7.07c1.87,1.42,2.81,3.33,4.57,4.39Z"/>
  <path class="cls-2" d="M77.21,67.23c.23-.65-.77-.55-.68.06-.64-1.71-2.04-3.28-2.4-5.14.13.03,6.77,9.04,10.06,9.14-.02.44.58.32.46-.06.26.8,1.42,1.06,2.09,1.07.83.01.86-.51,1.11-1.1,1.33-3.14-3.51-7.07-4.94-9.56,2.79,1.22,7.54,8.37,5.31,10.82-1.31,1.44-4.57.11-5.56-.51-2.14-1.33-3.29-3.77-5.45-4.72Z"/>
  <path class="cls-2" d="M79.45,39.93c-.56.75-1.42,1.31-2.15,1.87.51-.81,1.2-1.68,2.15-1.87Z"/>
  <path class="cls-2" d="M45.76,69.06c-1.85.22-5.16,1.89-6.67-.11s1.49-5.84,3.28-7.27,3.54-2.29,5.2-3.83c-1.91-.07-7.04.72-8.1,1.92.57-2.01-5.95-.61-5.94-4.05,0-3.03,4.81-4.69,7.24-4.58-1.85,1.01-3.66,1.13-4.86,2.56-.47.56-1.51.59-1.57,1.75-.06,1.09.63,1.07,1.23,1.64.72.68,1.22.47,2.14.57,3.37.38,6.74-.07,10.2-.88,1.47-.34,2.99-.39,4.29-.85l.34.07-4.62,2.81c-.51.31-.48,1.22-1.02,1.47-1.08.49-1.96.94-2.57,1.77-.27.36-1.36.28-1.18,1.1-.15.11-.28.24-.39.38-2.01.3-4.42,4.33-2.85,5.36.26.17.7.16,1.1.16.13.02.27.32.47.25.11-.04.21-.13.29-.2,2.93.11,9.05-4.29,9.75-4.36-1.27,1.79-3.69,2.35-5.22,4.15"/>
  <path class="cls-2" d="M43.99,63.22c-.76.67-1.44,1.57-2.58,2.09.34-.69,1.05-.94,1.33-1.8.1-.05.22-.14.39-.38l.85.08Z"/>
  <path class="cls-2" d="M67.51,43.02c2.65.39,1.62.88,2.18.19.03-.22-.15-.37-.37-.32-.11-.33.17-.55.3-.75.59,1.03,2.11-2.92,1.99-2.54.26-.12.21.19.24.33-.39,1.29-.95,2.65-1.44,4,.33.45,1.05.46,1.41.57.08.03.18-.02.26-.01,0,.31.05.61.15.9-.44.16-.95-.05-1.35-.47-.53-.55-.97.31-1.25.22-.4-.14-.56-.83-.97-1.05-.37-.19-.67.43-1.03.4-.3-.03-.5-.58-.82-.64.15.03-2.32.4-2.36.44-.47.49.31,1.14.5,1.54-.31.26-.9-.11-1.18.23l-.58.73c-.26.33-.74.2-1.09.04-.04-.46.08-.97-.32-1.39-1.87,1.32-2.84,2.88-3.54,4.82.93.09,1.32-.29,2.03-.49-.12.97-.04,2.45-.01,3.36-.4-.07-.93-.1-1.25.22-.4.39-.12.92.38,1.15.31.14.83-.04,1.13-.32.3.12.9.13.98.4l.42,1.42c.31-.73.33-1.51,1.33-2.09.08.38.08.75.39,1.35.66-.16.67-.75,1.17-1.5-.24.73,2.72,2.19,1.9,2,.29.07.51-.45.66-.94.66-.2.28.63.7,1.19.3-.7.29-1.48.97-2.09.5.26.53.71.89,1,.17-.84.62-1.15,1.21-1.11.68-.13.81-1.11,1.46-1.42.36-.17,1.45.07,1.19-.59-.2-.14-1.04-.09-1.16-.35-.26-.56,1.4-1.63,1.14-2.62-.22-.82-.17-1.72-1.42-1.51.2-.69.26-1.3.23-1.98.21-.13.42-.25.66-.33.49,1.19,1.35,1.91,2.63,2.13-.39.15-1.02.21-1.07.94,5.85-1.76,17.74-6.53,19.89-12.51.16-.45-.08-.88-.15-1.23,0,.03-2.07-1.35-3.88-.6-3.49,1.45-6.69,3.29-9.74,5.48-.51.36-.97.65-1.45.74,2.44-3.27,8.29-9.37,8.02-13.36.24-.3-.27-.57-.36-.78-.19-.46-1.13-.82-1.84-.69s-.96.19-1.46.72c-.36.38-1.22.38-1.75.8-2.54,2.06-4.37,4.47-6.67,6.96.78-2.3,2.76-3.67,4.07-5.71.19-.29.04-.79.12-1.06.14-.44.94.04,1.31-.17,1.16-.65,4.55-3.69,6.46-1.99,2.49,2.22-.97,7.54-2.65,9.72-.48.62-1.11,1.23-1.17,2.17,2.44-1.3,8.82-5.46,11.18-3.13,1.94,1.92-.64,4.85-2.32,6.42-2.17,2.04-4.71,3.14-7.22,4.79l5.11-.6c2.51-.3,9.44-.71,9.97,2.46.76,4.59-9.57,5.77-12.84,5.89-.95.03-1.69.08-1.95,1.07-.51-1.42-1.66-.92-2.71-.9-2.55.03-4.92-.49-7.25-.14-.26.04-.58-.05-.85.08-.18.09-.4.53-.19.74.23.24.66.05,1.03.38-.36.34-.85.15-1.47.25-.47,1.1.53,1.28,1.11,1.67,4.09,2.82,14.41,7.24,18.91,6.47.55-.09,1.19.16,1.44-.59.31-.13.68-.33.75-.6.13-.51-.11-1.07-.45-1.36l.03-.57c.03-.5-.6-.74-1.09-.73-.27,0-.46-.16-.69-.24.11-.42.05-.92-.43-1.18l-3.76-2.03c2.68.26,8.11,2.8,7.15,6.33-.18.67-1.05,1.37-2.03,1.59-5.32,1.22-11.24-2.36-11.81-2.48l-2.36-.48c-.62-.13-6.7-5.14-8.26-3.78-.2.17-.43.21-.61.47-.31.44-.37.93-.4,1.47-.45-.11-1.38-.64-1.54,0-.1.76-.84.16-1.27.6-.21-.1-.47-.53-.68-.48-.44.1-.5.48-.43.92l.63,4c.76,4.82,1.51,9.1,4.54,13.19.6.81,1.18.96,2.14,1.28.44.14.48,1.14,1.12.9.37-.14,1.29-.18,1.21-.85l-.19-1.76c-.07-.68-.35-1.63-.82-2.14.13-1.54-.7-2.93-1.11-4.44h.38c1.02,2.48,1.37,5.1,2.03,7.88,1.79-.85-.69-8.77-1-9.59.09.26.54.07.68-.06-.22.57.04,1.14.28,1.82.92,2.56,2.84,8.55-.68,9.73-3.96,1.33-6.8-6.16-8.17-9.54-.51,2.03-1.14,4.3-.77,6.3-1.17.29-1.56,5.34-4.65,5.14-1.78-.11-2.51-2.08-2.93-3.58-.74-2.64.04-4.98-.17-8.02-2.07,2.93-3.42,5.67-6.02,7.89-1.31,1.12-3.84,1.6-4.63-.31-1.81-4.38,3.22-9.93,4.35-13,.46-1.25,1.61-2.82,2.9-2.87-1.7,3.18-4.64,6.05-4.82,8.95-1.23.67-2.65,5.19-1.82,6.23.32.4.44.68,1.08.95l.89.37c.29.12.42-.38.64-.54,2.43-1.25,4.04-3.36,5.5-5.79,3.8-6.29,2.68-6.37,4.98-12.14.12-.3-.03-.58-.17-.73-.1-.11-.35.03-.49-.03-.75-.34-1.63-1.28-2.4-.71-.82.6-1.13,1.79-2.44,1.93.55-.92,1.48-1.32,1.43-2.27-.02-.44.2-.84.28-1.42-.42-.1-.98-.1-1.22-.43-.3-.42-1.1-.78-1.6-.38.52-.64,1.11-1.57.8-2.51-.2-.62-.6-1.85-1.54-1.56-.34.11-.9-.18-1.26-.21l-.02-.31,3.01-.27c-.51-1.35-1.65-1.09-2.45-2.18,2.01-.56,4.38.75,2.69-.87l.04-.38c.39.09.78.38,1.39-.03-.32-.48-.67-.73-.86-1.13.6-.28.89-.49,1.31-.99.59-.69,1.09-1.58.36-2.63-2.68-3.88-8.85-13.27-13.19-14.13-.08-.05-.17-.21-.28-.2-.22.03-.36.19-.47.32-.5-.2-1.12-.46-1.5-.29-1.8.81-.23,4.94.9,6.56l3.15,4.51-.38-.04c-1.14-1.2-2.36-2.87-3.18-3.19.2-.17.01-.24-.04-.4-.33-1.08-3.98-5.85-.96-7.87s7.8,2.97,9.83,5.17c1.37,1.48,1.98,3.39,4.06,4.6-.2-3.23-1.57-5.85-1.92-8.86-.27-2.29-.28-7.13,2.42-7.88,4.41-1.22,6.16,8.16,6.88,11.19,1.29,5.45.17,11.55,2.15,11.83ZM56.62,26.57v.73c0,5.68,2.8,11.16,5.38,16.32.06.12.13.26.29.34.2.1.42-.06.48-.29.04,0,.13,0,.28,0,.36-.19.39-.57.61-1.15.23.3.35.71,1,.71.42,0,.88-.29.91-.92.4-6.64-.73-13.21-3.51-19.25-.31-.68-1.13-1.55-1.82-1.61-.14-.04-.43-.16-.7-.39-.23-.2-.3-.43-.56-.42-2.09.11-2.26,4.11-2.37,5.94ZM75.19,49.45c.02.6-.27,1.28-.15,1.88.11.48.74.1,1.33.15,5.38.48,17.65,1.06,22-3.06.19-.18.71-.16.74-.82.12-.19.35-.41.39-.6.09-.49-.12-.76-.71-.97-.16-.48-.42-.66-1.16-.91-4.74-1.6-8.38-.04-13.01-.12l-9.77,3.83c-.22.09.05.48.36.62ZM58.07,50.69c0-.1-.08-.18-.18-.18s-.18.08-.18.18.08.18.18.18.18-.08.18-.18ZM59.39,51.05c0-.13-.1-.23-.23-.23s-.23.1-.23.23.1.23.23.23.23-.1.23-.23ZM72.22,54.32c0-.1-.08-.18-.18-.18s-.18.08-.18.18.08.18.18.18.18-.08.18-.18ZM62.05,71.18h.44c-.17,1.37-.16,7.43-.24,7.44l-.7.02c.2.61.52.9.81,1.12.21.16.54-.04.79-.16.58.31.83.15,1.13-.05,3.72-2.54,4.69-16.25,2.36-20.27-.53.71-.33.33-.79-.43-.37,1.39-.18,2.67-.74,4.07-.54-1.72-.31-3.23-.64-4.81-1.22.77-.99,2.12-1.43,3.15-2,4.67-3.29,12.77-1.59,17.28.78-1.15.24-2.24.32-3.36l.28-3.99Z"/>
  <path class="cls-2" d="M73.31,60.66l-.36-.36.36.36Z"/>
  <path class="cls-2" d="M75.85,43.25c.14-.32.49-.55.73-.73-.2.19-.36.69-.73.73Z"/>
  <path class="cls-2" d="M75.85,43.25c-.31.72-1.04,1.1-1.68,1.49.01-.14-.15-.29-.17-.44.57-.44,1.1-.97,1.85-1.05Z"/>
  <path class="cls-2" d="M53.82,63.65c-.26-.1-.55-.09-.83-.09.04-.16-.06-.43,0-.55.12-.2.35-.26.54-.18.27.12.13.51.28.81Z"/>
  <path class="cls-2" d="M77.3,41.8c-.2.32-.14.81-.73.73-.11-.62.44-.51.73-.73Z"/>
  <path class="cls-2" d="M74.13,62.15c-.69-.17-.92-.8-.82-1.49.46.46.71.89.82,1.49Z"/>
  <path class="cls-2" d="M51.5,64.73c.36-.51.98-.84,1.49-1.17-.27.65-.8,1.1-1.49,1.17Z"/>
  <path class="cls-2" d="M46.26,61.96c-.51.64-1.59.65-2.28,1.26l.33-1.18c.49.2.83.02,1.38-.31.15.04.69-.17.57.24Z"/>
  <path class="cls-2" d="M84.86,88.9c.75.48,1.88-.69,2.37-1.3-1.29-.28-1.42.98-2.37,1.3,1.01-1.51,2.4-3.02,4.58-3.59-1.67,5.22-5.06,3.91-7.81,7.28-.24.29-.45.55-.3.98-1.85.54-3.45,1.36-4.98,2.73-1.98,1.77-4.39,2.84-6.41,5.22,2.65.53,5.19-.89,7.46-2.32.97-.61,1.75-1.57,3.02-1.15l-3.61,2.53c2.85.29,5.08-1.19,7.69-1.63.28-.05.52.57.35.66-2,1.11-3.31.37-5.49,1.54.8.66,1.63.63,2.06,1.37-1.95.57-3.37-.8-5.09-1.09-2.42-.41-4.72.88-6.95,1.65.53.06,1.4.31,1.81.09.11.52.5.9.75,1.36-1.31-.58-3.03-1.17-4.58-.56-4.83,1.92-5.77,9.34-7.29,9.16-.17-.02-.57-.2-.4-.56,2.15-4.62,4.23-9.05,5.68-13.92,1.65-5.54,2.81-11.02,2.88-16.6.64.28.16,1.05.48,1.85,1.26-1.17.14-5.53.82-6.16.55,8.88-1.57,17.58-4.7,26.53,2.18-.85,3.7-2.56,5.29-4,3.88-3.51.26-8.47,2.52-8.43.12,1.31-.05,2.52.4,3.76,1.66-2.1,1.3-4.34,1.49-6.79.65-.03.68.74,1.29.95l1.16-2.72c.14-.33.27-.42.51-.41.32.01.48.43.3.78l-1.81,3.51c.79.47,1.08-.46,1.86-.75-1,2.25-3.88,2.86-4.64,7.37,2.65-1.28,4.85-2.96,6.68-4.95,1.3-1.42,2.31-5.7,3.81-7.41l-.84,5.03c1.03-.3,1.5-1,2.02-1.33ZM68.99,84.85c-.21-.38-.4-.22-.45.2.06.84.49.74.45-.2ZM87.52,86.85c-.29.37.11.75.26.53.09-.14.41-.31.37-.43-.05-.17-.46-.32-.63-.1ZM82.01,91.31c0-.1-.08-.18-.18-.18s-.18.08-.18.18.08.18.18.18.18-.08.18-.18ZM80.56,93.13c0-.1-.08-.18-.18-.18s-.18.08-.18.18.08.18.18.18.18-.08.18-.18ZM72.94,97.84c0-.1-.08-.18-.18-.18s-.18.08-.18.18.08.18.18.18.18-.08.18-.18ZM69.91,101.83c0-.13-.1-.23-.23-.23s-.23.1-.23.23.1.23.23.23.23-.1.23-.23Z"/>
  <path class="cls-2" d="M43.21,39.35c.12.11.28.25.42.18.15-.07.27-.12.37-.19,1.5.8,3.07,1.44,4.65,2.06l-.06.42c-1.82-.62-10.21-3.06-11.28-1.49-.09.14-.18.18-.03.33-.65-.06-1.46-.04-1.7.64-.26.74,0,1.58.65,1.98.21.13.28.48.54.57,1.3,1.94,7.42,3.04,9.82,4.95-3.51,0-12.72-3.63-11.8-7.72.65-2.88,6.43-1.98,8.42-1.74Z"/>
  <path class="cls-2" d="M74.63,30.85l-.3.02c.05-.17,1.31-9.01-.18-9.86-.66.65.38,1.37-.51,1.68-.52-.97.1-1.71-.04-2.59-.08-.48-.7-.63-1.2-.62-.44.01-.83.42-.92.97-.34.06-.52.48-.75.68-2.23,1.86-2.39,4.96-3.64,7.82l.57-5.06c1.59-1.12,2.13-5.53,5.31-4.99,3.84.65,2.63,8.96,1.65,11.96Z"/>
  <path class="cls-2" d="M72.23,45.38c.1-.04.24-.01.34-.07.03.68-.03,1.29-.23,1.98,1.25-.21,1.2.69,1.42,1.51.26.99-1.4,2.06-1.14,2.62.12.26.96.21,1.16.35.26.66-.83.41-1.19.59-.65.31-.78,1.29-1.46,1.42-.08-1.82,2.37-1.38.57-3.09.49-1.03.06-2.75-.75-3.89-3.87.22-2.67-2.69-4.31-1.66-.09.05-.03.4-.07.47-.07.12-.28.14-.45.14-.34-.26-.34-.69-.6-1.06-.35.47-.11.84-.17,1.15-.1,0-.31-.07-.38,0-.19-.41-.97-1.05-.5-1.54.04-.04,2.51-.41,2.36-.44.32.06.53.62.82.64.36.03.66-.6,1.03-.4.42.22.58.92.97,1.05.28.1.72-.77,1.25-.22.4.42.91.63,1.35.47Z"/>
  <path class="cls-2" d="M70.73,21.12c.23-.19.41-.61.75-.68.27.59-.41,1.26.19,1.78.39-.36.05-.96.37-1.09.18-.07.46.17.51.31.21.56-2.51,7.47-2.27,9.67-1.81.95.91-3.25-.3-4.05-1.48,2-.87,7.9-2.28,9.95-.15-2.37.19-4.49.73-6.66l2.29-9.24ZM70.83,24.78c-.08-.45-.4-.45-.48,0,.05.84.43.84.48,0ZM70.44,26.09c-.21-.38-.4-.22-.45.2.06.84.49.74.45-.2Z"/>
  <path class="cls-2" d="M95.47,61.38c-.25.75-.89.49-1.44.59.08-.34-.28-.58-.75-.65-4.93-1.32-9.82-2.5-14.23-4.99,5.27,1.43,9.9,3.73,15.26,4.48.5.07.91.34,1.15.58Z"/>
  <path class="cls-2" d="M56.57,54.77c-1.11.88-2.89.61-4.03,1.23l-.34-.07c1.26-.46,2.31-1.46,3.75-1.56-.8-.68-1.43-.25-2.19-.23-.23-.69.4-.61.73-.96-.9-.48-1.58.33-2.37-.58,3.26-.78.43-.3,3.53-1.46.24-.09.41-.09.19-.43.94-.29,1.34.94,1.54,1.56.31.94-.28,1.87-.8,2.51Z"/>
  <path class="cls-2" d="M94.02,57.88c.23.08.42.25.69.24.26.38.67.58,1.09.73l-.03.57-3.37-1.35c-.79.2-1.69,1.09-2.68.16-.8-.75-2.23.05-2.76-1.09,1.89-.22,3.01,1.49,5.09.9-3.77-2.4-8.08-2.39-12.36-4.24,5.09.41,9.7,2.39,14.34,4.08Z"/>
  <path class="cls-2" d="M37.69,57.66c-.92-.1-1.43.11-2.14-.57.32-.3.88-.69,1.52-.72,5-.22,9.6-1.44,14.42-2.18-2.04,1.8-13.8,2.17-13.8,3.48Z"/>
  <path class="cls-2" d="M36.76,43.86c-.26-.09-.33-.45-.54-.57.1-.09.39-.27.69-.15,5.2,2.19,10.48,3.75,16.05,4.92.34.07.68-.3.77.09.06.26-.02.39-.18.55.04-.04-4.33-.67-6.15-1.29l-8.97-3.07c-.62-.21-1.14-1.02-1.67-.48Z"/>
  <path class="cls-2" d="M81.33,93.58c-.15-.44.06-.69.3-.98l7.54-.83c-4.7,4.16-6.14,1.32-7.84,1.81Z"/>
  <path class="cls-2" d="M35.89,53.7c4.41-.87,8.62-2.34,13.25-1.96-4.1,1.27-8.3.89-12.27,2.69.94.47,8.12-.83,7.97-1.03.12.16.27.36.18.54-.07.14-.38.33-.63.32-3.33-.17-7.63,2.21-8.5-.56Z"/>
  <path class="cls-2" d="M37.27,40.66c-.15-.15-.06-.2.03-.33,5.08.8,10.1,2.41,14.62,5.02-1.97-.52-3.83-1.1-5.67-1.93-2.99-1.34-6.04-1.87-8.99-2.76Z"/>
  <path class="cls-2" d="M75.5,52.37c0,1.33,1.13-.14,2.83,2.32-1.23.25-2.27.32-3.21.8-.58-.4-1.57-.57-1.11-1.67.62-.11,1.12.09,1.47-.25-.37-.34-.8-.14-1.03-.38-.2-.21,0-.64.19-.74.27-.13.58-.04.85-.08Z"/>
  <path class="cls-2" d="M74,44.3c.02.15.18.3.17.44-.02.15,0,.69.22.63.71-.68,1.42-1.13,2.3-.76.03.39-.25.72-.41,1.11.96.65,1.24-.52,2.42-.65-.66,1.03-1.76,1.62-2.85,2.04-1.28-.22-2.13-.94-2.63-2.13.05-.45.51-.48.78-.68Z"/>
  <path class="cls-2" d="M74.63,30.85c-.31.96-.31,2.11-.89,3.14s-.21,2.02-.23,2.98c-.03,1.18-1.38,2.02-1.66,2.96-.02-.14.02-.45-.24-.33l2.72-8.73.3-.02Z"/>
  <path class="cls-2" d="M69.53,77.76c-.69.63.44,4.98-.82,6.16-.32-.8.16-1.58-.48-1.85.03-2.22.04-4.33-.36-6.53.87-.22.33,1.98,1.66,2.22Z"/>
  <path class="cls-2" d="M69.62,42.14c-.13.2-.41.42-.3.75.07.21.07.45.37.32-.56.69.47.2-2.18-.19.52-1.51,1.29-2.83,1.27-4.74,1.29.98-.29,1.74.27,2.84.56-.27.11-1.09.99-1.16l-.41,2.18Z"/>
  <path class="cls-2" d="M72.94,29.11c-.68,3.12-1.12,6.07-2.38,8.88-.03-3.29,1.24-6,1.65-8.88h.73Z"/>
  <path class="cls-2" d="M45.05,34.84c.05.16.24.23.04.4-.8.08-2.44-.1-2.78.95-.5,1.53,1.5,1.95,1.69,3.16-.1.07-.22.12-.37.19-.14.07-.3-.07-.42-.18.36-.64-2.9-3.03-1.08-4,.91-.48,2.05-.21,2.92-.51Z"/>
  <path class="cls-2" d="M82.29,34.12c-2.09,1.55-3.75,4.13-5.97,6.17l3.78-5.07c.89-1.19,1.36-2.34,2.9-3.14.39.62.03,1.49-.71,2.04Z"/>
  <path class="cls-2" d="M72.94,29.11h-.73l1.18-6.33c0,2.15-.02,4.34-.45,6.33Z"/>
  <path class="cls-2" d="M73.33,103.7c.18.29.44.49.98.59,0,.37-.28.57-.55.68-.68-.09-1.19-.15-1.82-.43-.25-.46-.64-.84-.75-1.36.9-.6,1.47.27,2.15.51Z"/>
  <path class="cls-2" d="M73.76,104.98c.28-.12.55-.32.55-.68-.54-.1-.8-.31-.98-.59,1.06.38,2.45.24,3.47,1.49-1.21.86-2.09-.08-3.04-.21Z"/>
  <path class="cls-2" d="M84.19,69.37l-.35-.43c.07.16.31.26.35.43Z"/>
  <path class="cls-2" d="M85.28,70.04c-.51.05-.95-.15-1.09-.67.36.04,1.09.19,1.09.67Z"/>
  <path class="cls-2" d="M83.84,68.94c-.25-.02-.49-.02-.74,0-.06-.11-.23-.27-.34-.33.01-.35-.23-.57-.36-1.05.74.33,1.17.8,1.44,1.39Z"/>
  <path class="cls-2" d="M87.85,71.2c-.25.6-.28,1.11-1.11,1.1-.17-1.01-1.45-1.18-1.46-2.26.35-.03.66.35,1.13.1-.61-1.12-1.24-1.88-2.05-2.71.99-1.39-4.43-5.25-4.83-6.38,2.75,2.43,5.6,4.67,6.88,8.32.25.72,1.42,1.05,1.44,1.83Z"/>
  <path class="cls-2" d="M51.91,43.25c-1.07.1-2.38-1.11-3.32-1.43l.06-.42c1.17.46,2.54.79,3.26,1.85Z"/>
  <path class="cls-2" d="M57.84,46.49l-.04.38c-.78-.03-.94-.52-1.18-1.08.51-.02.97.26,1.22.7Z"/>
  <path class="cls-2" d="M54.08,44.34c-.75-.21-1.7-.39-2.18-1.09.62-.06,1.92.53,2.18,1.09Z"/>
  <path class="cls-2" d="M56.62,45.79c-1.11.03-2.21-.5-2.54-1.45.89.25,2.14.52,2.54,1.45Z"/>
  <path class="cls-2" d="M54.55,50.18l.02.31c-1.13-.11-2.38-.03-3.67-.76,1.43-.63,2.59.21,3.65.45Z"/>
  <path class="cls-2" d="M87.47,26.57c-.7.9-.72,2.2-2.13,2.83l1.77-3.6c.09.21.59.48.36.78Z"/>
  <path class="cls-2" d="M47.94,49.16v-.38c.8.21,1.43.19,2.06.77-.71.15-1.59.18-2.06-.39Z"/>
  <path class="cls-2" d="M72.52,55.85c1.28.7,2.46,1.7,3.55,3.15-1.22-.64-2.09-1.49-3.04-2.22.18.93,1.01,1.06.3,1.61-.63-.83-1.07-1.4-1.42-2.06.18-.25.41-.29.61-.47Z"/>
  <path class="cls-2" d="M85.28,25.1c-1.23,1.77-3.04,3.11-4.58,4.83.02-1.42,2.56-2.06,3.12-4.1.5-.53.77-.59,1.46-.72Z"/>
  <path class="cls-2" d="M83.46,31.69c0-1.2,1.09-1.27,1.78-1.88-.34.84-.47,1.83-1.78,1.88Z"/>
  <path class="cls-2" d="M47.94,48.79v.38c-.36-.14-.82.05-1.13-.31.47-.32.84-.14,1.13-.06Z"/>
  <path class="cls-2" d="M72.08,44.48c-.09,0-.18.04-.26.01.84-1.12,1.48-2.36,2.5-3.43-.56,1.35-1.32,2.47-2.24,3.42Z"/>
  <circle class="cls-2" cx="80.2" cy="30.56" r=".31"/>
  <path class="cls-1" d="M73.36,55.43c-.84-.06-1.49.37-1.73,1.57-.52-.41-.55-1.05-1.27-1.42-.97.87-.95,1.97-1.39,2.97-.6-.78-.05-1.98-1-1.69-.21.7-.51,1.44-.93,1.34,1.17.27-3.05-1.81-2.71-2.85-.72,1.06-.73,1.91-1.67,2.14-.45-.85-.44-1.38-.56-1.92-1.42.83-1.46,1.93-1.89,2.97l-.59-2.01c-.11-.38-.97-.39-1.39-.56.24-.51-.27-1.1-.37-1.49-.04-1.3-.15-3.4.02-4.77.46-.13,1.03.1,1.6-.18.63-.3-.14-1.11.15-1.82.12-.29,1.27.26,1.32,0,.15-.88-2.95-1.68-.44-2.18.5.22,1.18.4,1.55-.06l.83-1.03c.39-.49,1.24.04,1.68-.33.11-.09.4.02.55.01.36-.02.74-.13,1.1-.12.24,0,.54-.02.64-.2.06-.1-.02-.6.11-.68,2.33-1.46.64,2.68,6.14,2.36,1.15,1.63,1.77,4.08,1.07,5.54,2.56,2.43-.93,1.8-.81,4.4Z"/>
  <path class="cls-2" d="M98.77,46.02c-3.85.09-7.67.43-11.69,1.07-1.78.28-3.44,1.36-5.19.61,5.17-1.46,10.17-1.88,15.32-2.3.27-.02.42-.14.4-.29.74.25,1,.43,1.16.91Z"/>
  <path class="cls-2" d="M62.09,46.82c-1.76.35.42.91.31,1.53-.03.18-.84-.2-.93,0-.2.5.34,1.07-.1,1.28-.4.19-.8.03-1.13.12-.71.2-1.09.58-2.03.49.7-1.94,1.67-3.5,3.54-4.82.4.42.28.93.32,1.39Z"/>
  <path class="cls-2" d="M76.36,51.48c-.59-.05-1.22.33-1.33-.15-.12-.6.17-1.28.15-1.88,1.34-1.09,3.04-.93,4.87.01-1.01.72-2.24,1.61-3.78,1.45-.11.24.09.43.08.57Z"/>
  <path class="cls-2" d="M50.09,75.96c-.83-1.05.6-5.56,1.82-6.23,1.62-.89,1.14-2.9,1.99-2.54.8.33-.92,1.1-1.56,3.47.22.03.52-.23.83.12-2.04,2.18-2.14,5.37-3.08,5.19Z"/>
  <path class="cls-2" d="M58.17,55.15c.24.33.8.33,1.22.43-.08.57-.3.98-.28,1.42l-3.87,2.25c-.03-.77.8-.68.84-1.35-.59-.28-.87.33-1.51.33.36-.93,1.29-1.33,2.43-1.64l-.49-.77c.47-.51,1.08-.61,1.66-.68Z"/>
  <path class="cls-2" d="M68.71,58.39c.43-.44,1.17.16,1.27-.6,1.31.83,1.33,2.72.56,4.07l-1.83-3.47Z"/>
  <path class="cls-2" d="M63.91,79.03l.36.13.02.39c-.3.2-.55.36-1.13.05.14-2.4-.41-4.83.58-7.37.67,1.54-.52,6.55.18,6.8Z"/>
  <path class="cls-2" d="M62.52,58.05c.02.9-.53,1.81-1.31,2.3-1.05-.93-.27-2.97-1.09-3.01.78-.57,1.65.37,2.4.71Z"/>
  <path class="cls-2" d="M64.67,43.22c-.65,0-.77-.41-1-.71-.22.57-.25.95-.61,1.15.16-1.28-.26-2.67.6-4.07.79,1.11.94,2.42,1.01,3.63Z"/>
  <path class="cls-2" d="M52.69,76.75c-.22.16-.35.66-.64.54l-.89-.37c-.3-1.05,1-2.53,1.79-3.59.18.98-.75,1.27-.68,2.17,1-.17,1.2-1.18,2.16-1.45-.52,1.17-1.73,1.56-1.75,2.71Z"/>
  <path class="cls-2" d="M48.27,38.43l.38.04c1.21.75,2.17,1.88,3.06,3.09-1.55-.78-2.42-2.07-3.43-3.13Z"/>
  <path class="cls-2" d="M59.68,44.34c-.42.5-.71.71-1.31.99-1.04-.71-2.18-1.4-2.86-2.75.89.46,1.38,1.22,2.48,1.15.57.39,1.13.61,1.69.61Z"/>
  <path class="cls-2" d="M60.24,53.12c.07.27.43.69.26,1.05-.3.28-.82.47-1.13.32-.5-.23-.78-.77-.38-1.15.32-.31.86-.28,1.25-.22Z"/>
  <path class="cls-2" d="M56.62,27.29v-.73c.12.01.89-.15.94.09.2,1.1.61,2.02.42,3.22-.6-.25-.28-3.05-1.35-2.59Z"/>
  <path class="cls-2" d="M46.85,27.58c0,.73.7,1.14,1.26,1.69,3.36,3.31,6.42,6.67,8.81,10.68-3.8-4.68-6.59-8-10.82-12.26.11-.13.25-.29.47-.32.11-.01.2.15.28.2Z"/>
  <path class="cls-2" d="M60.25,21.44c-.03.19.15.44-.18.79l-.52-1.18c.27.24.55.36.7.39Z"/>
  <path class="cls-2" d="M62.78,43.67c-.06.23-.28.38-.48.29-.16-.08-.23-.22-.29-.34l.77.06Z"/>
  <circle class="cls-2" cx="59.16" cy="51.05" r=".23"/>
  <circle class="cls-2" cx="72.04" cy="54.32" r=".18"/>
  <circle class="cls-2" cx="57.89" cy="50.69" r=".18"/>
  <path class="cls-2" d="M69.68,43.21c-.3.13-.3-.11-.37-.32.22-.05.39.1.37.32Z"/>
  <path class="cls-2" d="M84.86,88.9c.95-.31,1.09-1.58,2.37-1.3-.5.6-1.63,1.78-2.37,1.3Z"/>
  <path class="cls-2" d="M87.52,86.85c.17-.23.58-.07.63.1.03.11-.28.29-.37.43-.15.22-.54-.15-.26-.53Z"/>
  <path class="cls-2" d="M68.99,84.85c.05.93-.39,1.04-.45.2.05-.42.24-.58.45-.2Z"/>
  <circle class="cls-2" cx="69.68" cy="101.83" r=".23"/>
  <circle class="cls-2" cx="80.38" cy="93.13" r=".18"/>
  <circle class="cls-2" cx="81.83" cy="91.31" r=".18"/>
  <circle class="cls-2" cx="72.76" cy="97.84" r=".18"/>
  <path class="cls-2" d="M41.75,69.09c-.08.07-.18.17-.29.2-.21.07-.34-.23-.47-.25-.87-.53,4.41-2.45,5.03-3.35,1.91-1.15,3.49-2.6,5.55-3.5-2.63,2.41-5.68,4.1-8.75,6.01-.46.29-.99.35-1.07.88Z"/>
  <path class="cls-2" d="M66.1,45.75c-.26,0-.52.07-.77.08.06-.3-.18-.67.17-1.15.26.37.26.8.6,1.06Z"/>
  <path class="cls-2" d="M70.44,26.09c.05.93-.39,1.04-.45.2.05-.42.24-.58.45-.2Z"/>
  <path class="cls-2" d="M70.83,24.78c-.05.84-.43.84-.48,0,.08-.45.4-.45.48,0Z"/>
  <path class="cls-2" d="M54.42,73.81c.39-1.89,1.44-3.39,2.59-4.81.83-1.32,1.13-2.79,2.13-3.99-.51,2.05-1.61,3.64-1.78,5.72-.99,1.04-1.12,2.49-2.95,3.08Z"/>
  <path class="cls-2" d="M46.26,61.96c.12-.41-.42-.19-.57-.24,1.64-.99,3.27-2.36,5.27-2.78-1.49,1.55-3.55,1.57-4.7,3.01Z"/>
  <path class="cls-2" d="M51.18,58.81c.4-.65,1.18-1.21,1.82-.89l-1.82.89Z"/>
  <path class="cls-2" d="M54.11,66.67c.3-.33.49-.7,1.03-.93-.13.47-.38.8-1.03.93Z"/>
  <rect class="cls-2" x="49.19" y="31.67" width=".59" height="9.13" transform="translate(-11.66 41.01) rotate(-40.68)"/>
  <rect class="cls-2" x="45" y="29.29" width=".53" height="3.38" transform="translate(-9.57 32.39) rotate(-35.86)"/>
  <path class="cls-2" d="M54.67,42.12c-.73-.63-1.46-1.18-2.02-2.11.79.54,1.49,1.08,2.02,2.11Z"/>
  <path class="cls-2" d="M63.38,34.94c-1.26-4.23-2.06-8.16-3.07-12.51,1.94,3.88,2.99,8.14,3.07,12.51Z"/>
  <path class="cls-2" d="M60.39,35.6c-.62-2.35-3.51-10.81-2.44-13.39.64,3.21.96,6.46,1.95,9.76.33,1.1.97,2.08.49,3.63Z"/>
  <path class="cls-2" d="M60.48,29.06c-.67-.81-.39-1.99-.76-3.07-.47-1.38-1.33-2.55-.79-4.19.42.62.57,1.34.66,2.15.53,1.58,1.23,3.02.89,5.1Z"/>
  <circle class="cls-2" cx="58.25" cy="30.56" r=".23"/>
  <path class="cls-2" d="M71.13,68.61c-.49-3.07,3.46,9.73,2.55,5.85.08.34-.39.48-.55.36-.41-.32-1.81-5.09-2-6.21Z"/>
  <path class="cls-2" d="M76.23,73.45c.47.52.74,1.47.82,2.14-.36.19-.34.77-1.06.52-.28-2.59-.96-4.9-1.85-7.09,1.51,1.26,1.01,3.22,2.09,4.42Z"/>
  <path class="cls-2" d="M75.5,69.01h-.38c-.39-1.46-1.52-2.67-1.75-4.37.9,1.42,1.52,2.89,2.13,4.37Z"/>
  <circle class="cls-2" cx="73.13" cy="63.93" r=".23"/>
  <circle class="cls-2" cx="70.95" cy="62.3" r=".18"/>
  <path class="cls-2" d="M89.25,39c2.35-.45-10.02,7.53-9.94,5.94,3.41-2.01,6.81-3.4,9.94-5.94Z"/>
  <path class="cls-2" d="M89.48,36.04c-2.93,1.54-5.23,3.52-8.18,4.74,2.12-1.93,4.65-2.98,7.02-4.62,1.3-.9,2.57-1.88,4.29-1.99-.74,1.03-1.95,1.25-3.12,1.86Z"/>
  <path class="cls-2" d="M90.79,38.45c-.47.94-1.29.12-.36-.36.57-.34.72-.2.36.36Z"/>
  <circle class="cls-2" cx="91.62" cy="37.63" r=".18"/>
  <path class="cls-2" d="M64.27,79.16l-.36-.13c.85-2.95,1.62-6.04,1.85-9.31.09-1.22-.43-2.4.65-3.31-.12,6.28.54,7.28-2.14,12.75Z"/>
  <path class="cls-2" d="M62.5,71.18h-.44c.14-2.22.31-4.52,1.35-6.6.09,2.42-.65,4.5-.91,6.6Z"/>
  <path class="cls-2" d="M89.84,50.18c-.87-.14-9.01,1.29-8.53.11-.07.17,12.05-1.13,13.67-1.62-.08,1.75-4.45,2.95-5.13,1.5Z"/>
  <path class="cls-2" d="M94.49,47.13c-2.38,1.05-4.55,1.23-6.94,1.38,2.32-1.27,4.62-1.07,6.94-1.38Z"/>
</svg>