<?xml version="1.0" encoding="UTF-8"?>
<svg id="katman_1" data-name="katman 1" xmlns="http://www.w3.org/2000/svg" viewBox="0 0 128 128">
  <defs>
    <style>
      .cls-1 {
        fill: #73d8dd;
      }
    </style>
  </defs>
  <path class="cls-1" d="M77.53,85.85c-6.98,3.83-15.02,3.11-21.11-1.42-6.05-4.5-8.68-12.17-7.11-19.76.81-3.92,2.27-7.47,4.29-10.91l5.9-10.04c3.52-5.99,6.01-12.16,7.64-18.97.5-2.11-.25-4.29,1.13-6.41,1.8,9.37,4.61,17.72,9.05,25.72l5.7,10.28c1.88,3.39,3.33,6.9,4.02,10.73,1.5,8.32-1.95,16.64-9.49,20.78ZM50.02,65.52c-1.93,10.89,5.48,20.62,16.03,21.74s19.78-6.57,20.38-17.4c.46-8.15-4.14-15.29-8.16-22.25-4.68-8.08-8.01-16.47-9.89-25.86-.95,1.77-.78,3.65-1.23,5.54-1.43,5.95-3.74,11.45-6.81,16.7l-6.3,10.77c-1.96,3.36-3.31,6.72-4.02,10.76Z"/>
  <path class="cls-1" d="M81.26,94.61c-1.27-1.86-3.3-1.26-5.04-2.07,1.76-.21,4.65.04,5.28,1.95.32.98-1.68,1.87-2.57,2.05-7.83,1.6-15.84,1.48-23.6-.29-.84-.19-2.32-1.25-1.69-2.06,1.1-1.44,3.4-1.84,5.09-1.74-1.37,1.29-3.65.34-4.48,2.05-.3.62,1.32,1.29,1.97,1.41,7.01,1.32,14.1,1.46,21.14.4,1.4-.21,2.76-.61,3.91-1.7Z"/>
  <path class="cls-1" d="M35.71,93.33l.02.28c-1.12.77-1.89,1.84-2.01,2.82-.43,3.47,5.2,5.5,8.17,6.5,5.9,1.99,11.97,2.73,18.03,3.1-.12.19-.21.41-.25.64-7.23-.59-18.54-1.88-24.24-6.15-1.14-.86-2.26-2.13-2.32-3.59-.07-1.71,1.32-2.93,2.6-3.61Z"/>
  <path class="cls-1" d="M62.24,101.68l-.06-.66c7.45.75,14.72.15,21.94-1.24,2.01-.39,9.4-2.12,7.2-5.3.92.16.93.94.92,1.56-.07,3.73-13.88,5.58-17.3,5.6l-12.7.05Z"/>
  <path class="cls-1" d="M54.24,100.2v.38c-2.66-.13-10.53-1.69-10.9-4.64-.3-2.41,5.22-4.52,7.1-4.14-1.89.83-6.75,1.7-6.45,4.23s8.27,3.75,10.25,4.17Z"/>
  <path class="cls-1" d="M92.1,104.07c-5.74,1.85-11.71,2.69-17.75,2.34,6.07-.55,11.65-1.47,17.75-2.34Z"/>
  <path class="cls-1" d="M93.23,103.65c2.62-1.46,9.12-2.99,9.16-6.83.01-.98-.74-1.86-1.53-3.02,1.29.22,1.89,1.69,2.08,2.74.61,3.51-6.37,6.94-9.71,7.11Z"/>
  <circle class="cls-1" cx="68.05" cy="107.3" r="1.34"/>
  <path class="cls-1" d="M62.18,101.02l.06.66c-2.88.01-5.52-.53-7.99-1.1v-.38c2.84.61,5.38.56,7.93.81Z"/>
  <path class="cls-1" d="M88.36,92.53l-.02.33-5.72-1.79c2.14-.22,4.1.58,5.74,1.45Z"/>
  <path class="cls-1" d="M97.67,91.98c-1.57-.43-3.16-.73-4.57-1.65,1.66-.03,3.3.37,4.57,1.65Z"/>
  <path class="cls-1" d="M88.34,92.87l.02-.33c.99.53,2.17.23,2.45,1.36-1.01-.19-1.66-.79-2.47-1.03Z"/>
  <path class="cls-1" d="M59.67,106.67c.04-.23.12-.44.25-.64,1.15.07,1.98-.37,2.95.39-1.12.62-2.21.32-3.19.24Z"/>
  <path class="cls-1" d="M50.02,65.52c.72-4.04,2.06-7.4,4.02-10.76l6.3-10.77c3.07-5.25,5.38-10.75,6.81-16.7.45-1.89.29-3.77,1.23-5.54,1.88,9.39,5.21,17.79,9.89,25.86,4.03,6.96,8.62,14.1,8.16,22.25-.61,10.83-9.84,18.52-20.38,17.4s-17.96-10.85-16.03-21.74ZM70.8,37.11c.41-1.54-.54-2.12-.78-3.29-.35,1.15-.08,2.5.78,3.29ZM72.98,45.77c.01-1.87-.96-2.89-1.28-4.38-.08-.31-.08-.64.09-.81.47-.46,1.33,1.45-.54-3.17-1.07.4.64,2.09.42,2.4l-.68.96c-.79,1.12,1.11,3.51,1.98,4.99ZM77.68,51.64c-1.45-3.61-2.93-7.25-5.32-10.67,1.16,3.93,3.13,7.21,5.32,10.67ZM73.52,46.07l-.73.36,1.6,3.19.73-.36-1.6-3.19ZM60.42,50.35c0-.1-.08-.18-.18-.18s-.18.08-.18.18.08.18.18.18.18-.08.18-.18ZM53.62,64.64c-.22.35-.29.74-.39,1.42-1.81,11.5,9.48,17.16,10.81,14.43s-2.48-2.13-4.99-6.94c-3.77-7.21-.93-14.53,1.93-21.62-1.42.63-1.24,2.25-1.78,3.44-2.51,5.44-3.54,11.59-1.14,17.23s6.64,5.62,5.74,7.15c-1.54,2.6-11.49-2.33-9.97-13.7.05-.37.06-.76.19-1.38.76-3.55,2.3-6.87,4.14-10.17.66-1.18,1.47-2.18,1.69-3.53-2.42,3.51-5.69,9.28-6.22,13.68ZM79.2,54.44c-.26-1.17-.27-2.26-1.34-2.56-.07,1.23.89,1.78,1.34,2.56ZM83.07,73.61s.54-.17.77-.29c.34-.18-.08-1.06-.02-1.35,1.08-4.98-1.03-10.91-1.1-10.92-.27-.05-.41.02-.55.19-.25.31.22.39.32.7,1.26,3.73,1.59,7.66.57,11.68ZM81.18,73.78c1.07-1.13,1.4-2.56.62-3.95-.49,1.43-.6,2.56-.62,3.95ZM78.59,78.79c.91-1.26,2.03-2.17,2.39-4.2-.69,1.36-1.79,2.42-2.39,4.2ZM78.62,81.24c1.82-1.32,3.34-2.76,3.8-4.86l-3.8,4.86ZM77.42,80.27c0-.17-.14-.31-.31-.31s-.31.14-.31.31.14.31.31.31.31-.14.31-.31ZM76.03,80.46c-1.95,1.71-4.14,2-6.34,2.76.18,1.14,9-2.47,6.34-2.76ZM78.01,82.05c.37-.77-.03-.72-.66-.24-.45.57,0,.67.66.24ZM76.74,82.81c.05-.24-.12-.41-.36-.36-4.46,2.6-9.4,2.76-14.75,1.19,4.55,3.2,10.56,1.73,15.12-.83Z"/>
  <path class="cls-1" d="M53.23,66.06l.6-.02c-1.52,11.37,8.42,16.3,9.97,13.7.9-1.52-3.22-1.23-5.74-7.15s-1.37-11.79,1.14-17.23c.55-1.19.36-2.81,1.78-3.44-2.86,7.1-5.7,14.41-1.93,21.62,2.51,4.81,6.36,4.15,4.99,6.94s-12.62-2.93-10.81-14.43Z"/>
  <path class="cls-1" d="M54.02,64.66l-.4-.02c.53-4.4,3.8-10.17,6.22-13.68-.22,1.35-1.03,2.35-1.69,3.53-1.84,3.3-3.37,6.61-4.14,10.17Z"/>
  <path class="cls-1" d="M76.74,82.81c-4.55,2.56-10.57,4.02-15.12.83,5.36,1.57,10.29,1.41,14.75-1.19.11.13.23.25.36.36Z"/>
  <path class="cls-1" d="M83.07,73.61c1.02-4.02.7-7.95-.57-11.68-.1-.3-.57-.39-.32-.7.13-.17.28-.24.55-.19.07.01,2.19,5.93,1.1,10.92-.06.29.36,1.17.02,1.35-.23.13-.72.34-.77.29Z"/>
  <path class="cls-1" d="M77.68,51.64c-2.18-3.46-4.15-6.74-5.32-10.67,2.38,3.42,3.87,7.07,5.32,10.67Z"/>
  <path class="cls-1" d="M76.03,80.46c2.66.29-6.15,3.91-6.34,2.76,2.2-.76,4.39-1.05,6.34-2.76Z"/>
  <path class="cls-1" d="M72.98,45.77c-.87-1.48-2.77-3.87-1.98-4.99l.68-.96c.22-.31-1.49-2.01-.42-2.4,1.87,4.62,1,2.71.54,3.17-.17.17-.18.5-.09.81.32,1.49,1.29,2.51,1.28,4.38Z"/>
  <path class="cls-1" d="M78.59,78.79c.6-1.77,1.71-2.84,2.39-4.2-.36,2.03-1.48,2.94-2.39,4.2Z"/>
  <path class="cls-1" d="M81.18,73.78c.01-1.4.12-2.52.62-3.95.79,1.4.46,2.82-.62,3.95Z"/>
  <rect class="cls-1" x="73.55" y="46.06" width=".81" height="3.57" transform="translate(-13.59 38.12) rotate(-26.57)"/>
  <path class="cls-1" d="M78.62,81.24l3.8-4.86c-.46,2.1-1.98,3.54-3.8,4.86Z"/>
  <path class="cls-1" d="M70.8,37.11c-.86-.79-1.13-2.14-.78-3.29.24,1.16,1.19,1.74.78,3.29Z"/>
  <path class="cls-1" d="M54.02,64.66c-.13.62-.14,1.01-.19,1.38l-.6.02c.11-.68.18-1.07.39-1.42l.4.02Z"/>
  <path class="cls-1" d="M79.2,54.44c-.45-.78-1.41-1.33-1.34-2.56,1.07.3,1.08,1.39,1.34,2.56Z"/>
  <path class="cls-1" d="M78.01,82.05c-.66.42-1.11.33-.66-.24.63-.47,1.03-.53.66.24Z"/>
  <path class="cls-1" d="M76.74,82.81c-.13-.11-.25-.23-.36-.36.24-.05.41.12.36.36Z"/>
  <circle class="cls-1" cx="77.11" cy="80.27" r=".31"/>
  <circle class="cls-1" cx="60.24" cy="50.35" r=".18"/>
</svg>