<?xml version="1.0" encoding="UTF-8"?>
<svg id="katman_1" data-name="katman 1" xmlns="http://www.w3.org/2000/svg" viewBox="0 0 128 128">
  <defs>
    <style>
      .cls-1 {
        fill: #6b5f77;
      }

      .cls-2 {
        fill: #d8d8d8;
      }

      .cls-3 {
        fill: #9e8dab;
      }
    </style>
  </defs>
  <path class="cls-3" d="M89.64,83.08c-1.29,7.41-3.81,14.36-8.23,20.41-1.02,1.4-3.17,2.19-4.85,2.66-8.78,2.42-18.05,2.37-26.73.05-3.53-.94-5.47-2.87-7.11-5.91-4.34-8.08-6.89-16.79-6-26.06,1.49-15.65,12.41-25.26,7.21-38.2-2.27-5.67-6.99-4.44-5.19-7.04,2.35-3.4,5.89-3.46,9.57-3.71,6.72-.46,13.15-1.75,19.91-1.29,3.31.23,14.83.81,16.52,3.57.43.71.42,1.66.02,2.47-.87,1.77-3.92,7.99-2.41,9.06.33.23.84.06,1.4-.32,4.65-3.15,10.97-3.39,15.27.46,3.12,2.8,4.68,6.83,5.19,10.95,1.11,9.11-2.82,16.86-7.94,23.94-3.83,5.3-1.33,6.52-3.39,8.35-.76.68-1.73.84-3.23.59ZM81.71,27.99c.41-.01.58.5,1.06.69.2.08,2.97-1.49-4.45-2.91-10.01-1.91-19.97-1.14-30.01.29-2.53.36-5.19-.43-7.01,1.73-.44.52-1.9.44-1.58,1.74.77-1.37,1.83-1.19,3.13-1.14,2.69.11,5.16.22,7.81.9,9.91,2.52,20.05,2.51,30.03.44.38-.08.65-.56.86-.65.42-.17.24-.72.16-1.09ZM41.34,31.23c.44.77,1.18,1.51,2.09,1.58l.18.6c.08.26.05.51.22.61.9.5,1.31-.64,1.55-.1.06.14.42.29.34.4-.17.22-.79.09-1.49.25,2.42,5.02,2.62,10.85.7,16.24l-3.3,9.29c2.66-1.99,5.43-2.02,8.13-2.5v.37c-.31.04-8.02,1.5-7.27,2.75l4.19.08c-.51,1.11-1.41-.29-2.14.69,7.77,3.62,30.92,3.31,37.96-.06.23-.11.55,0,.7-.14.29-.29.25-.61.2-.89-.24-1.21-1.07-.98-1.71-1.23-1.52-.6-3.22-.49-4.84-1.54,2.78.03,5.3.92,7.76,2.25l-3.63-10.19c-1.1-3.08-.7-6.61-.4-9.85.34-3.7,1.94-6.61,3.48-10.43-10.48,3.43-23.55,3.15-34.15.46-3.34-.85-6.67-.62-10.09.2.25,1.05,1.06.77,1.52,1.16ZM94.4,75.06c.92-1.43,2.27-2.68,2.91-4.3.08-.22.47-.46.51-.73,1.09-.84,1.71-2.38,2.32-3.63.11-.22.06-.49.07-.72,2.02-2.91,2.59-6.64,3.23-10.18.04-.23,0-.49,0-.72-.08-2.71.32-5.63-1.1-7.98.02-.12-.01-.24,0-.36.03-.25-.17-.52-.24-.73.17-.82-.59-1.48-.88-2.15-2.4-5.47-8.84-7.91-14.46-5.51-.74.32-5.17,2.37-4.44,3.73-.68-.58-.15-1.24-.66-1.93-.96,1.28-.51,10.21,1.65,9.74,1.31-.28-.79-5.8,5.41-7.71,4.14-1.27,8.15.77,9.62,4.93,2.61,7.39-.38,17.79-6.06,22.55-.5.42-1.49.05-1.54.82-.04.65.2,1.11.84,1.83-1.76,1.05-1.33-4.36-2.31-1.4.64,3.79.62,7.32.69,10.99.02.86,1.4.88,1.95.67,2.25-.86.48-4.06,2.51-7.21ZM88.87,68.94c1.28-.21,2.34-.12,3.49-.47,5.18-5.26,8.15-15.47,4.87-22.28-.96-2-2.72-3.45-4.57-3.87-2.09-.47-4.08.04-5.83,1.26-4.72,3.28.19,6.05-4.49,6.87,1.75,6.4,5.02,11.73,6.53,18.48ZM49.08,104.42c-.08.26.14.58.49.69,7.38,2.45,19.43,2.36,26.65.1.33.09.5-.11.73-.26.23-.16.62-.13.73-.48.34.05.51-.16.73-.36.53.68,3.88-2.63,3.63-3.73-6.92,3.53-20.61,4.49-28.06,2.48,7.25.24,14.3.86,21.44-.95,2.61-.66,5.15-1.3,7.32-2.89.64-.47,3.1-4.98,2.53-5.49,4.35-7.78,4.44-17.75,2.12-26.49-.12-.46-.31-.71-.61-.66.52-1.13-.27-2.53-1.07-3.26.07-.79.2-1.95-.74-2.58-1.69,1.46-3.77,2.18-6.01,2.65-10.2,2.15-25.11,2.23-35.05-1.13-1.02-.35-1.43-.86-2.42-2.01-5.59,12.99-5.38,26.5,1.9,38.75,2.36,2.22,6.14,2.64,8.98,3.51.63.19,1.2,0,1.27.76-3.31-.41-6.12-1.47-9.4-2.71.84,2.41,2.68,4.13,4.86,4.05Z"/>
  <path class="cls-2" d="M85.68,63.13l-3.83,2.27c1.64.22,2.91-.49,3.83-2.27.8.72,1.59,2.12,1.07,3.26-.53.09-.92-.74-1.51-.67-1.13.13-1.85,1.14-2.54,1.78.75-.14,1.82-.88,1.99-.08.26,1.2-1.14,1.19-2.01,1.62.57.58,1.37.09,2.04-.45.36,0,.52.75.28,1.18-.15.26-.73.47-.8.83.36.45,1.02.2,1.17.6.13.36.52.83-.08,1.12-.22.1-.48.1-.67.14-.12.03-.06.32.02.55.06.18.47-.07.93-.12.48.93.29,2.18.62,3.35-.41.8-1.37.51-1.55,1.44.71.12,1.1-.4,1.3-.11.39.57.43,1.46-.28,1.66-.6.16-1.21.49-1.03,1.19.41-.07.58-.64,1.12-.61s.32,1.01.3,1.6c-.02.44-.54.7-1.12.96,1.52-.43.16,5.38-.57,4.71-1.2-1.75,1.41-2.76-.03-2.91-.81-.09-.76,2.52-1.02,3.16-1,.34-2.13.19-2.81,1.3.6.48.9-.64,1.44-.47.94.3,1.43-.41,2.26-.51.68-.09.5.94.25,1.26-.39.49-3.62.76-1.86,1.26.15.04.86-.44,1.01-.23.67.9-.24,2.65-1.71,2.72l.51-2.57c-1.2-.2-2.49-.07-2.64,1.09.88-.29,1.63-.73,2.19-.42-.41,1.49-.94,2.13-2.1,3.13,1.86-.3,5.9-1.5,6.07-3.25-1.09.13-.88,1.24-1.71,1.15-.13-1.27.94-1.39,1.6-1.77.16-1.46-.47.35-.79-.13-.67-.98,2.32-1.53,1.49-2.49-.51,0-.54.5-.56.65-.03.22-.38.38-.54.23-.32-.3-.3-.74.06-1.01.34-.25.87-.41.89-.74.01-.37-.53-.83-.44-1.24.22-.96,1.43-.98,1.77-2.09l-1.26.61c-.42-.84.43-1.31.36-1.84-.21-1.61,0-3.24,1.46-4.19-.87-.42-.84.57-1.39.64-.61-1.42.63-1.9,1.33-2.82-.64-.38-1.22.76-1.55.24-.55-.87.56-1.31,1.24-1.93-.31-.67-.89-.06-1.57-.25-.68-1.24.98-1.68,1.07-2.62-.04.43-1.05-3.75-.64-4.63.3-.05.49.2.61.66,2.33,8.74,2.24,18.71-2.12,26.49,2.94-1.73-9.28,2.83-8.73,2.81,1.51.49,2.78-1.17,4.35-.29-1.85,1.51-3.99,1.32-5.75,2.07.22.45.63.5.76.87-.83.25-1.4.03-2,.41.51.35,1.12-.25,1.73.48l-3.77,1.24c3.8.07,7.42-1.29,10.89-3.32.07-.37-.51-.61-.73-.86.7-.59,1.31-.56,1.91-1.23l-1.33-.31c.69-1.01,1.71-1.24,2.67-1.88.57.5-1.89,5.02-2.53,5.49-2.17,1.59-4.71,2.23-7.32,2.89-7.14,1.8-14.19,1.19-21.44.95,7.45,2.02,21.15,1.05,28.06-2.48.25,1.09-3.1,4.41-3.63,3.73.77-.72,1.61-1.31,1.91-2.36-2.37,1.3-5.19,1.14-7.09,2.51-1.38,1-2.62.88-4.25,1.03l-5.76.52c2.09,1.27,4.07.05,6.11.15,2.51.13,4.71-1.38,6.9-.75-7.22,2.26-19.26,2.35-26.65-.1-.35-.12-.57-.43-.49-.69,1.34-.05,2.69,1.27,4.33.63-.54-.29-1.16-.36-1.99-.62-.39-.09.05-.26.49-.54l-2.85-.78c.4.61.12.96.01,1.31-2.19.09-4.03-1.64-4.86-4.05,3.28,1.24,6.09,2.29,9.4,2.71-.07-.76-.64-.56-1.27-.76-2.84-.87-6.62-1.29-8.98-3.51-7.28-12.25-7.49-25.76-1.9-38.75,1,1.15,1.4,1.67,2.42,2.01,9.94,3.36,24.85,3.27,35.05,1.13,2.23-.47,4.32-1.18,6.01-2.65.94.64.81,1.79.74,2.58ZM41.03,86.7c.63,3.77,2.13,7.39,4.33,10.4-1.56-3.64-2.79-6.86-3.97-10.4-1.25-10.18-1.17-12.67,1.89-22.97-1.78,1.95-1.97,4.57-2.5,7.03-1.16,5.41-1.14,10.77.24,15.94ZM42.48,74.73v6.53c0,4.28,1.14,8.75,3.57,12.33-1.3-4.05-2.74-7.93-3.21-12.33-.21-1.96-.29-4.58,0-6.53.03-.22,2.18-9.62,2.55-9.25-1.35-1.38-2.95,8-2.91,9.25ZM47.09,96.04c-.21-1.28-.56-1.57-.9-2.12-.13,1.01.59,1.49.9,2.12ZM66.79,99.39v.73h3.26v-.73h-3.26ZM68.46,101.6c-3-.68-5.63-.59-8.54-.05,3,.76,5.63.44,8.54.05Z"/>
  <path class="cls-1" d="M103.43,54.78c-.8.12-.06-3.34-.52-4.95-.31-1.08-.78-2.02-.58-3.04,1.41,2.36,1.02,5.27,1.1,7.98Z"/>
  <path class="cls-1" d="M101.2,43.56c-1.89.37.94,3.8.91,5.8l-.07,5.75c0,.06-.47,3.74-.7,3.39.15.23.51.57.56.8-.4.3-.98.34-1.03.75-.04.33.14.73.21,1.17-.04.35-.37.57-.23.68.27.21.51.23.7.22-.02,0,1.28-3.89,1.26-5.81,0-.41.39-.74.61-.8-.64,3.53-1.21,7.26-3.23,10.18.39-1.04,1.16-1.99.51-3.36-.79.7-.64,1.66-.74,2.61-.94.45-.61,1.11.23.75,0,.23.03.5-.07.72-.58-.31-1.26-.23-1.77.18.37.31.56.41.62.68-.77-.17-1.91,2.26-1.63,2.45.14.1.24.23.46.32-.03.27-.42.51-.51.73.16-.48.34-.7-.63-.95-.5,2.39-2.54,1.49-.89,2.61-.63.32-1.84.62-1.75,1.21.12.66.22,1.16-.47,1.77.52.23.54-.39.84-.34-2.03,3.15-.26,6.35-2.51,7.21-.55.21-1.93.19-1.95-.67-.07-3.66-.05-7.2-.69-10.99.98-2.96.55,2.45,2.31,1.4-.64-.72-.88-1.18-.84-1.83.04-.77,1.03-.4,1.54-.82,5.68-4.76,8.67-15.15,6.06-22.55-1.47-4.17-5.48-6.2-9.62-4.93-6.2,1.9-4.1,7.42-5.41,7.71-2.16.47-2.61-8.46-1.65-9.74.51.69-.02,1.35.66,1.93-.73-1.36,3.7-3.41,4.44-3.73,5.62-2.4,12.06.04,14.46,5.51Z"/>
  <path class="cls-2" d="M78.39,104.11c-.21.2-.38.41-.73.36-.21-.03-.43,0-.88,0-.24,0-.25.34.15.48-.22.15-.4.35-.73.26-2.19-.62-4.4.88-6.9.75-2.04-.11-4.02,1.11-6.11-.15l5.76-.52c1.63-.15,2.87-.03,4.25-1.03,1.9-1.36,4.72-1.21,7.09-2.51-.3,1.05-1.14,1.64-1.91,2.36Z"/>
  <path class="cls-1" d="M102.09,45.71c-.05.13-.05.28-.04.5,0,.12.08.26.29.23-.01.12.02.25,0,.36-.2,1.01.27,1.96.58,3.04.46,1.61-.28,5.07.52,4.95,0,.23.05.5,0,.72-.23.07-.62.39-.61.8.02,1.92-1.29,5.81-1.26,5.81-.18.01-.42,0-.7-.22-.14-.11.18-.33.23-.68-.07-.44-.25-.84-.21-1.17.05-.41.62-.46,1.03-.75-.05-.23-.41-.57-.56-.8.23.35.7-3.33.7-3.39l.07-5.75c.02-2-2.8-5.43-.91-5.8.29.66,1.06,1.33.88,2.15Z"/>
  <path class="cls-1" d="M58.08,56.59v.36l-8.32,1.01v-.37c2.74-.49,5.5-1.01,8.32-1.01Z"/>
  <path class="cls-1" d="M97.31,70.75c-.64,1.62-1.99,2.87-2.91,4.3-.29-.05-.31.57-.84.34.69-.61.59-1.11.47-1.77-.09-.59,1.12-.89,1.75-1.21-1.65-1.12.39-.23.89-2.61.97.25.79.47.63.95Z"/>
  <path class="cls-1" d="M82.5,61.43c.17-1.98-3.29-1.09-4.51-1.76.41-.42,4.38.12,3.7-.49.63.25,1.47.02,1.71,1.23.05.27.09.6-.2.89-.14.14-.47.03-.7.14Z"/>
  <path class="cls-1" d="M100.13,66.4c-.61,1.24-1.23,2.78-2.32,3.63-.22-.08-.32-.22-.46-.32-.28-.19.85-2.62,1.63-2.45-.06-.27-.25-.37-.62-.68.51-.41,1.19-.48,1.77-.18Z"/>
  <path class="cls-1" d="M43.61,33.4l-.18-.6c.79.05,1.84-.93,2.66.69-.99-.09-1.68-.16-2.47-.09Z"/>
  <path class="cls-2" d="M77.67,104.47c-.1.35-.49.32-.73.48-.4-.14-.4-.47-.15-.48.45,0,.67-.03.88,0Z"/>
  <path class="cls-1" d="M102.33,46.44c-.21.03-.28-.11-.29-.23,0-.21,0-.37.04-.5.08.21.28.47.24.73Z"/>
  <path class="cls-2" d="M86.76,66.39c-.41.88.6,5.06.64,4.63-.08.93-1.75,1.38-1.07,2.62.68.19,1.26-.42,1.57.25-.67.62-1.79,1.07-1.24,1.93.34.53.91-.62,1.55-.24-.7.92-1.95,1.4-1.33,2.82.56-.06.52-1.06,1.39-.64-1.47.96-1.68,2.58-1.46,4.19.07.53-.79,1-.36,1.84l1.26-.61c-.34,1.11-1.56,1.13-1.77,2.09-.09.41.45.86.44,1.24-.01.33-.55.48-.89.74-.36.27-.38.71-.06,1.01.17.15.52,0,.54-.23.02-.15.05-.64.56-.65.83.96-2.16,1.51-1.49,2.49.32.47.95-1.34.79.13-.66.38-1.73.5-1.6,1.77.82.09.62-1.02,1.71-1.15-.17,1.75-4.21,2.95-6.07,3.25,1.16-.99,1.68-1.63,2.1-3.13-.55-.32-1.3.12-2.19.42.15-1.16,1.44-1.29,2.64-1.09l-.51,2.57c1.47-.06,2.38-1.81,1.71-2.72-.16-.21-.87.27-1.01.23-1.76-.5,1.47-.78,1.86-1.26.25-.32.42-1.35-.25-1.26-.82.11-1.32.81-2.26.51-.54-.17-.84.95-1.44.47.68-1.11,1.81-.96,2.81-1.3.26-.64.21-3.24,1.02-3.16,1.44.15-1.18,1.16.03,2.91.74.67,2.09-5.14.57-4.71.58-.26,1.1-.52,1.12-.96.02-.59.27-1.56-.3-1.6s-.72.54-1.12.61c-.18-.7.43-1.03,1.03-1.19.71-.2.67-1.09.28-1.66-.2-.29-.59.23-1.3.11.18-.93,1.14-.64,1.55-1.44-.33-1.17-.14-2.41-.62-3.35-.46.06-.86.3-.93.12-.08-.23-.15-.53-.02-.55.19-.04.45-.04.67-.14.6-.29.21-.75.08-1.12-.15-.4-.8-.15-1.17-.6.07-.36.66-.57.8-.83.24-.43.08-1.18-.28-1.18-.66.54-1.47,1.03-2.04.45.87-.42,2.27-.42,2.01-1.62-.17-.79-1.24-.06-1.99.08.69-.64,1.41-1.65,2.54-1.78.59-.07.98.77,1.51.67ZM85.71,66.77c-.08-.45-.4-.45-.48,0,.05.84.43.84.48,0ZM86.43,68.59c-.02-.55-.81-.55-.84,0-.04.97.88.97.84,0Z"/>
  <path class="cls-2" d="M85.25,93.53c-.97.64-1.98.87-2.67,1.88l1.33.31c-.6.68-1.21.65-1.91,1.23.22.26.8.49.73.86-3.46,2.02-7.09,3.38-10.89,3.32l3.77-1.24c-.61-.73-1.22-.13-1.73-.48.6-.38,1.17-.16,2-.41-.13-.37-.54-.42-.76-.87,1.75-.75,3.89-.56,5.75-2.07-1.57-.88-2.84.78-4.35.29-.55.02,11.67-4.54,8.73-2.81ZM81.38,95.49c-.19.19-.19.86.1.97-.05-.02.79-.45.55-.87-.11-.18-.4-.34-.65-.1ZM79.86,97.37c0-.11-.09-.2-.2-.2s-.2.09-.2.2.09.2.2.2.2-.09.2-.2ZM77.66,98.51c-.86-.32-1.27-.35-1.47.07.65.15,1.09.22,1.47-.07ZM78.38,99.2c-1.25-.19-1.85.18-2.57.4,1.03.38,1.82-.13,2.57-.4Z"/>
  <path class="cls-2" d="M41.4,86.7h-.36c-1.38-5.17-1.4-10.54-.24-15.94.53-2.46.72-5.08,2.5-7.03-3.06,10.3-3.14,12.79-1.89,22.97Z"/>
  <path class="cls-2" d="M42.48,81.26h.36c.47,4.4,1.91,8.28,3.21,12.33-2.43-3.59-3.57-8.06-3.57-12.33Z"/>
  <path class="cls-2" d="M42.85,74.73h-.36c-.04-1.25,1.56-10.62,2.91-9.25-.37-.37-2.52,9.03-2.55,9.25Z"/>
  <path class="cls-2" d="M41.03,86.7h.36c1.17,3.54,2.41,6.76,3.97,10.4-2.2-3.01-3.7-6.63-4.33-10.4Z"/>
  <path class="cls-2" d="M68.46,101.6c-2.91.39-5.54.71-8.54-.05,2.91-.54,5.54-.64,8.54.05Z"/>
  <path class="cls-2" d="M49.08,104.42c.11-.35.39-.7-.01-1.31l2.85.78c-.44.27-.88.44-.49.54.82.26,1.45.32,1.99.62-1.64.64-2.99-.68-4.33-.63Z"/>
  <path class="cls-1" d="M85.68,63.13c-.92,1.79-2.19,2.5-3.83,2.27l3.83-2.27Z"/>
  <path class="cls-2" d="M42.85,81.26h-.36v-6.53h.36c-.29,1.95-.21,4.56,0,6.53Z"/>
  <rect class="cls-2" x="66.79" y="99.39" width="3.26" height=".73"/>
  <path class="cls-2" d="M47.09,96.04c-.31-.63-1.03-1.11-.9-2.12.35.55.69.84.9,2.12Z"/>
  <path class="cls-1" d="M81.49,54.13c-3.12-.06,1.31,1.91-.71,3.11-.26-1.35-.57-2.27-1.02-3.38-3.45-8.36-.64-16.65-1.48-17.41-.12-.11-.57.28-.63-.39.68-.21,1.52.09,1.77-.78-.71-.27-1.33.27-2.13-.3,1.33-.35,2.55-.69,4.03-1.29-.13.97-1.01.71-1.32,1.26.35.09.57.08.77.17.3.12.07.41-.08.47-.11.05-.45.07-.59.27-.22.3.09.73.03.94-.1.36-.51.45-.81.74-.51.5.13.93.6,1.37-.14.28-1.1.26-1.12.67-.13,2.56-.05,4.95-.04,7.61.47-.18.49-.73.93-.61.54,2.47.75,5.07,1.81,7.55ZM79.48,47.7c0-.1-.08-.18-.18-.18s-.18.08-.18.18.08.18.18.18.18-.08.18-.18ZM80.42,53.8c.21-1.74-.31-3.43-1.17-4.95-.1,1.77.28,3.37,1.17,4.95Z"/>
  <path class="cls-1" d="M81.95,32.71c-.42.64-4.3,2.02-3.92.85-.03.09,3.66-1.23,3.92-.85Z"/>
  <path class="cls-1" d="M45.38,56.63c2.56-8.19,3.61-10.84,2.3-19.77,1.21,2.49,1.36,5.32,1.28,8.03-.72,4.07-.92,8.19-3.58,11.74Z"/>
  <path class="cls-1" d="M48.46,54.53l1.35-8.12c.21-1.24.39-2.62.49-4,.5,4,0,8.12-1.85,12.11Z"/>
  <path class="cls-1" d="M82.06,31.85c-3.68.99-7.21,2.01-10.95,1.34,3.64-.4,7.28-.67,10.92-2.08.36-.06.41.61.03.74Z"/>
  <path class="cls-1" d="M69.33,57.32v-.73c.47,0,6.99.4,6.71,1.25-2.35-.17-4.62-.11-6.71-.52Z"/>
  <polygon class="cls-3" points="69.33 56.59 69.33 57.32 67.5 56.95 58.08 56.95 58.08 56.59 69.33 56.59"/>
  <path class="cls-1" d="M41.34,31.23l3.33-.9c.98-.07,2.01.07,2.93.4-2.27.18-4.25.06-6.26.51Z"/>
  <path class="cls-1" d="M50.08,41.6c-.44-1.16-.68-2.18-.48-3.4.71,1.06,1.16,2.1.48,3.4Z"/>
  <path class="cls-1" d="M48.32,55.03c.05.93-.39,1.04-.45.2.05-.42.24-.58.45-.2Z"/>
  <circle class="cls-1" cx="79.53" cy="40.32" r=".36"/>
  <path class="cls-1" d="M100.21,65.68c-.84.36-1.17-.3-.23-.75.1-.95-.05-1.92.74-2.61.66,1.37-.11,2.32-.51,3.36Z"/>
  <path class="cls-1" d="M81.71,27.99l-8.45-1.7c2.86-.43,5.76.47,8.45,1.7Z"/>
  <path class="cls-2" d="M86.43,68.59c.04.97-.88.97-.84,0,.02-.55.81-.55.84,0Z"/>
  <path class="cls-2" d="M85.71,66.77c-.05.84-.43.84-.48,0,.08-.45.4-.45.48,0Z"/>
  <path class="cls-2" d="M81.38,95.49c.25-.24.54-.08.65.1.24.41-.6.85-.55.87-.29-.11-.29-.78-.1-.97Z"/>
  <path class="cls-2" d="M77.66,98.51c-.38.29-.83.22-1.47.07.21-.42.62-.39,1.47-.07Z"/>
  <path class="cls-2" d="M78.38,99.2c-.75.27-1.54.78-2.57.4.72-.22,1.32-.59,2.57-.4Z"/>
  <circle class="cls-2" cx="79.67" cy="97.37" r=".2"/>
  <path class="cls-1" d="M80.42,53.8c-.9-1.58-1.27-3.17-1.17-4.95.87,1.52,1.38,3.2,1.17,4.95Z"/>
  <circle class="cls-1" cx="79.3" cy="47.7" r=".18"/>
</svg>