<?xml version="1.0" encoding="UTF-8"?>
<svg id="katman_1" data-name="katman 1" xmlns="http://www.w3.org/2000/svg" viewBox="0 0 128 128">
  <defs>
    <style>
      .cls-1 {
        fill: #c8c8ce;
      }

      .cls-2 {
        fill: #dedee0;
      }

      .cls-3 {
        fill: #e8e8e8;
      }
    </style>
  </defs>
  <path class="cls-2" d="M64.68,101.63c-4.78.62-9.61.53-14.54-.73l14.54.73Z"/>
  <path class="cls-2" d="M84.19,101.22c-4.58.76-9.13,1.15-13.89.38,4.74-.59,9.09-.43,13.89-.38Z"/>
  <path class="cls-2" d="M96.62,96.19c-3.55.35-6.74.06-10.24-.02,3.42-.8,6.78-.77,10.24.02Z"/>
  <path class="cls-2" d="M48.24,96.02c-3.01.55-5.84.23-8.9.17,2.87-.87,5.78-.73,8.9-.17Z"/>
  <path class="cls-2" d="M54.19,98.65c-.1.71-8.68.44-9.78.21-.89.34-.8-.69.04-.29,3.35.19,6.3-.74,9.74.08Z"/>
  <rect class="cls-2" x="80.78" y="98.35" width="10.52" height=".73"/>
  <g>
    <path class="cls-2" d="M69.83,99.45c-10.36.89-19.66-4.17-24.33-13.28-7.13-13.91-2.56-32.78,5.22-45.48,2.21-3.6,4.76-6.73,8.02-9.23,5.46-4.18,12.36-4.07,17.72.17,3.89,3.08,6.77,6.95,9.18,11.36,7.09,12.98,10.93,30.58,3.4,44.12-3.98,7.15-10.9,11.61-19.23,12.33ZM62.63,30.88l-1.47.64c-5.31,2.32-10.36,10.57-12.75,16.05-4.41,10.09-5.49,16.62-4.91,27.58.29,5.42,2.56,10.42,5.68,14.52.52.95,2.24,3.03,2.19,1.91.71.05.88.92,1.37,1.43,6.26,6.46,20.97,7.22,28.24,1.23-1.64-.4-2.36,1.08-3.6,1.1.02-.35,0-.62-.17-.72-1.14-.67-1.93,1.23-2.42.58.64-.35,1.09-.69,1.19-1.3,1.59.6,1.45-.48,3.33-.55-.51.66-1.37.49-1.88,1.33,1.23-.16,5.44-2.95,5.31-3.7-.02-.11-.2-.22-.32-.15-.17.09-.29.36-.82.27-.07-.67.86-.65,1.07-1.52l-1.25-.31c-.01-.07.08-.2.13-.53.61-.56,1.12-.27,1.75-.12.88.21,1.22-1.17,1.6-1.71,2.57-3.62,1.08-3.08,2.29-3.78l.35.05c-.01.13.05.26.07.39,0,.08,0,.18.03.25-.72-.54-3.26,5.23-2.98,5.42,1.56,1.03-1.48,1.18-1.28,2.65.98.31,1.06-.93,1.58-1.32,1.07-.81,1.55-1.74,2.25-2.78,3.54-5.24,4.94-11.31,4.81-17.75-.24-12.11-4.46-23.61-11.71-33.23-.41-.55-.87-.77-1.37-.83-2.05-3.39-5.85-5.86-9.79-6.27-.26-.03-.5-.19-.8-.17-1.96.11-4.29-.04-5.75,1.36Z"/>
    <path class="cls-2" d="M88.77,81.21l-.07,1.89-1.08.47c-.01-.13-.08-.26-.07-.39.07-.86.26-1.82,1.21-1.97Z"/>
    <path class="cls-3" d="M68.38,29.52c-.06.41.07.97.64,1.15.82.26,1.68.41,2.37,0-.93-.38-1.85-.23-2.22-.99,3.94.41,7.75,2.88,9.79,6.27-1.22-.67-1.76-2.07-3.25-2.5.13.69,1.1.66,1.06,1.71-.96-.38-1.41-1.37-2.56-1.63,1.83,1.51,3.25,3.69,5.01,4.9-.69-1.41-2.14-1.73-2.56-3.21,1.26-.11,1.35,1.18,2.29.74.5.06.96.29,1.37.83,7.24,9.62,11.46,21.12,11.71,33.23.13,6.45-1.27,12.52-4.81,17.75-.7,1.04-1.18,1.98-2.25,2.78-.52.39-.6,1.64-1.58,1.32-.2-1.47,2.84-1.62,1.28-2.65-.28-.19,2.26-5.96,2.98-5.42.19.31.03.62.14,1.14.39-.61.68-1.23.9-1.85.5-.1.82-.38.82-.88,0-.62-.06-1.18-.75-1,.16-.49.88-.67,1.24-1.23,1.21-5,1.78-10.25.99-15.29-.49-3.12-2.23-10.64-3.61-13.17-.13,1.55.95,2.52,1.03,4.03-1,.23-.79-.84-1.4-1.43l1.3,5.52c1.18,5.01.94,10.04,1.02,14.97.56-.25.74-.77.99-.55.45.41-.85,8.16-1.87,6.34-.07-.12.28-.34.31-.77.07-.82-.92-.7-.72.12.14.56-.1.86-.21,1.08-.22.46-.56.19-.5-.1.92-4.69,1.72-11.81.78-16.9l-.63-3.38c-.54-2.89-.61-5.79-2.25-8.23-.41,1.23.44,2.15.68,3.25l1.07,4.96c1.21,5.59,1.35,11.44.26,17.16-.27,1.41-1.31,2.84.44,4-.42.63-.35,1.11-.48,1.52-1.21.7.29.16-2.29,3.78-.38.54-.72,1.93-1.6,1.71-.62-.15-1.13-.43-1.75.12.06-.41-.12-.9-.24-1.29-.15,1.2-3.35,1.84-2.31,3.83.18.34,1.48.29,1.4-.02-.17-.68-.56-1.2-.23-1.64.27-.36.8-.46,1.25-.34l1.25.31c-.21.87-1.14.85-1.07,1.52.52.09.64-.17.82-.27.12-.07.3.05.32.15.13.75-4.08,3.54-5.31,3.7.5-.85,1.37-.67,1.88-1.33-1.89.07-1.74,1.14-3.33.55-.71-.96-2.21.6-3.49.25-.8-.53-1.55-.05-2.46.01.11.44.55,1.13.23,1.46-1.36,1.42-2.58-1.11-4.23.28,1.75.43,3.28.56,5.06.28l.08-1.78c1.94.62,3.3-.17,4.82-.5-.1.61-.55.94-1.19,1.3.49.65,1.27-1.26,2.42-.58.17.1.19.38.17.72,1.24-.03,1.96-1.5,3.6-1.1-7.27,5.99-21.98,5.24-28.24-1.23-.49-.51-.66-1.38-1.37-1.43-.07-1.17-1.2-1.9-1.79-3.13.14-.08.49.07.63-.02.44-.29-.45-1.23-.34-1.51.09-.24.91-.34,1.07.02.44.98.95,1.9,1.21,2.98-.98-.29-.79-1.4-1.93-1.33l1.53,2.51c.14.23.58.4.88.37.23-.02-.05-.46.15-.96.79.42,1.08.95,1.41,1.59-.65,0-.79-.71-1.48-.61.73,1.88,2.42,2.76,3.96,3.7.53-2.25-.44-1.85-1.02-2.47-2.17-2.36-3.65-5-5.57-7.31-.18.24-.44.73-.67.67-.21-.06-.39-.57-.52-.81-2.96-5.63-3.06-11.68-3.17-18.17-1.29,6.74.32,13.52,3.12,19.96-3.58-3.76-4.9-14.72-4.21-19.56l1.26-8.78c-1.4,2.6-1.43,5.53-1.86,8.43-.41,2.74-.22,5.23.03,7.99.5,5.39,2.61,10.02,5.1,14.53-3.12-4.1-5.39-9.1-5.68-14.52-.59-10.96.5-17.49,4.91-27.58,2.39-5.47,7.45-13.72,12.75-16.05-.11.76-.82,1-1.42,1.46,1.22.02,1.78-1.1,2.9-1.39.74-.19,1.54-.23,1.84-1.1l-1.85.38c1.46-1.4,3.78-1.25,5.75-1.36ZM79.69,39.05c0-.1-.08-.18-.18-.18s-.18.08-.18.18.08.18.18.18.18-.08.18-.18ZM81.5,39.77c0-.1-.08-.18-.18-.18s-.18.08-.18.18.08.18.18.18.18-.08.18-.18ZM83.2,42.85c-.29-.94-.64-1.97-1.67-2.5.64.79.79,1.69,1.67,2.5ZM83.68,43.4c0-.1-.08-.18-.18-.18s-.18.08-.18.18.08.18.18.18.18-.08.18-.18ZM84.41,44.49c0-.1-.08-.18-.18-.18s-.18.08-.18.18.08.18.18.18.18-.08.18-.18ZM83.68,45.21c0-.1-.08-.18-.18-.18s-.18.08-.18.18.08.18.18.18.18-.08.18-.18ZM87.24,51.01c-.78-2.59-1.51-4.35-2.7-6.01.83,2.22,1.66,4.2,2.7,6.01ZM84.2,46.78c.3.08.34-.5.05-.64-.12-.06-.28-.42-.39-.34-.68.49,2.75,1.64.34.98ZM84.81,47.1l-.73.36,1.49,2.97.73-.36-1.49-2.97ZM48.5,80.15c-.48-1.41-.28-2.78-.86-4.04-.16,3.14.69,6.04,2.14,8.62.32-1.79-.78-3.11-1.28-4.58ZM51.57,84.76c-.2-1.28-.67-2.1-1.13-3.06-.17,1.2.14,2.42,1.13,3.06ZM87.67,85.48c0-.1-.08-.18-.18-.18s-.18.08-.18.18.08.18.18.18.18-.08.18-.18ZM83.01,87.7c.98-.59,1.71-1.18,2.02-2.09-1.16.5-1.42,1.47-2.02,2.09ZM86.65,86.09c-.29.37.07.82.28.49.07-.11.39-.28.35-.39-.05-.18-.46-.32-.63-.1ZM61.64,96.53c-1.08-.51-1.69-.87-2.58-1.41.37,1.09,1.43,1.89,2.58,1.41ZM76.41,96.23c.78-.32.29-1.13-.38-.62-1.25.41-2.34.51-3.28,1.19,1.3.35,2.17-.46,3.67-.57ZM72.07,97.47c.03-.12.46-.36.29-.46-2.21-.56-4.51.45-6.66-.28-.79-.27-1.44-1.68-2.38-.65.74.29,1.6-.2,1.57.77-.76.43-1.37-.42-1.98.18,1.38,1.05,9.22.24,9.16.44Z"/>
    <path class="cls-2" d="M89.98,64.03c-.96-2.04-1.35-3.99-1.24-6.14,1.23,1.96,1.26,4.08,1.24,6.14Z"/>
    <path class="cls-2" d="M51.37,91.59c.05,1.12-1.67-.96-2.19-1.91-2.49-4.52-4.61-9.15-5.1-14.53-.25-2.76-.44-5.24-.03-7.99.43-2.9.46-5.83,1.86-8.43l-1.26,8.78c-.69,4.83.62,15.8,4.21,19.56-2.8-6.45-4.4-13.23-3.12-19.96.12,6.49.22,12.54,3.17,18.17.12.23.31.75.52.81.23.06.49-.43.67-.67,1.92,2.31,3.4,4.95,5.57,7.31.58.63,1.55.22,1.02,2.47-1.55-.94-3.24-1.82-3.96-3.7.68-.1.82.62,1.48.61-.33-.64-.62-1.17-1.41-1.59-.2.5.08.94-.15.96-.31.03-.74-.13-.88-.37l-1.53-2.51c1.15-.06.95,1.05,1.93,1.33-.26-1.09-.77-2-1.21-2.98-.17-.37-.98-.26-1.07-.02-.11.28.78,1.22.34,1.51-.13.09-.48-.06-.63.02.59,1.24,1.72,1.96,1.79,3.13ZM56.34,93.82c0-.13-.1-.23-.23-.23s-.23.1-.23.23.1.23.23.23.23-.1.23-.23Z"/>
    <path class="cls-2" d="M81.57,88.75c-.05.33-.14.46-.13.53-.44-.12-.98-.02-1.25.34-.32.44.06.96.23,1.64.08.32-1.23.36-1.4.02-1.04-1.99,2.16-2.63,2.31-3.83.11.39.29.88.24,1.29Z"/>
    <path class="cls-2" d="M61.16,31.53l1.47-.64,1.85-.38c-.31.87-1.1.91-1.84,1.1-1.12.29-1.68,1.41-2.9,1.39.6-.46,1.31-.7,1.42-1.46Z"/>
    <path class="cls-2" d="M69.17,29.7c.36.76,1.28.61,2.22.99-.69.41-1.56.25-2.37,0-.58-.18-.7-.74-.64-1.15.3-.02.53.15.8.17Z"/>
    <path class="cls-2" d="M88.71,83.1c-.22.63-.51,1.24-.9,1.85-.12-.52.05-.83-.14-1.14-.04-.06-.03-.17-.03-.25l1.08-.47Z"/>
    <path class="cls-2" d="M88.71,83.1l.07-1.89c.69-.17.74.39.75,1,0,.5-.32.78-.82.88Z"/>
    <path class="cls-1" d="M88.77,81.21c-.95.15-1.14,1.11-1.21,1.97l-.35-.05c.13-.42.07-.9.48-1.52-1.75-1.16-.7-2.6-.44-4,1.08-5.72.94-11.57-.26-17.16l-1.07-4.96c-.24-1.1-1.09-2.01-.68-3.25,1.63,2.44,1.71,5.34,2.25,8.23l.63,3.38c.94,5.1.14,12.21-.78,16.9-.06.29.28.55.5.1.11-.22.34-.52.21-1.08-.2-.83.79-.94.72-.12-.03.43-.38.65-.31.77,1.02,1.82,2.32-5.93,1.87-6.34-.25-.23-.43.3-.99.55-.08-4.93.16-9.96-1.02-14.97l-1.3-5.52c.61.59.4,1.66,1.4,1.43-.08-1.5-1.16-2.48-1.03-4.03,1.38,2.52,3.12,10.04,3.61,13.17.79,5.04.23,10.29-.99,15.29-.36.56-1.08.74-1.24,1.23ZM88.33,57.73c.57.13.66-1.01.46-1.26-.14-.18-.29-.33-.7-.55-.02.61-.34,1.68.24,1.81ZM89.98,64.03c.01-2.06-.02-4.18-1.24-6.14-.11,2.15.28,4.1,1.24,6.14ZM90.57,66.8h-.73v6.35h.73v-6.35Z"/>
    <path class="cls-2" d="M75.99,93.91c-1.52.34-2.88,1.12-4.82.5l-.08,1.78c-1.78.28-3.32.15-5.06-.28,1.65-1.39,2.87,1.15,4.23-.28.32-.33-.12-1.02-.23-1.46.92-.06,1.67-.54,2.46-.01,1.29.35,2.79-1.21,3.49-.25Z"/>
    <path class="cls-2" d="M72.07,97.47c.06-.2-7.78.61-9.16-.44.61-.6,1.22.25,1.98-.18.03-.97-.83-.49-1.57-.77.94-1.03,1.59.38,2.38.65,2.16.73,4.45-.27,6.66.28.16.1-.26.34-.29.46Z"/>
    <path class="cls-2" d="M48.5,80.15c.5,1.47,1.59,2.79,1.28,4.58-1.45-2.57-2.29-5.48-2.14-8.62.58,1.25.38,2.63.86,4.04Z"/>
    <path class="cls-2" d="M51.57,84.76c-.99-.64-1.3-1.86-1.13-3.06.46.96.93,1.78,1.13,3.06Z"/>
    <path class="cls-2" d="M76.41,96.23c-1.5.11-2.36.92-3.67.57.94-.68,2.03-.78,3.28-1.19.67-.51,1.16.3.38.62Z"/>
    <path class="cls-2" d="M61.64,96.53c-1.16.48-2.21-.32-2.58-1.41.89.54,1.5.9,2.58,1.41Z"/>
    <path class="cls-2" d="M78.97,35.96c-.94.44-1.04-.85-2.29-.74.42,1.48,1.87,1.81,2.56,3.21-1.76-1.21-3.18-3.39-5.01-4.9,1.15.26,1.6,1.25,2.56,1.63.04-1.05-.94-1.02-1.06-1.71,1.5.43,2.04,1.83,3.25,2.5Z"/>
    <rect class="cls-2" x="84.78" y="47.11" width=".81" height="3.33" transform="translate(-12.82 43.25) rotate(-26.57)"/>
    <path class="cls-2" d="M83.01,87.7c.61-.62.87-1.59,2.02-2.09-.31.91-1.05,1.5-2.02,2.09Z"/>
    <path class="cls-2" d="M87.24,51.01c-1.04-1.81-1.87-3.79-2.7-6.01,1.19,1.66,1.91,3.42,2.7,6.01Z"/>
    <path class="cls-2" d="M83.2,42.85c-.88-.82-1.03-1.72-1.67-2.5,1.03.53,1.38,1.56,1.67,2.5Z"/>
    <path class="cls-2" d="M84.2,46.78c2.41.67-1.03-.49-.34-.98.11-.08.27.28.39.34.29.14.25.72-.05.64Z"/>
    <circle class="cls-2" cx="79.51" cy="39.05" r=".18"/>
    <circle class="cls-2" cx="81.32" cy="39.77" r=".18"/>
    <circle class="cls-2" cx="83.5" cy="43.4" r=".18"/>
    <circle class="cls-2" cx="84.23" cy="44.49" r=".18"/>
    <circle class="cls-2" cx="83.5" cy="45.21" r=".18"/>
    <circle class="cls-2" cx="56.11" cy="93.82" r=".23"/>
    <path class="cls-2" d="M86.65,86.09c.17-.22.58-.08.63.1.03.11-.29.29-.35.39-.21.33-.56-.13-.28-.49Z"/>
    <circle class="cls-2" cx="87.49" cy="85.48" r=".18"/>
    <rect class="cls-2" x="89.85" y="66.8" width=".73" height="6.35"/>
    <path class="cls-2" d="M88.33,57.73c-.58-.13-.26-1.2-.24-1.81.41.22.56.37.7.55.2.25.11,1.39-.46,1.26Z"/>
  </g>
</svg>