<?xml version="1.0" encoding="UTF-8"?>
<svg id="katman_1" data-name="katman 1" xmlns="http://www.w3.org/2000/svg" viewBox="0 0 726.42 734.74">
  <defs>
    <style>
      .cls-1 {
        fill: #fefdfe;
      }
    </style>
  </defs>
  <path class="cls-1" d="M362.82,333.37c-8.1,12.35-13.54,16.08-24.05,25-7.54,6.4-12.31,14.85-13.24,24.89-2.2,23.77,7.29,37.94-7.09,75.31l-6.22,16.15c-5.64,14.65-7.65,29.76-7.17,45.5l.62,20.52c.3,10.02.53,19.67-.1,29.6-2.65,41.57-22.09,77.49-60.77,95.36-15.29,7.06-31.39,11.06-48.13,12.83l-21.86,2.32c-28.5,3.02-54.3,14.37-76.09,32.79-14.99,12.67-34.36,26.49-54.75,18.98-9.7-3.57-17.18-10.61-22.42-19.45-5.22-8.81-8.87-18.05-11.17-28.21-3.84-16.91-5.46-33.61-6.5-50.92l-3.29-55.07c-3.09-51.75,6.42-128.23,19.33-179.11,8.3-32.71,17.59-57.97,30.71-88.98,14.33-33.86,32.73-65.88,54.43-95.52,20.8-28.4,45.2-52.97,73.27-73.95,19.07-14.25,47.08-31.79,71.77-28.9,14.68,1.72,26.98,9.84,35.85,21.47,16.2,21.23,14.99,46.12,12.46,71.21l-1.51,14.94c-1.5,14.87-1.21,29.33,2.12,43.89,6.06,25.41,20.56,34.8,13.6,62.7,11.4-6.61,18.34-16.4,23.51-27.62,4.32-9.37,5.3-19.52,6.28-29.87l.25-30.72,1.07-25.82.02-61.75c0-18.92-3.77-36.7-8.55-54.84l-5.78-21.97c-2.21-8.4-4.49-16.57-5.12-25.28-1.77-24.43,12.19-45.62,37.18-48.57,20.69-2.45,39.06,12.05,42.3,32.68,1.62,10.29-.19,20.11-2.91,30.14l-8.27,30.49c-4.53,16.72-7.02,33.34-7.34,50.79l-1,53.07.36,49.54c.06,7.72-.01,15.12.61,22.59,1.47,17.65,8.47,33.31,20.86,45.68,2.74,2.73,4.89,5.53,8.73,7.02-3.4-18.79-3.32-27.64,3.22-45.24,3.47-9.33,7.19-18.12,9.63-27.76,7.08-28-1.5-48.2.92-78.6,1.47-18.46,10.5-35.67,25.2-46.71,14.11-10.59,31.37-13.18,47.85-7.3,6.68,2.39,12.98,4.92,19.33,8.21,43.53,22.53,81.36,61.68,109.02,101.84,33.36,48.45,57.58,106.98,73.53,163.59,12.58,44.63,19.06,89.96,21.55,135.98l.94,17.33c.66,12.1.45,23.94-.04,36.02l-.74,18.44-.92,13.53c-1.85,27.38-8.11,69.63-20.42,94.04-9.5,18.85-26.76,33.45-48.26,22.72-7.97-3.98-14.55-9.44-21.2-15.55-14.85-13.62-31.56-24.09-51.04-29.68-12.56-3.6-24.94-5.22-37.87-6.81-12.62-1.55-24.72-3.26-37.2-5.61-35.23-6.63-63.52-27.21-76.57-61.15-6.6-17.18-9.45-41.11-8.44-59.59,1.64-29.87.27-52.13-11.72-79.51-9.22-21.03-14.32-43.22-12.9-66.24,1.16-18.74,1.39-35.34-13.97-48.44-7.89-6.73-15.24-13.62-21.89-22.4ZM374.24,158.67l.64-15.47c1.29-16.58,2.69-32.78,7.26-48.91l8.86-31.24c2.31-8.15,4.57-16.3,4.15-24.74-.72-14.38-10.07-26.46-24.25-28.99-15.33-2.73-30.02,6.56-35.11,21.1-2.68,7.64-2.97,15.28-1.5,23.39,3.34,18.41,9.18,35.84,17.62,52.52l12.77,25.25c4.41,8.72,6.81,17.34,9.57,27.08ZM218.53,209.6c23.35-.62,49.09-7.69,61.4-28.18,5.52-9.19,7.24-20.21,3.67-30.14-5.76-16.04-19.9-27.9-37.05-28.64-10.73-.46-20.6,2.79-30.1,7.52-48.25,24.04-93.87,73.4-122.33,118.76,11.55-9.46,21.5-18.44,34.54-24.38,17.53-9.49,36.51-13.83,56.41-14.07l33.47-.88ZM461.73,230.53l18.03-12.06c18.76-12.7,42.29-34.13,42.8-58.5.29-14.1-8.68-26.04-20.96-31.98-12.95-6.26-27.45-5.34-39.48,2.84-20.65,14.05-26.36,38.37-23.73,62.38l2.29,25.46c.96,10.63-.41,20.68-2.97,31.2,7.48-7.43,15.22-13.45,24.03-19.34ZM353.4,217.24l9.17-24.65c8.98-24.14.11-45.98-11.22-67.63,2.82,23.41,2.8,40.95,2.37,63.97l-.4,21.29c-.05,2.51-.76,4.77.07,7.03ZM593.69,292.2l35.66,10.84c17.34,5.27,31.83,15.57,44.09,28.86-2.16-7.52-5.19-13.72-8.3-20.75-11.93-27.02-25.47-52.95-42.18-77.42-24.74-36.23-57.05-71.28-95.74-94.27,7.91,21.01,5.38,31.01-4.79,49.56,19.59-9.66,41.75-7.1,56.83,7.57,16.86,15.15,19.93,40.15,6.55,58.41-8.51,11.61-21.67,17.13-35.69,16.15,14.36,8.11,27.79,16.26,43.56,21.06ZM271.39,268.15l20.79,8.29c-3.77-12.14-6.35-22.98-6.72-35.1-.7-22.95,4-38.69,4.84-61.82-3.3,6.1-5.78,11.35-10.22,16.09-6.63,7.07-14.24,12.22-23.25,15.86-10.62,4.29-21.59,6.75-33.12,6.98l-15.62.32c32.07,15.04,27.49,35.08,63.31,49.37ZM670.41,721.74c32.94-1.14,41.82-84.68,43.24-108.8,2.87-48.79-21.52-95.3-68.23-112.74-13.09-4.89-26.07-7.9-39.89-10.36-31.13-5.55-55.51-19.55-72.69-46.47l-14.08-22.06c-12.66-19.83-28.22-36.89-48.13-49.53l-37.2-23.63c-19.14-12.15-41.37-27.84-50.7-49.04-4.61-10.47-7.76-21.47-7.85-33.2l-.62-80.39c-1.76,3.81-2,7.55-3.27,11.14-2.83,8.01-5.93,15.49-9.27,23.38-8.85,20.93-11.35,38.5-9.29,61.4,2.06,22.86,12.94,43.62,29.95,59.08,12.51,11.37,26.75,19.72,41.51,27.84l27.36,15.04c12.44,6.84,23.38,14.77,34.38,23.82,21.54,17.73,36.85,40.95,46.76,66.98s20.76,48.04,47.77,61.98c15.97,8.24,25.83,9.52,41.75,19.29,17.96,11.03,29.42,29.2,32,50.06,3.73,30.17-10.45,48.43-8.14,83.21.92,13.9,8.25,33.56,24.64,33ZM521.79,251.8c15.17,9.91,34.98,15.76,50.3,3.68s16.69-33.22,5.03-48.15c-8.32-10.65-21.1-15.51-34.87-14.3-11.98,1.06-22.78,6.33-32.15,14.12-11.91,9.9-23.44,19.07-37.41,26.92,11.28-.12,20.77,1.75,30.29,6.44l18.81,11.28ZM221.29,287.48c16.88-3.93,26.76-10.06,43.85-13.09-26.25-9.01-31.36-26.08-48.3-40.29-8.88-7.45-19.55-12.04-31.19-13.04s-22.19.09-33.05,3.57c-14.65,4.7-28.18,11.73-40.43,21.09-26.86,20.52-43.04,43.73-55.46,75.71,9.48-9.62,18.46-17.72,30-23.89,16.27-8.71,33.61-14.13,52.16-15.17,13.62-.64,26.35.32,39.62,3.1,14.18,2.97,28.02,4.15,42.81,2.01ZM536.88,395.84l27.96,7.94c-24.12-20.79-32.12-45.2-33.32-75.38l-.7-17.71c-.77-19.36-7.13-37.97-20.94-51.68-9.34-9.28-20.75-14.58-33.97-15.06-10.09-.37-19.45,3.43-27.44,9.82-25.94,20.74-37.58,62.71-9.12,85.72,6.6,5.34,13.79,9.08,20.89,13.77l23.06,15.19c6.08,4.01,11.43,8.38,17.83,11.9,11.33,6.58,22.77,11.8,35.76,15.48ZM637.29,426.88l-7.97-9.9c-14.34-22.88-13.9-34.92-18.14-59.83-4.32-25.41-18.27-47.06-39.31-61.63l-22.47-13.91-20.53-13.8c6.74,11.94,10.8,23.52,11.37,36.65l1.55,35.84c.95,22.01,15.4,46.91,33.45,60.71,19.61,15,40.04,17.21,62.05,25.86ZM241.09,384.55c12.42-15.13,26.17-28.02,42.61-38.73,6.68-4.35,12.19-10.14,16.27-16.89,6.69-11.08,5.23-28.9-5.43-38.63-6.09-5.55-14.32-7.64-22.56-7.2s-16,3.51-23.83,6.53l-39.87,15.35c-26.21,10.09-55.2,25.72-64.95,53.71-4.22,12.12-4.27,25.19.63,37.04,8.57,20.72,31.8,31.94,53.34,25.93,18.79-5.25,31.65-22.34,43.78-37.11ZM121.94,340.13l47.17-27.65c8.1-4.75,15.98-8.99,24.73-12.01,2.31-.8,4.4-1.45,6.6-2.67l-29.74-3.98c-6.6-.88-13.06-1.83-19.75-2.06-17.51-.59-35.54,2.74-51.52,10-26.45,12.01-47.6,33.53-57.46,61.16-7.62,21.35-13.08,42.69-17.69,65.52,9.93-16.9,19.82-32.32,33.92-45.43,11.58-10.77,23.85-19.67,37.35-27.77l26.39-15.11ZM237.41,654.36c-1.99,2.42-4,3.82-5.76,6.42,31.72-12.14,52.44-35.7,60.52-68.72,3.32-13.59,4.44-26.75,2.51-40.75-2.72-19.7-9.68-37.71-17.74-55.73-9.57-21.39-17.82-42.71-16.12-66.42,1.47-20.52,10.69-38.52,26.63-51.35,23.22-18.7,46.43-22.23,65.35-47.22.86-1.97,3.05-5.49,2.18-7.44-3.2-7.19-6.01-13.69-8.85-21.33-2.96,5.82-5.37,11.61-9.25,16.43-6.21,7.71-13.71,13.55-21.69,19.35l-30.59,19.69c-6.01,3.87-11.31,8.45-16.22,13.48-16.81,17.24-20.39,36.1-22.48,59.03-1.18,12.92-3.42,24.98-6.9,37.47-18.74,67.26,21.68,87.75,15.82,144.86-1.6,15.56-7.41,30.07-17.42,42.22ZM711.24,488.52c-.15-14.05-2.58-25.99-4.59-38.92-5.55-30.29-13.21-72.43-30.15-98.16-15.14-22.98-29.81-34.16-56.35-41.81l-26.71-7.7c1.99,2.75,4.07,4.87,6.13,7.4,13.66,16.73,20.55,36.91,22.63,58.26,3,30.71,15.35,52.69,40.37,70.51,21.66,14.86,35.06,27.56,48.68,50.42ZM138.06,460.28c19.48-7.72,37.68-15.88,55.16-27.82-22.14,2.45-41.53-6.46-53.36-24.31-5.51-8.31-8.67-17.89-8.95-28.04-.8-13.3,2.71-25.23,9.45-36.95-5.23,3.39-9.05,7.38-13.25,11.72-15.63,16.13-26.03,35.87-30.35,58.01-6.57,33.67-4.52,50.61-24.55,83.27,10.15-7.05,19.09-13.79,29.59-19.29,11.9-6.23,23.43-11.34,36.27-16.58ZM10.83,580.89c10.23-30.35,20.02-43.37,38.34-66.92,12.09-15.54,22-32.08,28.34-50.79,3.49-10.29,5.06-20.64,6.42-31.38,2.78-22,8.56-47.72,21.91-65.64l7.91-10.61c-40.09,21.46-69.59,48.88-87.46,91.06-6.18,14.58-10.19,29.28-12.11,45.11-.67,5.49-1.42,10.9-1.77,16.44l-.67,10.63-.74,12.05-.34,21.99c-.15,9.57-1.13,18.88.17,28.07ZM303.97,467.69c3.89-9.32,7.13-18.01,9.64-27.39,8.09-30.19-4.33-42.82,4.56-70.54-25.71,12.81-45.19,31.23-47.16,60.89-1.51,22.81,7.53,43.11,16.16,63.57l7.2,17.07c1.22-15.65,3.67-29.4,9.6-43.61ZM451.07,513.2l9.9-16.45c7.69-12.78,13.65-26.47,14.83-41.53,1.56-19.99-5.11-38.43-18.65-52.98-6.84-7.34-15.23-12.56-24.08-17.49l-27.07-15.09c3.01,10.62,4.12,20.64,3.08,31.24-.79,8.12-.45,16.15-.23,24.31,1.82,14.54,5.67,27.91,11.75,41.24,11.13,24.41,15.41,50.3,12.84,77.1-.36,3.75-.4,7.37-.12,11.27,4.05-15.25,9.87-28.51,17.75-41.61ZM715.59,559.15l-.02-18.99c-1.45-26.65-11.97-51.41-30.13-71.04-12.94-13.98-28.76-24.14-46.33-31.52-9.53-4-18.89-6.54-28.75-9.64l-40.24-12.67-23.58-6.68c-11.33-3.21-21.88-6.7-33.36-11.37,6.32,8.13,12.14,15.82,17.46,24.34l11.41,18.27c10.22,14.94,23.76,26.66,40.71,33.53,20.48,8.31,39.32,8.97,60.56,16.06,17.3,5.77,32.51,15.37,45.57,28.01,12.3,11.91,20.59,26.13,26.7,41.7ZM136.09,531.09c25.81-5.56,50.18-12.31,69.88-30.78,22.17-20.79,27.31-44.8,30.29-73.84.86-8.34,2.13-15.91,3.65-24.41-2.3,2.26-4.36,4.4-6.43,6.84-11.78,13.83-25.02,25.33-40.21,35.45-14.12,9.41-29.31,15.82-44.92,22.43l-23.45,9.94c-17.7,7.5-34.07,17.18-49.28,28.99-34.36,26.68-58.74,67.66-61.96,110.98,23.02-53.27,69.56-74.2,122.42-85.59ZM506.79,653.22c-14.62-14.85-13.62-44.54-6.39-64.38s19.25-34.9,24.41-57.67c4.5-19.85,3.08-39.42-4.2-58.44-9.4-24.56-23.7-44.25-44.88-61.11,15.21,29.66,11.81,56.42-3.13,84.32l-15.4,26.16c-4.43,7.53-7.86,14.99-11.01,23.15-15.37,39.91-6.91,82.68,31.96,104.32,11.72,6.52,23.99,10.46,37.58,12.74l-8.95-9.09ZM136.48,659.98c11.26,3.28,21.88,6.8,33.47,8.47,14.88,2.15,29.63,1.14,43.08-5.69,20.91-10.61,32.01-34.58,33-57.32,1.43-32.99-15.64-54.35-20.15-87.72-.78-5.75-.59-11.27-.99-17.55-9.2,20.87-19.16,40.59-31.8,59.37-12.73,18.92-28.45,34.46-48.27,45.72-11.97,6.8-24.31,11.64-37.38,15.96l-24.94,8.24c-23.31,7.7-48.34,25.18-52.99,51.07,2.89-2.76,4.65-5.96,7.31-8.22,7.74-6.58,16.38-11.23,26.14-14.18,25.31-7.63,48.23-5.53,73.53,1.85ZM20.25,685.31c.98-26.6,19.84-46.49,43.15-57.93,10.34-5.05,20.63-8.91,31.71-12.24,33.05-9.94,59.53-21.77,81.53-49.37,7.23-9.08,13.51-18.23,19.02-28.45l15.77-29.24c-5.22,3.91-9.19,7.63-14.32,10.88-12.88,8.15-26.68,13.67-41.51,17.28l-33.07,8.07c-18.71,4.56-36.21,11.69-52.59,21.68-29.66,18.09-52.51,48.87-53.95,84.45-.48,11.96.52,23.31,4.25,34.87ZM637.2,671.05c1.3-11.39,2.5-21.06,4.9-31.2,1.89-7.98,2.84-15.81,3.68-23.94.23-24.9-13.19-46.54-35.72-56.69-28-12.62-43.85-13.89-65.41-40.92,2.56,13.16,4.64,25.28,6.15,38.17s4.04,25.77,9.64,37.86c7.62,17.85,20.6,32.01,37.19,42.01,17.4,10.86,28.11,16.56,39.58,34.72ZM608.02,653.45l-14.88-9.21c-7.3-4.52-14.24-9.61-20.32-15.7-14.28-14.29-23.29-31.85-27.98-51.39-4.6-19.16-4.61-34.87-8.82-55.01-2.26,14.38-6.37,27.76-12.87,40.92l-10.37,20.98c-5.75,11.64-8.91,24.22-8.33,36.95,1.05,23.13,17.01,41.36,39.73,44.95l30.34,4.8c13.94,2.21,26.85,7.84,39.09,14.72,9.26,5.21,16.65,11.56,25.28,17.84-2.55-21.45-13.11-38.88-30.87-49.87ZM78.71,716.47l20.84-16.19c5.68-4.3,11.17-8.32,17.45-11.62,12.03-7.18,24.38-11.51,38.79-14.2l-31.18-8.05c-15.01-3.88-30.28-4.25-45.51-2.23-18.96,2.86-43.68,13.26-48.12,33.82-1.44,6.67.5,12.99,4.91,17.99,11.35,12.89,30.33,10.2,42.84.48Z"/>
</svg>