<?xml version="1.0" encoding="UTF-8"?>
<svg id="katman_1" xmlns="http://www.w3.org/2000/svg" version="1.1" viewBox="0 0 623.6 297.1">
  <!-- Generator: Adobe Illustrator 30.2.1, SVG Export Plug-In . SVG Version: 2.1.1 Build 1)  -->
  <defs>
    <style>
      .st0 {
        fill: #f9f9f9;
      }
    </style>
  </defs>
  <path class="st0" d="M387.4,74.8c-8.7,2.6-16,6.6-22,11.1-21.6,16.2-29,48.2-20.3,56.2,4.6,4.2,12.4.4,16,5.7,3.5,5.2-1.9,11.9,1.6,16.4,2.7,3.6,8.6,2.5,15.6,2.4,42.5-.8,55,16.6,56.1,18.4,0,0,.1.2.2.3,18.2,33.8-51.6,34.3-62.7,20.4-10.1-12.6-30.1-17.8-33.4-4-.7,2.7-.4,5.5.5,8.1,7.6,23,36.8,30.5,50,32.7,2.9.5,4.4,3.7,2.9,6.3-3.2,5.5-6.3,12.9,2.5,10.8,13.6-3.2,21.6,13,7.3,12.1-7.9-.5-11.6,2.5-13.4,5.2-1.3,2.1-.5,4.9,1.7,6,18,8.9,30.4-1.3,33.1-3.9.4-.4.7-.8.9-1.3,9-19.2-1.6-24.7-8.7-26.3-2.4-.5-3.8-3-3.1-5.3.5-1.6,1.9-2.6,3.5-2.9,5.6-1,19.8-4.1,28.4-10.2.1,0,.3-.2.4-.3,43.7-23.2,28.7-84-25.6-88.2-46.5-3.6-52.1-24.6-43.4-35.7,2.1-2.7,5-4.5,8.2-5.6,45.3-15,47.9,18.8,67.4,14.9,17.3-3.4,12.6-18.7,11.1-22.6-.2-.6-.6-1.1-1-1.5-20.2-19.4-48.4-26.9-73.8-19.3h0Z"/>
  <g>
    <path class="st0" d="M188.3,106.7c1,35.2,2,70.3,3.1,105.5,0,3.4,2.4,6.3,5.7,7,5.7,1.4,14.3,4.7,20.6,13.1,1.1,1.5,2.1,3,2.9,4.5,7.1,13.4,20.1,22.8,35.3,24,.6,0,1.3,0,2,.1h2.3c17.8.4,34.3-9.1,43.9-24.1,2-3.1,4.5-6.4,7.7-9.5,5.7-5.6,11.6-9,16.2-11,2.7-1.2,4.4-3.8,4.5-6.7,1-33.8,2.1-67.6,3.1-101.4,0-8.7-7.1-15.8-15.8-15.8h0c-13.8,0-24.9,11.2-24.9,24.9v80.4c0,14.2-11.5,25.7-25.7,25.7h-26.2c-5.7,0-11-2.6-14.5-7.1h0c-.3-.5-.5-.8-.8-1.2-3.6-4.9-5.4-10.9-5.5-17-.6-30.5-1.2-61.1-1.8-91.6,0-8.7-7.1-15.8-15.8-15.8h0c-8.7,0-15.8,7.1-15.8,15.8h0l-.5.2Z"/>
    <circle class="st0" cx="241.1" cy="67.5" r="14.7" transform="translate(132.8 293.2) rotate(-80)"/>
    <circle class="st0" cx="282.2" cy="67.5" r="14.7"/>
  </g>
  <path class="st0" d="M79.1,235.5c-.5-8.2,4.1-14.5,12.3-15.3,6.6-.7,12.9-1.4,19.5-2.6,2.1-.4,4-1.1,6-1.9,5.2-1.9,10.4-3.9,14.4-7.7,2.5-2.4,5.1-4.8,7.1-7.6,2.5-3.4,4.5-6.6,6.2-10.5,7.8-17.7,8.2-41.4.4-59.3-1.6-3.6-3.6-6.7-5.8-9.9s-5.2-5.6-8.2-8.3-6.7-4.5-10.5-6.1c-1.8-.7-3.6-1.7-5.4-2.3-6.7-2.3-13.6-3.6-20.8-3.6l-41.7-.2c-3.3,0-6.8-.3-9.7-1.8-8.7-4.4-8.4-17.4-4.2-22.7,1.1-1.3,2.7-3.1,4.3-3.9,3.1-1.6,6.9-2.3,10.5-2.3h39.9c8.8.2,17.3,1,25.6,3.2,7.6,2,15.1,3.7,21.8,7.7,4.2,2.5,8.4,4.6,12,7.8,3.2,2.8,6.3,5.3,9,8.5,2.2,2.6,4.5,5.1,6.3,7.9,2.3,3.6,4.3,7,6.2,10.9,7.6,16,10.1,33.5,9,51.3-.8,13.3-3.5,26.2-9.3,38.1-3.5,7.2-7.9,12.9-13.1,18.7-2.7,2.9-5.7,5.3-8.8,7.8-4.1,3.4-8.9,5.5-13.7,7.9-1.6.8-3.2,1.7-5,2.4-11,4.1-22.6,5.6-34.5,5.6s-19.2-.9-19.9-12h0v.2Z"/>
  <path class="st0" d="M554.3,235.8c11.3,3.1,30.1,3.1,42.1,7,.8.3,2.3,1.5,2.9,2.1,2.9,2.8-2.7,8.2-5.4,9.5-3.9,1.9-8,3.8-12.6,4.7-20.2,4.1-47.8,2.4-66.5-7.8-4.1-2.6-8.5-4.5-12-7.8-2.2-2.1-4.6-3.9-6.7-6.1-14.2-15.2-19.5-33.2-20.9-53.6-.3-4.7-.2-8.9.1-13.6,1.2-20.7,8.4-36.8,21.8-52.3,2.3-2.7,5.2-4.8,7.8-7.4s5.8-4.1,8.8-6.2l3.2-2.2c5-3.4,10.7-5,16.3-7.2,13-5,32.1-6.6,45.9-5.7,11.8.8,22.9,7.3,21.2,20.5-.7,5.8-5.8,10.7-11,10.8l-30.4.3c-8.5,0-17.1.8-24.5,4.7l-3.5,1.8c-3.7,2-7.5,3.8-10.4,6.8-2.5,2.5-4.9,4.8-6.8,7.7-2.8,4.2-4.9,8.4-6.3,13.4-3.6,13.2-3.3,26.8-.4,40.2.7,3.1,1.8,5.9,2.9,8.8,1.1,2.7,2.6,5.1,4.1,7.6,1.7,2.9,4,5.2,6.3,7.7,3.2,3.5,7.3,5.9,11.5,8.4,5.4,3.3,11.7,4.7,17.9,6.4l4.6,1.3h0v.2Z"/>
  <path class="st0" d="M66.4,252c-1.7,11.8-14.3,12.7-22.3,10.3-8.5-2.6-9.1-10.3-9.1-20v-123.7c0-4.9,2.4-10,6.2-11.8,6.2-2.9,13.6-2.8,19.6.6,4.3,2.4,6.2,8.3,6.2,13.7v116c0,5.3,0,10-.7,14.9h0Z"/>
  <path class="st0" d="M483.7,106.9c1.4-7.1,5.2-13,9.6-18.4,2.1-2.6,4.4-4.8,6.8-7.2l2.2-2.3c2.8-2.9,6.2-4.8,9.4-7.3,3.6-2.7,7.4-4.9,11.2-7.4,1-.7,2.1-1.6,3.2-2.2l11.3-5.8,3.9-2.4c3.2-2,6.6-3.4,9.5-5.8s6-4.5,8.5-7.2c7.4-8.4,10.4-14.6,11.6-26,.5-4.4-.4-8.5-2.2-12.9,3.6,2.1,5.4,5.4,7.2,8.7,3.3,5.9,4.7,12.3,5.3,19.1.9,9-1.1,18-6,25.7-2,3.2-4.9,5.7-7.9,8.4-4.2,3.7-9.6,5.4-14.9,7.6-7.8,3.2-19.2,4.2-28.8,7.7-5.9,2.2-11.6,3.9-17.3,6.5-1.2.5-2.3,1.5-3.3,2.1-8.2,5.2-9.4,6-15.9,13.9-.9,1.8-1.8,3.5-3.5,5.1h.1Z"/>
  <path class="st0" d="M553.4,184.2c-14.8-.8-30.6.5-44.8,4.4-.7.2-1.7.7-2.3.7-2.3,0-2.6-6.6-2.8-8.2-.4-5.7-.3-11.2,4.9-14.5.7-.5,1.9-1.7,2.6-1.9,2.8-.9,6-1.9,9-1.9h43.1c3.9-.1,8.2.3,11.1,2.5,3.3,2.6,4.7,5.9,5,9.7s.7,15.2-5.8,13.1-13.2-3.5-20.2-3.9h.2Z"/>
</svg>